{"glyphs":{" ":{"ha":361,"x_min":0,"x_max":0,"o":""},"ሀ":{"ha":873,"x_min":115,"x_max":758,"o":"m 758 991 l 758 351 q 674 80 758 174 q 433 -14 591 -14 q 197 81 278 -14 q 115 354 115 175 l 115 991 l 321 991 l 321 347 q 350 202 321 248 q 439 157 378 157 q 525 203 496 157 q 553 349 553 249 l 553 991 l 758 991 z "},"ሁ":{"ha":1083,"x_min":115,"x_max":1035,"o":"m 758 991 l 758 570 l 986 570 l 1035 302 l 1002 302 q 899 333 941 302 q 843 414 857 363 l 758 414 l 758 351 q 674 80 758 174 q 433 -14 591 -14 q 197 81 278 -14 q 115 354 115 175 l 115 991 l 321 991 l 321 347 q 350 202 321 248 q 439 157 378 157 q 525 203 496 157 q 553 349 553 249 l 553 991 l 758 991 z "},"ሂ":{"ha":786,"x_min":89,"x_max":737,"o":"m 313 454 q 89 726 89 498 l 89 991 l 294 991 l 294 725 q 317 647 294 676 q 375 612 339 618 l 528 991 l 737 991 l 401 155 l 557 155 q 612 218 570 193 q 704 244 654 244 l 737 244 l 700 78 l 737 -89 l 704 -89 q 612 -63 654 -89 q 557 0 570 -37 l 172 0 l 172 109 l 313 454 z "},"ሃ":{"ha":786,"x_min":89,"x_max":737,"o":"m 313 454 q 89 726 89 498 l 89 991 l 294 991 l 294 725 q 317 647 294 676 q 375 612 339 618 l 528 991 l 737 991 l 339 0 l 131 0 l 313 454 z "},"ሄ":{"ha":860,"x_min":89,"x_max":800,"o":"m 313 454 q 89 726 89 498 l 89 991 l 294 991 l 294 725 q 317 647 294 676 q 375 612 339 618 l 528 991 l 737 991 l 514 436 l 564 436 q 736 380 672 436 q 800 228 800 324 q 726 59 800 119 q 511 0 651 0 l 172 0 l 172 109 l 313 454 m 458 298 l 395 138 l 454 138 q 563 159 528 138 q 597 231 597 181 q 576 282 597 267 q 511 298 555 298 l 458 298 z "},"ህ":{"ha":1043,"x_min":74,"x_max":928,"o":"m 928 991 l 928 351 q 844 80 928 174 q 603 -14 760 -14 q 366 81 448 -14 q 285 354 285 175 l 285 604 q 74 865 74 627 l 74 991 l 278 991 l 278 888 q 307 786 278 816 q 414 757 336 757 l 490 757 l 490 347 q 519 202 490 248 q 608 157 548 157 q 694 203 666 157 q 722 349 722 249 l 722 991 l 928 991 z "},"ሆ":{"ha":1182,"x_min":115,"x_max":1122,"o":"m 553 972 q 694 998 635 991 q 860 1006 753 1006 q 1054 950 985 1006 q 1122 796 1122 894 q 1048 627 1122 686 q 833 568 975 568 l 758 568 l 758 351 q 674 82 758 177 q 433 -14 590 -14 q 197 81 278 -14 q 115 353 115 175 l 115 991 l 321 991 l 321 347 q 350 202 321 248 q 439 157 378 157 q 525 203 496 157 q 553 349 553 249 l 553 972 m 920 800 q 836 867 920 867 q 758 859 789 867 l 758 705 l 777 705 q 884 727 848 705 q 920 800 920 749 z "},"ለ":{"ha":867,"x_min":60,"x_max":818,"o":"m 818 0 l 606 0 l 406 593 q 328 411 360 549 q 267 0 295 274 l 60 0 q 118 395 82 240 q 208 640 154 549 q 345 765 261 730 l 265 991 l 479 991 l 818 0 z "},"ሉ":{"ha":996,"x_min":60,"x_max":947,"o":"m 624 570 l 899 570 l 947 302 l 914 302 q 811 333 854 302 q 755 414 769 363 l 676 414 l 818 0 l 606 0 l 406 593 q 328 411 360 549 q 267 0 295 274 l 60 0 q 118 395 82 240 q 208 640 154 549 q 345 765 261 730 l 265 991 l 479 991 l 624 570 z "},"ሊ":{"ha":1078,"x_min":60,"x_max":1029,"o":"m 764 155 l 848 155 q 904 218 862 193 q 996 244 946 244 l 1029 244 l 991 78 l 1029 -89 l 996 -89 q 904 -63 946 -89 q 848 0 862 -37 l 606 0 l 406 593 q 328 411 360 549 q 267 0 295 274 l 60 0 q 118 395 82 240 q 208 640 154 549 q 345 765 261 730 l 265 991 l 479 991 l 764 155 z "},"ላ":{"ha":867,"x_min":90,"x_max":818,"o":"m 818 0 l 606 0 l 406 593 q 342 466 372 560 q 297 245 313 372 l 90 245 q 186 601 123 475 q 345 765 249 726 l 265 991 l 479 991 l 818 0 z "},"ሌ":{"ha":1150,"x_min":60,"x_max":1101,"o":"m 406 593 q 328 411 360 549 q 267 0 295 274 l 60 0 q 118 395 82 240 q 208 640 154 549 q 345 765 261 730 l 265 991 l 479 991 l 668 436 l 831 436 q 1032 382 963 436 q 1101 228 1101 328 q 1025 66 1101 126 q 818 0 949 5 l 606 0 l 406 593 m 715 298 l 771 138 q 867 160 835 139 q 899 227 899 181 q 870 283 899 267 q 787 298 841 298 l 715 298 z "},"ል":{"ha":1032,"x_min":60,"x_max":983,"o":"m 60 0 q 184 520 98 332 q 418 765 271 709 l 319 991 l 533 991 l 983 0 l 771 0 l 488 610 q 340 436 397 576 l 345 436 q 517 380 454 436 q 581 228 581 324 q 506 59 581 119 q 292 0 431 0 l 60 0 m 297 298 q 262 138 279 229 q 371 159 336 138 q 406 231 406 181 q 385 282 406 267 q 319 298 363 298 l 297 298 z "},"ሎ":{"ha":1283,"x_min":60,"x_max":1235,"o":"m 725 489 l 650 489 l 818 0 l 606 0 l 406 593 q 328 411 360 549 q 267 0 295 274 l 60 0 q 118 395 82 240 q 208 640 154 549 q 345 765 261 730 l 265 991 l 479 991 l 597 644 l 822 644 q 981 673 886 673 q 1170 623 1104 673 q 1235 481 1235 572 q 1167 329 1235 385 q 981 273 1099 273 q 793 330 862 273 q 725 481 725 387 l 725 489 m 981 562 q 923 541 944 562 q 903 481 903 519 q 924 411 903 437 q 981 385 945 385 q 1037 411 1017 385 q 1057 481 1057 438 q 1037 540 1057 518 q 981 562 1017 562 z "},"ሏ":{"ha":1047,"x_min":90,"x_max":999,"o":"m 764 155 l 950 155 l 999 -111 l 965 -111 q 863 -81 905 -111 q 807 0 821 -51 l 454 0 q 398 -81 441 -51 q 296 -111 356 -111 l 262 -111 l 311 155 l 553 155 l 406 593 q 342 466 372 560 q 297 245 313 372 l 90 245 q 186 601 123 475 q 345 765 249 726 l 265 991 l 479 991 l 764 155 z "},"ሐ":{"ha":1120,"x_min":87,"x_max":1032,"o":"m 828 0 l 828 296 q 784 436 828 384 q 663 494 740 488 l 663 0 l 457 0 l 457 494 q 334 434 377 487 q 292 297 292 381 l 292 0 l 87 0 l 87 292 q 186 555 87 454 q 457 665 286 656 l 457 991 l 663 991 l 663 664 q 860 611 776 659 q 988 481 943 564 q 1032 293 1032 398 l 1032 0 l 828 0 z "},"ሑ":{"ha":1343,"x_min":87,"x_max":1295,"o":"m 828 0 l 828 296 q 784 436 828 384 q 663 494 740 488 l 663 0 l 457 0 l 457 494 q 334 434 377 487 q 292 297 292 381 l 292 0 l 87 0 l 87 292 q 186 555 87 454 q 457 665 286 656 l 457 991 l 663 991 l 663 664 q 861 609 777 657 q 989 476 944 561 l 1246 476 l 1295 210 l 1261 210 q 1159 240 1201 210 q 1103 321 1116 270 l 1031 321 l 1032 307 l 1032 0 l 828 0 z "},"ሒ":{"ha":1344,"x_min":87,"x_max":1296,"o":"m 828 0 l 828 296 q 784 436 828 384 q 663 494 740 488 l 663 0 l 457 0 l 457 494 q 334 434 377 487 q 292 297 292 381 l 292 0 l 87 0 l 87 292 q 186 555 87 454 q 457 665 286 656 l 457 991 l 663 991 l 663 664 q 860 611 776 659 q 988 481 943 564 q 1032 293 1032 398 l 1032 155 l 1116 155 q 1170 218 1127 191 q 1263 244 1213 244 l 1296 244 l 1258 78 l 1296 -89 l 1263 -89 q 1170 -62 1212 -89 q 1116 0 1127 -36 l 828 0 z "},"ሓ":{"ha":1105,"x_min":74,"x_max":1018,"o":"m 814 0 l 814 296 q 769 437 814 387 q 648 494 724 487 l 648 197 l 443 197 l 443 494 q 321 435 363 487 q 278 297 278 382 l 278 197 l 74 197 l 74 292 q 173 555 74 454 q 443 665 272 656 l 443 991 l 648 991 l 648 664 q 845 611 762 659 q 974 481 929 564 q 1018 293 1018 399 l 1018 0 l 814 0 z "},"ሔ":{"ha":1451,"x_min":87,"x_max":1392,"o":"m 828 0 l 828 296 q 784 436 828 384 q 663 494 740 488 l 663 0 l 457 0 l 457 494 q 334 434 377 487 q 292 297 292 381 l 292 0 l 87 0 l 87 292 q 186 555 87 454 q 457 665 286 656 l 457 991 l 663 991 l 663 664 q 881 597 792 657 q 1007 436 970 538 l 1121 436 q 1322 382 1253 436 q 1392 228 1392 328 q 1309 61 1392 122 q 1083 0 1226 0 l 828 0 m 1032 298 l 1032 138 l 1046 138 q 1153 158 1118 138 q 1189 227 1189 179 q 1161 283 1189 267 q 1078 298 1133 298 l 1032 298 z "},"ሕ":{"ha":1120,"x_min":87,"x_max":1032,"o":"m 828 0 l 828 296 q 784 436 828 384 q 663 494 740 488 l 663 0 l 457 0 l 457 494 q 334 434 377 487 q 292 297 292 381 l 292 0 l 87 0 l 87 292 q 186 555 87 454 q 457 665 286 656 l 457 838 l 215 838 l 167 1117 l 200 1117 q 301 1081 258 1117 q 358 991 344 1046 l 663 991 l 663 664 q 860 611 776 659 q 988 481 943 564 q 1032 293 1032 398 l 1032 0 l 828 0 z "},"ሖ":{"ha":1105,"x_min":87,"x_max":1032,"o":"m 828 197 l 828 296 q 784 436 828 384 q 663 494 740 488 l 663 197 l 457 197 l 457 494 q 334 434 377 487 q 292 297 292 381 l 292 0 l 87 0 l 87 292 q 186 555 87 454 q 457 665 286 656 l 457 991 l 663 991 l 663 664 q 860 611 776 659 q 988 481 943 564 q 1032 293 1032 398 l 1032 197 l 828 197 z "},"ሗ":{"ha":1286,"x_min":74,"x_max":1238,"o":"m 814 155 l 814 296 q 769 437 814 387 q 648 494 724 487 l 648 239 l 443 239 l 443 494 q 321 435 363 487 q 278 297 278 382 l 278 239 l 74 239 l 74 292 q 173 555 74 454 q 443 665 272 656 l 443 991 l 648 991 l 648 664 q 845 611 762 659 q 974 481 929 564 q 1018 293 1018 399 l 1018 155 l 1189 155 l 1238 -111 l 1204 -111 q 1102 -81 1144 -111 q 1046 0 1059 -51 l 585 0 q 529 -81 571 -51 q 427 -111 488 -111 l 393 -111 l 441 155 l 814 155 z "},"መ":{"ha":1447,"x_min":74,"x_max":1373,"o":"m 807 839 l 688 839 l 688 102 q 556 16 624 46 q 407 -14 488 -14 q 157 103 241 -14 q 74 463 74 220 q 176 850 74 709 q 458 991 278 991 l 1074 991 q 1294 880 1215 991 q 1373 568 1373 769 q 1303 226 1373 350 q 1108 102 1233 102 l 807 102 l 807 839 m 397 142 q 445 151 427 142 q 482 182 463 161 l 482 839 l 464 839 q 366 796 408 839 q 300 666 323 753 q 277 469 277 580 q 307 225 277 308 q 397 142 338 142 m 1013 839 l 1013 256 l 1063 256 q 1171 557 1171 256 q 1143 769 1171 699 q 1063 839 1115 839 l 1013 839 z "},"ሙ":{"ha":1691,"x_min":74,"x_max":1643,"o":"m 807 839 l 688 839 l 688 102 q 556 16 624 46 q 407 -14 488 -14 q 157 103 241 -14 q 74 463 74 220 q 176 850 74 709 q 458 991 278 991 l 1074 991 q 1282 897 1204 991 q 1371 635 1359 802 l 1594 635 l 1643 368 l 1610 368 q 1507 398 1550 368 q 1451 479 1465 428 l 1369 479 q 1288 201 1356 301 q 1108 102 1219 102 l 807 102 l 807 839 m 397 142 q 445 151 427 142 q 482 182 463 161 l 482 839 l 464 839 q 366 796 408 839 q 300 666 323 753 q 277 469 277 580 q 307 225 277 308 q 397 142 338 142 m 1013 839 l 1013 256 l 1063 256 q 1171 557 1171 256 q 1143 769 1171 699 q 1063 839 1115 839 l 1013 839 z "},"ሚ":{"ha":1536,"x_min":74,"x_max":1487,"o":"m 1082 478 l 1039 478 q 808 686 808 478 l 808 711 l 810 733 l 818 839 l 689 839 l 689 496 q 370 375 539 375 q 150 448 226 375 q 74 659 74 521 q 123 831 74 755 q 267 949 173 907 q 484 991 361 991 l 1137 991 q 1335 946 1273 991 q 1397 794 1397 901 q 1383 709 1397 758 q 1322 550 1369 660 l 1153 155 l 1307 155 q 1362 218 1320 193 q 1454 244 1404 244 l 1487 244 l 1450 78 l 1487 -89 l 1454 -89 q 1362 -63 1404 -89 q 1307 0 1320 -37 l 922 0 l 922 109 l 1082 478 m 374 530 q 484 551 436 530 l 484 839 q 331 791 383 838 q 278 656 278 745 q 305 561 278 591 q 374 530 332 530 m 1023 839 q 1011 725 1011 734 l 1011 708 q 1131 632 1011 632 l 1149 632 l 1161 661 q 1196 779 1196 742 q 1118 839 1196 839 l 1023 839 z "},"ማ":{"ha":1471,"x_min":74,"x_max":1397,"o":"m 1039 478 q 808 686 808 478 l 808 711 l 810 733 l 818 839 l 689 839 l 689 496 q 370 375 539 375 q 150 448 226 375 q 74 659 74 521 q 123 831 74 755 q 267 949 173 907 q 484 991 361 991 l 1137 991 q 1335 946 1273 991 q 1397 794 1397 901 q 1383 709 1397 758 q 1322 550 1369 660 l 1086 0 l 875 0 l 1082 478 l 1039 478 m 382 530 q 484 551 440 530 l 484 839 q 331 791 383 838 q 278 656 278 745 q 306 565 278 600 q 382 530 334 530 m 1023 839 q 1011 725 1011 734 l 1011 708 q 1131 632 1011 632 l 1149 632 l 1161 661 q 1196 779 1196 742 q 1118 839 1196 839 l 1023 839 z "},"ሜ":{"ha":1610,"x_min":74,"x_max":1550,"o":"m 1039 478 q 808 686 808 478 l 808 711 l 810 733 l 818 839 l 689 839 l 689 496 q 370 375 539 375 q 150 448 226 375 q 74 659 74 521 q 123 831 74 755 q 267 949 173 907 q 484 991 361 991 l 1137 991 q 1335 946 1273 991 q 1397 794 1397 901 q 1390 735 1397 767 q 1369 665 1383 704 q 1274 436 1355 627 l 1314 436 q 1486 380 1422 436 q 1550 228 1550 324 q 1476 59 1550 119 q 1261 0 1401 0 l 922 0 l 922 109 l 1082 478 l 1039 478 m 382 530 q 484 551 440 530 l 484 839 q 331 791 383 838 q 278 656 278 745 q 306 565 278 600 q 382 530 334 530 m 1023 839 q 1011 725 1011 734 l 1011 708 q 1131 632 1011 632 l 1149 632 l 1161 661 q 1196 779 1196 742 q 1118 839 1196 839 l 1023 839 m 1214 298 l 1145 138 l 1204 138 q 1313 159 1278 138 q 1348 231 1348 181 q 1326 282 1348 267 q 1261 298 1305 298 l 1214 298 z "},"ም":{"ha":1447,"x_min":74,"x_max":1373,"o":"m 436 380 q 366 375 408 375 q 148 448 222 375 q 74 657 74 521 q 121 829 74 753 q 256 949 168 906 q 458 991 343 991 l 1074 991 q 1294 927 1215 991 q 1373 747 1373 863 q 1303 551 1373 623 q 1108 479 1233 479 l 807 479 l 807 839 l 688 839 l 688 479 l 484 0 l 272 0 l 436 380 m 375 530 q 482 555 435 530 l 482 839 l 464 839 q 362 814 404 839 q 299 748 321 789 q 277 656 277 706 q 303 564 277 597 q 375 530 330 530 m 1013 839 l 1013 633 l 1063 633 q 1171 741 1171 633 q 1142 814 1171 790 q 1063 839 1114 839 l 1013 839 z "},"ሞ":{"ha":1447,"x_min":74,"x_max":1373,"o":"m 482 387 q 366 375 421 375 q 148 448 222 375 q 74 657 74 521 q 121 829 74 753 q 256 949 168 906 q 458 991 343 991 l 1074 991 q 1294 927 1215 991 q 1373 747 1373 863 q 1303 551 1373 623 q 1108 479 1233 479 l 807 479 l 807 839 l 688 839 l 688 0 l 482 0 l 482 387 m 375 530 q 482 555 435 530 l 482 839 l 464 839 q 362 814 404 839 q 299 748 321 789 q 277 656 277 706 q 303 564 277 597 q 375 530 330 530 m 1013 839 l 1013 633 l 1063 633 q 1171 741 1171 633 q 1142 814 1171 790 q 1063 839 1114 839 l 1013 839 z "},"ሟ":{"ha":1478,"x_min":72,"x_max":1429,"o":"m 940 155 l 1080 478 l 1038 478 q 807 686 807 478 l 807 711 l 808 733 l 817 839 l 688 839 l 688 496 q 368 375 538 375 q 148 449 224 375 q 72 659 72 523 q 122 832 72 756 q 266 950 172 908 q 482 991 361 991 l 1136 991 q 1334 946 1272 991 q 1396 794 1396 901 q 1382 709 1396 758 q 1321 550 1368 660 l 1152 155 l 1381 155 l 1429 -111 l 1396 -111 q 1293 -81 1335 -111 q 1238 0 1251 -51 l 844 0 q 789 -81 831 -51 q 686 -111 747 -111 l 653 -111 l 701 155 l 940 155 m 380 530 q 482 551 439 530 l 482 839 q 329 791 382 838 q 277 656 277 745 q 304 565 277 600 q 380 530 332 530 m 1022 839 q 1010 725 1010 734 l 1010 708 q 1129 632 1010 632 l 1147 632 l 1160 661 q 1194 779 1194 742 q 1117 839 1194 839 l 1022 839 z "},"ሠ":{"ha":1243,"x_min":115,"x_max":1128,"o":"m 519 991 l 724 991 l 724 440 q 750 319 724 355 q 827 283 776 283 q 924 439 924 283 l 924 991 l 1128 991 l 1128 436 q 1055 198 1128 284 q 847 113 982 113 q 744 133 793 113 q 663 186 696 153 q 559 38 630 90 q 395 -14 488 -14 q 188 72 260 -14 q 115 315 115 158 l 115 991 l 319 991 l 319 315 q 346 198 319 239 q 424 157 373 157 q 495 198 470 157 q 519 317 519 239 l 519 991 z "},"ሡ":{"ha":1453,"x_min":115,"x_max":1404,"o":"m 519 991 l 724 991 l 724 440 q 750 319 724 355 q 827 283 776 283 q 924 439 924 283 l 924 991 l 1128 991 l 1128 631 l 1356 631 l 1404 364 l 1371 364 q 1269 394 1311 364 q 1213 475 1226 423 l 1128 475 l 1128 436 q 1055 198 1128 284 q 847 113 982 113 q 744 133 793 113 q 663 186 696 153 q 559 38 630 90 q 395 -14 488 -14 q 188 72 260 -14 q 115 315 115 158 l 115 991 l 319 991 l 319 315 q 346 198 319 239 q 424 157 373 157 q 495 198 470 157 q 519 317 519 239 l 519 991 z "},"ሢ":{"ha":1251,"x_min":87,"x_max":1203,"o":"m 492 991 l 696 991 l 696 794 q 722 673 696 709 q 799 637 748 637 q 896 793 896 637 l 896 991 l 1100 991 l 1100 790 q 1067 615 1100 690 l 868 155 l 1022 155 q 1078 218 1036 193 q 1169 244 1120 244 l 1203 244 l 1165 78 l 1203 -89 l 1169 -89 q 1078 -63 1120 -89 q 1022 0 1036 -37 l 637 0 l 637 109 l 793 468 q 705 492 746 472 q 635 541 664 512 q 533 394 604 447 q 367 340 462 340 q 160 426 233 340 q 87 669 87 512 l 87 991 l 292 991 l 292 669 q 318 552 292 592 q 396 511 345 511 q 467 553 443 511 q 492 671 492 594 l 492 991 z "},"ሣ":{"ha":1187,"x_min":87,"x_max":1100,"o":"m 492 991 l 696 991 l 696 794 q 722 673 696 709 q 799 637 748 637 q 896 793 896 637 l 896 991 l 1100 991 l 1100 790 q 1067 615 1100 692 l 802 0 l 590 0 l 793 468 q 705 492 746 472 q 635 541 664 512 q 533 394 604 447 q 367 340 462 340 q 160 426 233 340 q 87 669 87 512 l 87 991 l 292 991 l 292 669 q 318 552 292 592 q 396 511 345 511 q 467 553 443 511 q 492 671 492 594 l 492 991 z "},"ሤ":{"ha":1325,"x_min":87,"x_max":1265,"o":"m 637 109 l 793 468 q 705 492 746 472 q 635 541 664 512 q 533 394 604 447 q 367 340 462 340 q 160 426 233 340 q 87 669 87 512 l 87 991 l 292 991 l 292 669 q 318 552 292 592 q 396 511 345 511 q 467 553 443 511 q 492 671 492 594 l 492 991 l 696 991 l 696 794 q 722 673 696 709 q 799 637 748 637 q 896 793 896 637 l 896 991 l 1100 991 l 1100 790 q 1067 615 1100 690 l 989 436 l 1029 436 q 1201 380 1137 436 q 1265 228 1265 325 q 1191 59 1265 119 q 977 0 1116 0 l 637 0 l 637 109 m 929 298 l 860 138 l 920 138 q 1028 159 994 138 q 1063 231 1063 181 q 1042 282 1063 267 q 977 298 1021 298 l 929 298 z "},"ሥ":{"ha":1372,"x_min":49,"x_max":1284,"o":"m 676 991 l 880 991 l 880 794 q 906 673 880 709 q 983 637 932 637 q 1080 793 1080 637 l 1080 991 l 1284 991 l 1284 790 q 1253 619 1284 691 q 1158 507 1221 547 q 1004 467 1096 467 q 901 487 949 467 q 819 541 853 508 q 719 395 790 449 q 551 340 648 340 q 418 368 473 340 l 260 0 l 49 0 l 286 547 q 272 669 272 602 l 272 991 l 476 991 l 476 669 q 503 552 476 592 q 581 511 530 511 q 651 552 627 511 q 676 671 676 592 l 676 991 z "},"ሦ":{"ha":1187,"x_min":87,"x_max":1100,"o":"m 492 991 l 696 991 l 696 794 q 722 673 696 709 q 799 637 748 637 q 896 793 896 637 l 896 991 l 1100 991 l 1100 790 q 1027 552 1100 638 q 819 467 954 467 q 718 487 765 467 q 636 539 670 507 l 404 0 l 193 0 l 340 340 q 153 433 218 349 q 87 669 87 518 l 87 991 l 292 991 l 292 669 q 318 552 292 592 q 396 511 345 511 q 467 553 443 511 q 492 671 492 594 l 492 991 z "},"ሧ":{"ha":1187,"x_min":87,"x_max":1121,"o":"m 492 991 l 696 991 l 696 794 q 722 673 696 709 q 799 637 748 637 q 896 793 896 637 l 896 991 l 1100 991 l 1100 790 q 1067 615 1100 690 l 868 155 l 1072 155 l 1121 -111 l 1088 -111 q 985 -81 1027 -111 q 929 0 943 -51 l 591 0 q 536 -81 578 -51 q 433 -111 494 -111 l 400 -111 l 449 155 l 657 155 l 793 468 q 705 492 746 472 q 635 541 664 512 q 533 394 604 447 q 367 340 462 340 q 160 426 233 340 q 87 669 87 512 l 87 991 l 292 991 l 292 669 q 318 552 292 592 q 396 511 345 511 q 467 553 443 511 q 492 671 492 594 l 492 991 z "},"ረ":{"ha":764,"x_min":60,"x_max":715,"o":"m 390 0 q 142 66 224 0 q 60 265 60 132 q 118 459 60 368 q 325 675 176 551 q 416 798 387 726 q 446 991 446 870 l 653 991 q 603 733 653 842 q 444 539 552 623 q 265 267 265 397 q 304 182 265 209 q 424 155 343 155 l 534 155 q 591 218 548 193 q 682 244 633 244 l 715 244 l 677 78 l 715 -89 l 682 -89 q 590 -63 633 -89 q 534 0 548 -37 l 390 0 z "},"ሩ":{"ha":880,"x_min":60,"x_max":832,"o":"m 396 236 l 390 236 q 140 288 220 236 q 60 453 60 339 q 121 604 60 534 q 307 745 182 675 q 410 841 375 782 q 446 991 446 901 l 653 991 q 422 608 653 725 q 298 529 333 562 q 264 456 264 496 q 295 411 264 425 q 390 397 326 397 l 783 397 l 832 131 l 799 131 q 696 161 739 131 q 640 241 654 191 l 602 241 l 602 0 l 396 0 l 396 236 z "},"ሪ":{"ha":810,"x_min":60,"x_max":741,"o":"m 393 -14 q 146 60 232 -14 q 60 272 60 133 q 82 394 60 338 q 153 507 105 450 q 319 665 201 564 q 416 795 385 722 q 447 991 447 869 l 654 991 q 603 730 654 842 q 446 534 551 618 q 309 401 352 463 q 265 272 265 340 q 300 178 265 214 q 393 142 335 142 q 498 185 463 142 q 533 310 533 228 l 533 393 l 741 393 l 741 321 q 393 -14 741 -14 z "},"ራ":{"ha":977,"x_min":60,"x_max":928,"o":"m 895 196 q 736 307 775 196 q 622 229 659 300 q 579 0 585 159 l 390 0 q 142 66 224 0 q 60 265 60 132 q 118 459 60 368 q 325 675 176 551 q 416 798 387 726 q 446 991 446 870 l 653 991 q 603 733 653 842 q 444 539 552 623 q 265 267 265 397 q 293 191 265 217 q 380 157 320 164 q 495 388 407 313 q 732 463 583 463 l 878 463 l 928 196 l 895 196 z "},"ሬ":{"ha":901,"x_min":60,"x_max":852,"o":"m 343 207 q 408 351 343 301 q 599 400 472 400 q 787 350 722 400 q 852 207 852 300 q 785 56 852 111 q 599 0 718 0 l 441 0 q 154 64 248 0 q 60 265 60 128 q 118 459 60 368 q 325 675 176 551 q 416 798 387 726 q 446 991 446 870 l 653 991 q 603 733 653 842 q 444 539 552 623 q 265 267 265 397 q 350 151 265 178 q 343 207 343 174 m 599 289 q 542 267 562 289 q 521 207 521 245 q 542 138 521 164 q 599 111 563 111 q 655 138 635 111 q 675 207 675 165 q 654 268 675 246 q 599 289 634 289 z "},"ር":{"ha":818,"x_min":87,"x_max":758,"o":"m 441 0 q 232 34 307 0 q 122 142 157 68 q 87 346 87 216 l 87 427 q 130 758 87 635 q 264 936 172 880 q 524 991 355 991 l 710 991 l 758 725 l 725 725 q 623 755 665 725 q 567 836 581 785 q 399 801 456 836 q 318 683 342 766 q 293 428 293 601 l 293 334 q 328 196 293 236 q 444 155 362 155 l 578 155 q 632 218 589 191 q 725 244 675 244 l 758 244 l 721 78 l 758 -89 l 725 -89 q 632 -62 674 -89 q 578 0 589 -36 l 441 0 z "},"ሮ":{"ha":981,"x_min":87,"x_max":932,"o":"m 422 785 q 428 836 422 816 q 325 719 357 808 q 293 441 293 631 l 293 334 q 328 196 293 236 q 444 155 362 155 l 576 155 q 631 218 588 191 q 724 244 674 244 l 757 244 l 720 78 l 757 -89 l 724 -89 q 630 -62 673 -89 q 576 0 588 -36 l 441 0 q 232 34 307 0 q 122 142 157 68 q 87 346 87 216 l 87 427 q 136 746 87 621 q 288 931 184 871 q 571 991 391 991 l 677 991 q 864 936 797 991 q 932 785 932 881 q 866 642 932 692 q 677 591 800 591 q 488 640 553 591 q 422 785 422 688 m 677 703 q 734 725 715 703 q 754 785 754 748 q 733 854 754 829 q 677 880 712 880 q 621 854 642 880 q 600 785 600 828 q 621 724 600 746 q 677 703 641 703 z "},"ሯ":{"ha":977,"x_min":60,"x_max":928,"o":"m 635 789 q 444 515 596 625 q 312 387 359 452 q 265 260 265 321 q 292 190 265 214 q 380 157 318 165 q 495 388 407 313 q 732 463 583 463 l 878 463 l 928 196 l 895 196 q 736 307 775 196 q 622 229 659 300 q 579 0 585 159 l 390 0 q 142 62 224 0 q 60 252 60 124 q 116 433 60 347 q 325 640 173 519 q 428 789 401 702 l 163 789 l 114 1055 l 147 1055 q 250 1025 208 1055 q 306 945 292 996 l 734 945 q 790 1025 748 996 q 893 1055 833 1055 l 926 1055 l 878 789 l 635 789 z "},"ሰ":{"ha":873,"x_min":115,"x_max":758,"o":"m 115 0 l 115 500 q 172 734 115 644 q 334 851 228 823 l 334 1055 l 539 1055 l 539 852 q 703 735 647 825 q 758 497 758 644 l 758 0 l 553 0 l 553 504 q 524 649 553 604 q 435 694 495 694 q 349 648 377 694 q 321 503 321 602 l 321 0 l 115 0 z "},"ሱ":{"ha":1083,"x_min":115,"x_max":1035,"o":"m 758 0 l 553 0 l 553 504 q 524 649 553 604 q 435 694 495 694 q 349 648 377 694 q 321 503 321 602 l 321 0 l 115 0 l 115 500 q 172 734 115 644 q 334 851 228 823 l 334 1055 l 539 1055 l 539 852 q 699 742 643 827 q 758 521 754 657 l 986 521 l 1035 254 l 1002 254 q 899 284 941 254 q 843 366 857 314 l 758 366 l 758 0 z "},"ሲ":{"ha":1071,"x_min":115,"x_max":1022,"o":"m 115 0 l 115 500 q 172 734 115 644 q 334 851 228 823 l 334 1055 l 539 1055 l 539 852 q 703 735 647 825 q 758 497 758 644 l 758 155 l 842 155 q 897 218 855 193 q 989 244 939 244 l 1022 244 l 985 78 l 1022 -89 l 989 -89 q 897 -63 939 -89 q 842 0 855 -37 l 553 0 l 553 504 q 524 649 553 604 q 435 694 495 694 q 349 648 377 694 q 321 503 321 602 l 321 0 l 115 0 z "},"ሳ":{"ha":860,"x_min":102,"x_max":745,"o":"m 102 329 l 102 500 q 157 733 102 643 q 319 851 212 823 l 319 1055 l 525 1055 l 525 852 q 690 734 635 825 q 745 497 745 642 l 745 0 l 539 0 l 539 504 q 510 649 539 604 q 421 694 481 694 q 336 649 364 694 q 307 503 307 604 l 307 329 l 102 329 z "},"ሴ":{"ha":1178,"x_min":115,"x_max":1118,"o":"m 115 0 l 115 500 q 172 734 115 644 q 334 851 228 823 l 334 1055 l 539 1055 l 539 852 q 703 735 647 825 q 758 497 758 644 l 758 436 l 847 436 q 1049 382 979 436 q 1118 228 1118 328 q 1036 61 1118 122 q 810 0 953 0 l 553 0 l 553 504 q 524 649 553 604 q 435 694 495 694 q 349 648 377 694 q 321 503 321 602 l 321 0 l 115 0 m 758 298 l 758 138 l 772 138 q 880 158 844 138 q 916 227 916 179 q 887 283 916 267 q 804 298 858 298 l 758 298 z "},"ስ":{"ha":873,"x_min":115,"x_max":758,"o":"m 115 0 l 115 500 q 167 727 115 639 q 317 847 219 815 l 220 1055 l 425 1055 l 517 859 q 697 743 637 835 q 758 497 758 651 l 758 0 l 553 0 l 553 504 q 524 649 553 604 q 435 694 495 694 q 349 648 377 694 q 321 503 321 602 l 321 0 l 115 0 z "},"ሶ":{"ha":860,"x_min":115,"x_max":758,"o":"m 115 0 l 115 500 q 172 734 115 644 q 334 851 228 823 l 334 1055 l 539 1055 l 539 852 q 703 735 647 825 q 758 497 758 644 l 758 329 l 553 329 l 553 504 q 524 649 553 604 q 435 694 495 694 q 349 648 377 694 q 321 503 321 602 l 321 0 l 115 0 z "},"ሷ":{"ha":993,"x_min":66,"x_max":945,"o":"m 102 328 l 102 500 q 157 733 102 643 q 319 851 212 823 l 319 1055 l 525 1055 l 525 852 q 690 734 635 825 q 745 497 745 642 l 745 155 l 896 155 l 945 -111 l 911 -111 q 808 -81 850 -111 q 753 0 766 -51 l 258 0 q 202 -81 245 -51 q 100 -111 160 -111 l 66 -111 l 115 155 l 539 155 l 539 504 q 510 649 539 604 q 421 694 481 694 q 336 649 364 694 q 307 503 307 604 l 307 328 l 102 328 z "},"ሸ":{"ha":873,"x_min":66,"x_max":807,"o":"m 115 0 l 115 493 q 172 730 115 638 q 334 851 228 823 l 334 953 l 248 953 q 190 881 233 911 q 100 851 147 851 l 66 851 l 104 1011 l 66 1171 l 100 1171 q 190 1140 147 1171 q 248 1069 233 1110 l 627 1069 q 683 1139 639 1108 q 774 1171 726 1171 l 807 1171 l 770 1011 l 807 851 l 774 851 q 683 882 726 851 q 627 953 640 913 l 539 953 l 539 846 q 703 728 647 819 q 758 490 758 637 l 758 0 l 553 0 l 553 497 q 524 642 553 596 q 435 688 495 688 q 349 642 377 688 q 321 496 321 595 l 321 0 l 115 0 z "},"ሹ":{"ha":1083,"x_min":66,"x_max":1035,"o":"m 986 521 l 1035 254 l 1002 254 q 899 284 941 254 q 843 366 857 314 l 758 366 l 758 0 l 553 0 l 553 497 q 524 642 553 596 q 435 688 495 688 q 349 642 377 688 q 321 496 321 595 l 321 0 l 115 0 l 115 493 q 172 727 115 637 q 334 844 228 817 l 334 953 l 248 953 q 190 881 233 911 q 100 851 147 851 l 66 851 l 104 1011 l 66 1171 l 100 1171 q 190 1140 147 1171 q 248 1069 233 1110 l 627 1069 q 683 1139 639 1108 q 774 1171 726 1171 l 807 1171 l 770 1011 l 807 851 l 774 851 q 683 882 726 851 q 627 953 640 913 l 539 953 l 539 846 q 696 737 642 820 q 757 521 751 654 l 986 521 z "},"ሺ":{"ha":1071,"x_min":66,"x_max":1022,"o":"m 100 1171 q 190 1140 147 1171 q 248 1069 233 1110 l 627 1069 q 683 1139 639 1108 q 774 1171 726 1171 l 807 1171 l 770 1011 l 807 851 l 774 851 q 683 882 726 851 q 627 953 640 913 l 539 953 l 539 846 q 703 728 647 819 q 758 490 758 637 l 758 155 l 842 155 q 897 218 855 193 q 989 244 939 244 l 1022 244 l 985 78 l 1022 -89 l 989 -89 q 897 -63 939 -89 q 842 0 855 -37 l 553 0 l 553 497 q 524 642 553 596 q 435 688 495 688 q 349 642 377 688 q 321 496 321 595 l 321 0 l 115 0 l 115 493 q 172 727 115 637 q 334 844 228 817 l 334 953 l 248 953 q 190 881 233 911 q 100 851 147 851 l 66 851 l 104 1011 l 66 1171 l 100 1171 z "},"ሻ":{"ha":860,"x_min":53,"x_max":793,"o":"m 86 1171 q 175 1141 133 1171 q 233 1069 218 1112 l 612 1069 q 670 1140 627 1109 q 760 1171 713 1171 l 793 1171 l 755 1011 l 793 851 l 760 851 q 670 881 713 851 q 612 953 628 911 l 525 953 l 525 846 q 690 727 635 819 q 745 490 745 635 l 745 0 l 539 0 l 539 497 q 510 642 539 596 q 421 688 481 688 q 336 643 364 688 q 307 496 307 597 l 307 329 l 102 329 l 102 493 q 157 726 102 636 q 319 844 212 816 l 319 953 l 233 953 q 175 881 218 910 q 86 851 133 851 l 53 851 l 90 1011 l 53 1171 l 86 1171 z "},"ሼ":{"ha":1178,"x_min":66,"x_max":1118,"o":"m 553 497 q 524 642 553 596 q 435 688 495 688 q 349 642 377 688 q 321 496 321 595 l 321 0 l 115 0 l 115 493 q 172 727 115 637 q 334 844 228 817 l 334 953 l 248 953 q 190 881 233 911 q 100 851 147 851 l 66 851 l 104 1011 l 66 1171 l 100 1171 q 190 1140 147 1171 q 248 1069 233 1110 l 627 1069 q 683 1139 639 1108 q 774 1171 726 1171 l 807 1171 l 770 1011 l 807 851 l 774 851 q 683 882 726 851 q 627 953 640 913 l 539 953 l 539 846 q 703 728 647 819 q 758 490 758 637 l 758 436 l 847 436 q 1049 382 979 436 q 1118 228 1118 328 q 1036 61 1118 122 q 810 0 953 0 l 553 0 l 553 497 m 758 298 l 758 138 l 772 138 q 880 158 844 138 q 916 227 916 179 q 887 283 916 267 q 804 298 858 298 l 758 298 z "},"ሽ":{"ha":925,"x_min":49,"x_max":810,"o":"m 82 1171 q 172 1140 129 1171 q 229 1069 215 1109 l 608 1069 q 666 1140 623 1109 q 755 1171 708 1171 l 789 1171 l 751 1011 l 789 851 l 755 851 q 666 882 708 851 q 608 953 623 912 l 507 953 l 553 854 q 745 742 680 835 q 810 490 810 648 l 810 0 l 604 0 l 604 497 q 575 642 604 596 q 486 688 547 688 q 400 642 429 688 q 372 496 372 595 l 372 0 l 167 0 l 167 493 q 355 836 167 762 l 301 953 l 229 953 q 172 881 214 911 q 82 851 129 851 l 49 851 l 86 1011 l 49 1171 l 82 1171 z "},"ሾ":{"ha":860,"x_min":66,"x_max":807,"o":"m 100 1171 q 190 1140 147 1171 q 248 1069 233 1110 l 627 1069 q 683 1139 639 1108 q 774 1171 726 1171 l 807 1171 l 770 1011 l 807 851 l 774 851 q 683 882 726 851 q 627 953 640 913 l 539 953 l 539 846 q 703 728 647 819 q 758 490 758 637 l 758 329 l 553 329 l 553 497 q 524 642 553 596 q 435 688 495 688 q 349 642 377 688 q 321 496 321 595 l 321 0 l 115 0 l 115 493 q 172 727 115 637 q 334 844 228 817 l 334 953 l 248 953 q 190 881 233 911 q 100 851 147 851 l 66 851 l 104 1011 l 66 1171 l 100 1171 z "},"ሿ":{"ha":993,"x_min":53,"x_max":945,"o":"m 539 155 l 539 497 q 510 642 539 596 q 421 688 481 688 q 336 643 364 688 q 307 496 307 597 l 307 328 l 102 328 l 102 493 q 157 726 102 636 q 319 844 212 816 l 319 953 l 233 953 q 175 881 218 910 q 86 851 133 851 l 53 851 l 90 1011 l 53 1171 l 86 1171 q 175 1141 133 1171 q 233 1069 218 1112 l 612 1069 q 670 1140 627 1109 q 760 1171 713 1171 l 793 1171 l 755 1011 l 793 851 l 760 851 q 670 881 713 851 q 612 953 628 911 l 525 953 l 525 846 q 690 727 635 819 q 745 490 745 635 l 745 155 l 896 155 l 945 -111 l 911 -111 q 808 -81 850 -111 q 753 0 766 -51 l 258 0 q 202 -81 245 -51 q 100 -111 160 -111 l 66 -111 l 115 155 l 539 155 z "},"ቀ":{"ha":979,"x_min":74,"x_max":905,"o":"m 591 0 l 387 0 l 387 282 q 217 320 286 288 q 111 409 147 353 q 74 538 74 465 q 112 660 74 606 q 220 746 149 714 q 387 781 291 777 l 387 991 l 591 991 l 591 781 q 760 745 689 777 q 868 660 830 713 q 905 538 905 606 q 868 410 905 465 q 762 321 831 354 q 591 282 692 288 l 591 0 m 387 642 q 303 606 335 636 q 272 533 272 576 q 304 456 272 488 q 387 421 337 425 l 387 642 m 591 421 q 675 457 643 426 q 707 533 707 488 q 675 606 707 576 q 591 642 644 636 l 591 421 z "},"ቁ":{"ha":979,"x_min":74,"x_max":905,"o":"m 591 273 l 825 273 l 868 35 l 835 35 q 732 65 774 35 q 676 146 690 95 l 591 146 l 591 0 l 387 0 l 387 338 q 156 408 237 346 q 74 579 74 471 q 157 742 74 681 q 387 808 239 802 l 387 991 l 591 991 l 591 808 q 822 742 739 802 q 905 579 905 681 q 823 408 905 471 q 591 338 740 345 l 591 273 m 591 476 q 677 509 648 482 q 707 575 707 535 q 677 639 707 614 q 591 669 647 664 l 591 476 m 387 669 q 302 638 332 663 q 272 575 272 614 q 302 508 272 534 q 387 476 332 482 l 387 669 z "},"ቂ":{"ha":979,"x_min":74,"x_max":905,"o":"m 591 127 l 665 127 q 720 190 677 163 q 812 216 763 216 l 846 216 l 808 64 l 846 -89 l 812 -89 q 719 -62 762 -89 q 665 0 677 -36 l 387 0 l 387 310 q 156 380 237 318 q 74 551 74 443 q 157 714 74 653 q 387 781 239 774 l 387 991 l 591 991 l 591 781 q 822 714 739 774 q 905 551 905 653 q 823 380 905 444 q 591 310 740 317 l 591 127 m 591 449 q 676 480 646 454 q 707 547 707 506 q 677 611 707 586 q 591 642 647 636 l 591 449 m 387 642 q 302 611 332 635 q 272 547 272 586 q 302 480 272 506 q 387 449 333 454 l 387 642 z "},"ቃ":{"ha":979,"x_min":53,"x_max":905,"o":"m 591 268 q 555 126 591 186 q 449 33 519 66 q 278 0 378 0 l 244 0 q 188 -82 230 -52 q 86 -111 145 -111 l 53 -111 l 102 155 l 229 155 q 350 183 313 155 q 387 277 387 210 l 387 282 q 217 320 286 288 q 111 409 147 353 q 74 538 74 465 q 112 660 74 606 q 220 746 149 714 q 387 781 291 777 l 387 991 l 591 991 l 591 781 q 760 745 689 777 q 868 660 830 713 q 905 538 905 606 q 868 410 905 465 q 762 321 831 354 q 591 282 692 288 l 591 268 m 387 642 q 303 606 335 636 q 272 533 272 576 q 304 456 272 488 q 387 421 337 425 l 387 642 m 591 421 q 675 457 643 426 q 707 533 707 488 q 675 606 707 576 q 591 642 644 636 l 591 421 z "},"ቄ":{"ha":979,"x_min":74,"x_max":905,"o":"m 591 359 l 653 359 q 824 314 765 359 q 884 183 884 269 q 812 48 884 96 q 614 0 741 0 l 387 0 l 387 395 q 157 470 239 403 q 74 650 74 538 q 111 771 74 718 q 218 857 148 825 q 387 893 289 889 l 387 991 l 591 991 l 591 893 q 760 857 689 889 q 868 772 831 825 q 905 650 905 718 q 869 522 905 578 q 762 433 832 467 q 591 395 692 400 l 591 359 m 591 533 q 675 570 644 538 q 707 646 707 601 q 675 719 707 688 q 591 754 644 749 l 591 533 m 387 754 q 303 719 335 749 q 272 646 272 689 q 303 570 272 601 q 387 533 335 539 l 387 754 m 591 248 l 591 113 q 676 131 648 114 q 704 186 704 149 q 681 234 704 220 q 610 248 659 248 l 591 248 z "},"ቅ":{"ha":979,"x_min":74,"x_max":905,"o":"m 591 781 q 760 745 689 777 q 868 660 830 713 q 905 538 905 606 q 868 410 905 465 q 762 321 831 354 q 591 282 692 288 l 591 0 l 387 0 l 387 282 q 217 320 286 288 q 111 409 147 353 q 74 538 74 465 q 112 660 74 606 q 220 746 149 714 q 387 781 291 777 l 387 928 l 157 928 l 109 1166 l 142 1166 q 236 1142 195 1166 q 300 1069 277 1117 l 591 1069 l 591 781 m 591 421 q 675 457 643 426 q 707 533 707 488 q 675 606 707 576 q 591 642 644 636 l 591 421 m 387 642 q 303 606 335 636 q 272 533 272 576 q 304 456 272 488 q 387 421 337 425 l 387 642 z "},"ቆ":{"ha":979,"x_min":74,"x_max":905,"o":"m 591 275 q 675 311 643 280 q 707 387 707 342 q 675 460 707 430 q 591 496 644 490 l 591 275 m 387 496 q 303 460 335 490 q 272 387 272 431 q 304 311 272 342 q 387 275 337 279 l 387 496 m 387 136 q 217 175 286 142 q 111 263 147 208 q 74 392 74 319 q 112 514 74 460 q 220 600 149 568 q 387 635 291 631 l 387 639 q 400 688 387 663 q 283 755 330 699 q 236 880 236 810 q 301 1021 236 973 q 492 1069 366 1069 q 680 1023 613 1069 q 746 889 746 976 q 715 779 746 830 q 624 694 684 727 q 599 672 607 686 q 591 644 591 657 l 591 635 q 760 599 689 631 q 868 514 830 568 q 905 392 905 460 q 868 264 905 319 q 762 175 831 208 q 591 136 692 142 l 591 0 l 387 0 l 387 136 m 492 957 q 435 937 456 957 q 414 885 414 918 q 433 821 414 847 q 496 777 453 795 q 568 885 568 814 q 547 937 568 916 q 492 957 526 957 z "},"ቈ":{"ha":1214,"x_min":74,"x_max":1165,"o":"m 656 178 l 656 192 l 657 205 l 591 205 l 591 0 l 387 0 l 387 395 q 157 470 239 403 q 74 650 74 538 q 111 771 74 718 q 218 857 148 825 q 387 893 289 889 l 387 991 l 591 991 l 591 893 q 760 857 689 889 q 868 772 831 825 q 905 650 905 718 q 869 522 905 578 q 762 433 832 467 q 591 395 692 400 l 591 334 l 737 334 q 911 371 802 371 q 1100 321 1034 371 q 1165 178 1165 272 q 1098 26 1165 82 q 911 -29 1030 -29 q 725 26 793 -29 q 656 178 656 82 m 911 260 q 854 238 875 260 q 833 178 833 217 q 854 109 833 135 q 911 82 875 82 q 967 109 947 82 q 987 178 987 136 q 967 238 987 216 q 911 260 947 260 m 591 533 q 675 570 644 538 q 707 646 707 601 q 675 719 707 688 q 591 754 644 749 l 591 533 m 387 754 q 303 719 335 749 q 272 646 272 689 q 303 570 272 601 q 387 533 335 539 l 387 754 z "},"ቊ":{"ha":1369,"x_min":74,"x_max":1321,"o":"m 591 0 l 387 0 l 387 282 q 217 320 286 288 q 111 409 147 353 q 74 538 74 465 q 112 660 74 606 q 220 746 149 714 q 387 781 291 777 l 387 991 l 591 991 l 591 781 q 785 732 707 774 q 892 612 863 689 l 932 612 l 932 721 l 1129 721 l 1129 503 l 1272 503 l 1321 236 l 1287 236 q 1185 266 1227 236 q 1129 347 1143 296 l 932 347 l 932 457 l 892 457 q 784 332 861 376 q 591 282 706 288 l 591 0 m 591 421 q 675 457 643 426 q 707 533 707 488 q 675 606 707 576 q 591 642 644 636 l 591 421 m 387 642 q 303 606 335 636 q 272 533 272 576 q 304 456 272 488 q 387 421 337 425 l 387 642 z "},"ቋ":{"ha":979,"x_min":74,"x_max":905,"o":"m 387 292 l 387 375 q 156 446 237 383 q 74 616 74 508 q 157 779 74 718 q 387 846 239 840 l 387 991 l 591 991 l 591 846 q 822 779 739 840 q 905 616 905 718 q 823 446 905 509 q 591 375 740 382 l 591 292 l 838 292 l 838 0 l 640 0 l 640 153 l 325 153 q 268 83 311 110 q 167 56 225 56 l 134 56 l 182 292 l 387 292 m 591 514 q 676 545 645 519 q 707 612 707 571 q 677 676 707 651 q 591 707 647 701 l 591 514 m 387 707 q 302 676 332 701 q 272 612 272 651 q 303 545 272 571 q 387 514 335 519 l 387 707 z "},"ቌ":{"ha":979,"x_min":74,"x_max":905,"o":"m 387 139 l 387 422 q 157 498 239 431 q 74 677 74 566 q 111 800 74 745 q 219 885 149 854 q 387 921 289 916 l 387 1055 l 591 1055 l 591 921 q 822 848 739 913 q 905 677 905 783 q 869 550 905 606 q 762 461 832 494 q 591 422 692 428 l 591 359 l 653 359 q 824 314 765 359 q 884 183 884 269 q 812 48 884 96 q 614 0 741 0 l 325 0 q 268 -70 311 -43 q 167 -97 225 -97 l 134 -97 l 182 139 l 387 139 m 591 561 q 675 597 644 566 q 707 673 707 629 q 675 746 707 716 q 591 782 644 777 l 591 561 m 387 782 q 303 747 335 777 q 272 673 272 717 q 303 598 272 629 q 387 561 335 567 l 387 782 m 591 248 l 591 113 q 676 131 648 114 q 704 186 704 149 q 681 234 704 220 q 610 248 659 248 l 591 248 z "},"ቍ":{"ha":1369,"x_min":74,"x_max":1321,"o":"m 591 0 l 387 0 l 387 282 q 217 320 286 288 q 111 409 147 353 q 74 538 74 465 q 112 660 74 606 q 220 746 149 714 q 387 781 291 777 l 387 991 l 591 991 l 591 781 q 785 732 707 774 q 892 612 863 689 l 932 612 l 932 807 l 1129 807 l 1129 612 l 1272 612 l 1321 346 l 1287 346 q 1185 376 1227 346 q 1129 457 1143 406 l 892 457 q 784 332 861 376 q 591 282 706 288 l 591 0 m 591 421 q 675 457 643 426 q 707 533 707 488 q 675 606 707 576 q 591 642 644 636 l 591 421 m 387 642 q 303 606 335 636 q 272 533 272 576 q 304 456 272 488 q 387 421 337 425 l 387 642 z "},"ቐ":{"ha":979,"x_min":74,"x_max":905,"o":"m 167 1171 q 257 1140 214 1171 q 314 1069 300 1109 l 665 1069 q 721 1139 677 1108 q 812 1171 765 1171 l 846 1171 l 808 1011 l 846 851 l 812 851 q 721 882 764 851 q 665 953 678 913 l 591 953 l 591 781 q 760 745 689 777 q 868 660 830 713 q 905 538 905 606 q 868 410 905 465 q 762 321 831 354 q 591 282 692 288 l 591 0 l 387 0 l 387 282 q 217 320 286 288 q 111 409 147 353 q 74 538 74 465 q 112 660 74 606 q 220 746 149 714 q 387 781 291 777 l 387 953 l 314 953 q 256 881 299 911 q 167 851 214 851 l 134 851 l 171 1011 l 134 1171 l 167 1171 m 591 421 q 675 457 643 426 q 707 533 707 488 q 675 606 707 576 q 591 642 644 636 l 591 421 m 387 642 q 303 606 335 636 q 272 533 272 576 q 304 456 272 488 q 387 421 337 425 l 387 642 z "},"ቑ":{"ha":979,"x_min":74,"x_max":905,"o":"m 591 273 l 825 273 l 868 35 l 835 35 q 732 65 774 35 q 676 146 690 95 l 591 146 l 591 0 l 387 0 l 387 351 q 157 422 239 359 q 74 593 74 484 q 156 755 74 695 q 387 822 239 816 l 387 953 l 314 953 q 256 881 299 911 q 167 851 214 851 l 134 851 l 171 1011 l 134 1171 l 167 1171 q 257 1140 214 1171 q 314 1069 300 1109 l 665 1069 q 721 1139 677 1108 q 812 1171 765 1171 l 846 1171 l 808 1011 l 846 851 l 812 851 q 721 882 764 851 q 665 953 678 913 l 591 953 l 591 822 q 823 756 740 816 q 905 593 905 696 q 823 422 905 486 q 591 351 741 359 l 591 273 m 591 490 q 676 521 645 495 q 707 589 707 547 q 676 653 707 627 q 591 684 646 678 l 591 490 m 387 684 q 302 653 333 678 q 272 589 272 627 q 303 521 272 547 q 387 490 335 495 l 387 684 z "},"ቒ":{"ha":979,"x_min":74,"x_max":905,"o":"m 167 1171 q 257 1140 214 1171 q 314 1069 300 1109 l 665 1069 q 721 1139 677 1108 q 812 1171 765 1171 l 846 1171 l 808 1011 l 846 851 l 812 851 q 721 882 764 851 q 665 953 678 913 l 591 953 l 591 781 q 822 714 739 774 q 905 551 905 653 q 823 380 905 444 q 591 310 740 317 l 591 127 l 665 127 q 720 190 677 163 q 812 216 763 216 l 846 216 l 808 64 l 846 -89 l 812 -89 q 719 -62 762 -89 q 665 0 677 -36 l 387 0 l 387 310 q 156 380 237 318 q 74 551 74 443 q 157 714 74 653 q 387 781 239 774 l 387 953 l 314 953 q 256 881 299 911 q 167 851 214 851 l 134 851 l 171 1011 l 134 1171 l 167 1171 m 591 449 q 676 480 646 454 q 707 547 707 506 q 677 611 707 586 q 591 642 647 636 l 591 449 m 387 642 q 302 611 332 635 q 272 547 272 586 q 302 480 272 506 q 387 449 333 454 l 387 642 z "},"ቓ":{"ha":979,"x_min":53,"x_max":905,"o":"m 591 268 q 555 126 591 186 q 449 33 519 66 q 278 0 378 0 l 244 0 q 188 -82 230 -52 q 86 -111 145 -111 l 53 -111 l 102 155 l 229 155 q 350 183 313 155 q 387 277 387 210 l 387 282 q 217 320 286 288 q 111 409 147 353 q 74 538 74 465 q 112 660 74 606 q 220 746 149 714 q 387 781 291 777 l 387 953 l 314 953 q 256 881 299 911 q 167 851 214 851 l 134 851 l 171 1011 l 134 1171 l 167 1171 q 257 1140 214 1171 q 314 1069 300 1109 l 665 1069 q 721 1139 677 1108 q 812 1171 765 1171 l 846 1171 l 808 1011 l 846 851 l 812 851 q 721 882 764 851 q 665 953 678 913 l 591 953 l 591 781 q 760 745 689 777 q 868 660 830 713 q 905 538 905 606 q 868 410 905 465 q 762 321 831 354 q 591 282 692 288 l 591 268 m 591 421 q 675 457 643 426 q 707 533 707 488 q 675 606 707 576 q 591 642 644 636 l 591 421 m 387 642 q 303 606 335 636 q 272 533 272 576 q 304 456 272 488 q 387 421 337 425 l 387 642 z "},"ቔ":{"ha":979,"x_min":74,"x_max":905,"o":"m 167 1198 q 257 1168 214 1198 q 314 1097 300 1137 l 665 1097 q 721 1167 677 1136 q 812 1198 765 1198 l 846 1198 l 808 1039 l 846 879 l 812 879 q 720 910 764 879 q 665 981 677 942 l 591 981 l 591 865 q 823 804 741 859 q 905 657 905 749 q 823 500 905 558 q 591 436 741 443 l 591 359 l 653 359 q 824 314 765 359 q 884 183 884 269 q 812 48 884 96 q 614 0 741 0 l 387 0 l 387 436 q 155 500 237 443 q 74 657 74 557 q 155 804 74 749 q 387 865 237 859 l 387 981 l 314 981 q 257 910 300 941 q 167 879 214 879 l 134 879 l 171 1039 l 134 1198 l 167 1198 m 591 554 q 676 585 645 559 q 707 653 707 611 q 677 717 707 692 q 591 747 647 742 l 591 554 m 387 747 q 302 716 332 741 q 272 653 272 692 q 303 585 272 611 q 387 554 335 559 l 387 747 m 591 248 l 591 113 q 676 131 648 114 q 704 186 704 149 q 681 234 704 220 q 610 248 659 248 l 591 248 z "},"ቕ":{"ha":1080,"x_min":49,"x_max":1007,"o":"m 693 0 l 489 0 l 489 132 q 318 171 388 138 q 212 259 248 203 q 175 387 175 315 q 212 509 175 455 q 319 595 250 564 q 489 631 389 626 l 489 667 q 307 914 307 720 l 307 953 l 229 953 q 172 881 214 911 q 82 851 129 851 l 49 851 l 86 1011 l 49 1171 l 82 1171 q 172 1140 129 1171 q 229 1069 215 1109 l 581 1069 q 638 1140 595 1109 q 728 1171 681 1171 l 761 1171 l 724 1011 l 761 851 l 728 851 q 638 881 681 851 q 581 953 596 911 l 504 953 l 504 922 q 537 816 504 847 q 633 785 570 785 l 693 785 l 693 631 q 924 558 841 623 q 1007 387 1007 492 q 970 260 1007 315 q 864 171 934 204 q 693 132 794 138 l 693 0 m 693 271 q 777 307 746 276 q 808 383 808 338 q 777 456 808 426 q 693 492 746 486 l 693 271 m 489 492 q 405 456 437 486 q 374 383 374 427 q 405 308 374 338 q 489 271 436 277 l 489 492 z "},"ቖ":{"ha":979,"x_min":62,"x_max":920,"o":"m 591 654 q 759 616 688 649 q 867 530 829 584 q 905 411 905 477 q 869 284 905 339 q 763 195 833 229 q 591 155 693 161 l 591 0 l 387 0 l 387 155 q 157 231 240 163 q 74 411 74 299 q 112 529 74 475 q 221 615 150 582 q 387 653 293 648 q 400 697 387 675 q 328 727 363 703 q 271 786 292 751 q 250 864 250 822 q 294 981 250 935 l 243 981 q 186 909 229 939 q 96 879 143 879 l 62 879 l 100 1039 l 62 1198 l 96 1198 q 185 1169 142 1198 q 243 1097 227 1139 l 739 1097 q 795 1167 751 1136 q 886 1198 839 1198 l 920 1198 l 882 1039 l 920 879 l 886 879 q 794 910 838 879 q 739 981 751 942 l 693 981 q 732 869 732 938 q 704 777 732 821 q 624 704 675 732 q 599 681 607 696 q 591 654 591 667 m 492 968 q 435 947 456 968 q 414 892 414 926 q 433 824 414 852 q 496 777 453 796 q 568 892 568 816 q 547 946 568 924 q 492 968 526 968 m 591 294 q 675 331 644 299 q 707 407 707 362 q 675 479 707 449 q 591 515 644 510 l 591 294 m 387 515 q 303 479 334 510 q 272 407 272 449 q 304 330 272 362 q 387 294 336 298 l 387 515 z "},"ቘ":{"ha":1214,"x_min":74,"x_max":1165,"o":"m 167 1171 q 257 1140 214 1171 q 314 1069 300 1109 l 665 1069 q 721 1139 677 1108 q 812 1171 765 1171 l 846 1171 l 808 1011 l 846 851 l 812 851 q 721 882 764 851 q 665 953 678 913 l 591 953 l 591 835 q 760 804 690 831 q 868 730 830 777 q 905 624 905 684 q 869 512 905 561 q 762 434 832 463 q 591 400 692 405 l 591 297 l 693 297 q 911 371 756 371 q 1100 321 1034 371 q 1165 178 1165 272 q 1098 26 1165 82 q 911 -29 1030 -29 q 725 26 793 -29 q 656 178 656 82 l 656 180 l 591 180 l 591 0 l 387 0 l 387 400 q 216 434 286 405 q 110 511 146 463 q 74 624 74 560 q 111 730 74 683 q 218 804 149 777 q 387 835 288 831 l 387 953 l 314 953 q 256 881 299 911 q 167 851 214 851 l 134 851 l 171 1011 l 134 1171 l 167 1171 m 911 260 q 854 238 875 260 q 833 178 833 217 q 854 109 833 135 q 911 82 875 82 q 967 109 947 82 q 987 178 987 136 q 967 238 987 216 q 911 260 947 260 m 591 518 q 675 551 644 523 q 707 619 707 579 q 675 685 707 658 q 591 717 644 713 l 591 518 m 387 717 q 303 685 335 713 q 272 619 272 657 q 303 551 272 579 q 387 518 334 523 l 387 717 z "},"ቚ":{"ha":1369,"x_min":74,"x_max":1321,"o":"m 932 457 l 892 457 q 784 332 861 376 q 591 282 706 288 l 591 0 l 387 0 l 387 282 q 217 320 286 288 q 111 409 147 353 q 74 538 74 465 q 112 660 74 606 q 220 746 149 714 q 387 781 291 777 l 387 953 l 314 953 q 256 881 299 911 q 167 851 214 851 l 134 851 l 171 1011 l 134 1171 l 167 1171 q 257 1140 214 1171 q 314 1069 300 1109 l 665 1069 q 721 1139 677 1108 q 812 1171 765 1171 l 846 1171 l 808 1011 l 846 851 l 812 851 q 721 882 764 851 q 665 953 678 913 l 591 953 l 591 781 q 785 732 707 774 q 892 612 863 689 l 932 612 l 932 721 l 1129 721 l 1129 503 l 1272 503 l 1321 236 l 1287 236 q 1185 266 1227 236 q 1129 347 1143 296 l 932 347 l 932 457 m 591 421 q 675 457 643 426 q 707 533 707 488 q 675 606 707 576 q 591 642 644 636 l 591 421 m 387 642 q 303 606 335 636 q 272 533 272 576 q 304 456 272 488 q 387 421 337 425 l 387 642 z "},"ቛ":{"ha":979,"x_min":74,"x_max":905,"o":"m 167 1171 q 257 1140 214 1171 q 314 1069 300 1109 l 665 1069 q 721 1139 677 1108 q 812 1171 765 1171 l 846 1171 l 808 1011 l 846 851 l 812 851 q 721 882 764 851 q 665 953 678 913 l 591 953 l 591 846 q 822 779 739 840 q 905 616 905 718 q 823 446 905 509 q 591 375 740 382 l 591 292 l 838 292 l 838 0 l 640 0 l 640 153 l 325 153 q 268 83 311 110 q 167 56 225 56 l 134 56 l 182 292 l 387 292 l 387 375 q 156 446 237 383 q 74 616 74 508 q 157 779 74 718 q 387 846 239 840 l 387 953 l 314 953 q 256 881 299 911 q 167 851 214 851 l 134 851 l 171 1011 l 134 1171 l 167 1171 m 591 514 q 676 545 645 519 q 707 612 707 571 q 677 676 707 651 q 591 707 647 701 l 591 514 m 387 707 q 302 676 332 701 q 272 612 272 651 q 303 545 272 571 q 387 514 335 519 l 387 707 z "},"ቜ":{"ha":979,"x_min":74,"x_max":905,"o":"m 387 436 q 155 500 237 443 q 74 657 74 557 q 155 804 74 749 q 387 865 237 859 l 387 981 l 314 981 q 257 910 300 941 q 167 879 214 879 l 134 879 l 171 1039 l 134 1198 l 167 1198 q 257 1168 214 1198 q 314 1097 300 1137 l 665 1097 q 721 1167 677 1136 q 812 1198 765 1198 l 846 1198 l 808 1039 l 846 879 l 812 879 q 720 910 764 879 q 665 981 677 942 l 591 981 l 591 865 q 823 804 741 859 q 905 657 905 749 q 823 500 905 558 q 591 436 741 443 l 591 359 l 653 359 q 824 314 765 359 q 884 183 884 269 q 812 48 884 96 q 614 0 741 0 l 325 0 q 268 -70 311 -43 q 167 -97 225 -97 l 134 -97 l 182 125 l 387 125 l 387 436 m 591 554 q 676 585 645 559 q 707 653 707 611 q 677 717 707 692 q 591 747 647 742 l 591 554 m 387 747 q 302 716 332 741 q 272 653 272 692 q 303 585 272 611 q 387 554 335 559 l 387 747 m 591 248 l 591 113 q 676 131 648 114 q 704 186 704 149 q 681 234 704 220 q 610 248 659 248 l 591 248 z "},"ቝ":{"ha":1369,"x_min":74,"x_max":1321,"o":"m 167 1198 q 257 1168 214 1198 q 314 1097 300 1137 l 665 1097 q 721 1167 677 1136 q 812 1198 765 1198 l 846 1198 l 808 1039 l 846 879 l 812 879 q 720 910 764 879 q 665 981 677 942 l 591 981 l 591 781 q 785 732 707 774 q 892 612 863 689 l 932 612 l 932 807 l 1129 807 l 1129 612 l 1272 612 l 1321 346 l 1287 346 q 1185 376 1227 346 q 1129 457 1143 406 l 892 457 q 784 332 861 376 q 591 282 706 288 l 591 0 l 387 0 l 387 282 q 217 320 286 288 q 111 409 147 353 q 74 538 74 465 q 112 660 74 606 q 220 746 149 714 q 387 781 291 777 l 387 981 l 314 981 q 257 910 300 941 q 167 879 214 879 l 134 879 l 171 1039 l 134 1198 l 167 1198 m 591 421 q 675 457 643 426 q 707 533 707 488 q 675 606 707 576 q 591 642 644 636 l 591 421 m 387 642 q 303 606 335 636 q 272 533 272 576 q 304 456 272 488 q 387 421 337 425 l 387 642 z "},"በ":{"ha":873,"x_min":115,"x_max":758,"o":"m 115 0 l 115 640 q 199 912 115 818 q 440 1006 283 1006 q 677 911 596 1006 q 758 637 758 816 l 758 0 l 553 0 l 553 644 q 524 789 553 743 q 435 835 495 835 q 349 789 377 835 q 321 643 321 743 l 321 0 l 115 0 z "},"ቡ":{"ha":1083,"x_min":115,"x_max":1035,"o":"m 758 514 l 986 514 l 1035 248 l 1002 248 q 899 277 941 248 q 843 358 857 307 l 758 358 l 758 0 l 553 0 l 553 644 q 524 789 553 743 q 435 835 495 835 q 349 789 377 835 q 321 643 321 743 l 321 0 l 115 0 l 115 640 q 199 912 115 818 q 440 1006 283 1006 q 677 911 596 1006 q 758 637 758 816 l 758 514 z "},"ቢ":{"ha":1068,"x_min":115,"x_max":1019,"o":"m 115 0 l 115 640 q 199 912 115 818 q 440 1006 283 1006 q 677 911 596 1006 q 758 637 758 816 l 758 155 l 839 155 q 893 218 850 191 q 986 244 937 244 l 1019 244 l 982 78 l 1019 -89 l 986 -89 q 893 -62 935 -89 q 839 0 850 -36 l 553 0 l 553 644 q 524 789 553 743 q 435 835 495 835 q 349 789 377 835 q 321 643 321 743 l 321 0 l 115 0 z "},"ባ":{"ha":860,"x_min":102,"x_max":745,"o":"m 102 329 l 102 640 q 186 912 102 818 q 427 1006 270 1006 q 664 911 583 1006 q 745 637 745 816 l 745 0 l 539 0 l 539 644 q 510 789 539 743 q 421 835 481 835 q 336 790 364 835 q 307 643 307 745 l 307 329 l 102 329 z "},"ቤ":{"ha":1178,"x_min":115,"x_max":1118,"o":"m 115 0 l 115 640 q 199 912 115 818 q 440 1006 283 1006 q 677 911 596 1006 q 758 637 758 816 l 758 436 l 847 436 q 1049 382 979 436 q 1118 228 1118 328 q 1036 61 1118 122 q 810 0 953 0 l 553 0 l 553 644 q 524 789 553 743 q 435 835 495 835 q 349 789 377 835 q 321 643 321 743 l 321 0 l 115 0 m 758 298 l 758 138 l 772 138 q 880 158 844 138 q 916 227 916 179 q 887 283 916 267 q 804 298 858 298 l 758 298 z "},"ብ":{"ha":1083,"x_min":49,"x_max":968,"o":"m 325 521 l 325 640 q 409 912 325 818 q 650 1006 493 1006 q 887 911 806 1006 q 968 637 968 816 l 968 0 l 762 0 l 762 644 q 733 789 762 743 q 644 835 705 835 q 558 789 587 835 q 530 643 530 743 l 530 0 l 325 0 l 325 366 l 240 366 q 185 284 227 314 q 82 254 143 254 l 49 254 l 97 521 l 325 521 z "},"ቦ":{"ha":860,"x_min":115,"x_max":758,"o":"m 115 0 l 115 640 q 199 912 115 818 q 440 1006 283 1006 q 677 911 596 1006 q 758 637 758 816 l 758 329 l 553 329 l 553 644 q 524 789 553 743 q 435 835 495 835 q 349 789 377 835 q 321 643 321 743 l 321 0 l 115 0 z "},"ቧ":{"ha":993,"x_min":66,"x_max":945,"o":"m 539 155 l 539 644 q 510 789 539 743 q 421 835 481 835 q 336 790 364 835 q 307 643 307 745 l 307 330 l 102 330 l 102 640 q 186 912 102 818 q 427 1006 270 1006 q 664 911 583 1006 q 745 637 745 816 l 745 155 l 896 155 l 945 -111 l 911 -111 q 808 -81 850 -111 q 753 0 766 -51 l 258 0 q 202 -81 245 -51 q 100 -111 160 -111 l 66 -111 l 115 155 l 539 155 z "},"ቨ":{"ha":873,"x_min":78,"x_max":796,"o":"m 115 0 l 115 471 q 199 742 115 648 q 440 836 283 836 q 677 741 596 836 q 758 468 758 646 l 758 0 l 553 0 l 553 475 q 524 620 553 574 q 435 665 495 665 q 349 619 377 665 q 321 473 321 573 l 321 0 l 115 0 m 111 1171 q 201 1140 158 1171 q 258 1069 244 1109 l 615 1069 q 673 1140 630 1109 q 762 1171 715 1171 l 796 1171 l 758 1000 l 796 829 l 762 829 q 672 860 715 829 q 615 930 629 890 l 258 930 q 201 860 243 890 q 111 829 158 829 l 78 829 l 115 1000 l 78 1171 l 111 1171 z "},"ቩ":{"ha":1083,"x_min":78,"x_max":1035,"o":"m 758 449 l 986 449 l 1035 182 l 1002 182 q 899 212 941 182 q 843 293 857 242 l 758 293 l 758 0 l 553 0 l 553 475 q 524 620 553 574 q 435 665 495 665 q 349 619 377 665 q 321 473 321 573 l 321 0 l 115 0 l 115 471 q 199 742 115 648 q 440 836 283 836 q 677 741 596 836 q 758 468 758 646 l 758 449 m 111 1171 q 201 1140 158 1171 q 258 1069 244 1109 l 615 1069 q 673 1140 630 1109 q 762 1171 715 1171 l 796 1171 l 758 1000 l 796 829 l 762 829 q 672 860 715 829 q 615 930 629 890 l 258 930 q 201 860 243 890 q 111 829 158 829 l 78 829 l 115 1000 l 78 1171 l 111 1171 z "},"ቪ":{"ha":1068,"x_min":78,"x_max":1019,"o":"m 115 0 l 115 471 q 199 742 115 648 q 440 836 283 836 q 677 741 596 836 q 758 468 758 646 l 758 155 l 839 155 q 893 218 850 191 q 986 244 937 244 l 1019 244 l 982 78 l 1019 -89 l 986 -89 q 893 -62 935 -89 q 839 0 850 -36 l 553 0 l 553 475 q 524 620 553 574 q 435 665 495 665 q 349 619 377 665 q 321 473 321 573 l 321 0 l 115 0 m 111 1171 q 201 1140 158 1171 q 258 1069 244 1109 l 615 1069 q 673 1140 630 1109 q 762 1171 715 1171 l 796 1171 l 758 1000 l 796 829 l 762 829 q 672 860 715 829 q 615 930 629 890 l 258 930 q 201 860 243 890 q 111 829 158 829 l 78 829 l 115 1000 l 78 1171 l 111 1171 z "},"ቫ":{"ha":860,"x_min":64,"x_max":782,"o":"m 102 329 l 102 471 q 186 742 102 648 q 427 836 270 836 q 664 741 583 836 q 745 468 745 646 l 745 0 l 539 0 l 539 475 q 510 620 539 574 q 421 665 481 665 q 336 620 364 665 q 307 473 307 575 l 307 329 l 102 329 m 97 1171 q 186 1141 144 1171 q 244 1069 229 1112 l 602 1069 q 657 1139 614 1108 q 749 1171 701 1171 l 782 1171 l 745 1000 l 782 829 l 749 829 q 686 844 716 829 q 632 882 655 859 q 602 930 610 906 l 244 930 q 186 859 229 889 q 97 829 144 829 l 64 829 l 102 1000 l 64 1171 l 97 1171 z "},"ቬ":{"ha":1178,"x_min":78,"x_max":1118,"o":"m 553 475 q 524 620 553 574 q 435 665 495 665 q 349 619 377 665 q 321 473 321 573 l 321 0 l 115 0 l 115 471 q 199 742 115 648 q 440 836 283 836 q 677 741 596 836 q 758 468 758 646 l 758 436 l 847 436 q 1049 382 979 436 q 1118 228 1118 328 q 1036 61 1118 122 q 810 0 953 0 l 553 0 l 553 475 m 111 1171 q 201 1140 158 1171 q 258 1069 244 1109 l 615 1069 q 673 1140 630 1109 q 762 1171 715 1171 l 796 1171 l 758 1000 l 796 829 l 762 829 q 672 860 715 829 q 615 930 629 890 l 258 930 q 201 860 243 890 q 111 829 158 829 l 78 829 l 115 1000 l 78 1171 l 111 1171 m 758 298 l 758 138 l 772 138 q 880 158 844 138 q 916 227 916 179 q 887 283 916 267 q 804 298 858 298 l 758 298 z "},"ቭ":{"ha":1083,"x_min":49,"x_max":1006,"o":"m 325 0 l 325 293 l 240 293 q 185 212 227 242 q 82 182 143 182 l 49 182 l 97 449 l 325 449 l 325 471 q 409 742 325 648 q 650 836 493 836 q 887 741 806 836 q 968 468 968 646 l 968 0 l 762 0 l 762 475 q 733 620 762 574 q 644 665 705 665 q 558 619 587 665 q 530 473 530 573 l 530 0 l 325 0 m 321 1171 q 410 1141 368 1171 q 468 1069 452 1112 l 825 1069 q 881 1139 838 1108 q 972 1171 925 1171 l 1006 1171 l 968 1000 l 1006 829 l 972 829 q 909 844 940 829 q 856 882 879 859 q 825 930 833 906 l 468 930 q 410 859 453 889 q 321 829 368 829 l 288 829 l 325 1000 l 288 1171 l 321 1171 z "},"ቮ":{"ha":860,"x_min":78,"x_max":796,"o":"m 115 0 l 115 471 q 199 742 115 648 q 440 836 283 836 q 677 741 596 836 q 758 468 758 646 l 758 329 l 553 329 l 553 475 q 524 620 553 574 q 435 665 495 665 q 349 619 377 665 q 321 473 321 573 l 321 0 l 115 0 m 111 1171 q 201 1140 158 1171 q 258 1069 244 1109 l 615 1069 q 673 1140 630 1109 q 762 1171 715 1171 l 796 1171 l 758 1000 l 796 829 l 762 829 q 672 860 715 829 q 615 930 629 890 l 258 930 q 201 860 243 890 q 111 829 158 829 l 78 829 l 115 1000 l 78 1171 l 111 1171 z "},"ቯ":{"ha":993,"x_min":64,"x_max":945,"o":"m 539 155 l 539 475 q 510 620 539 574 q 421 665 481 665 q 336 620 364 665 q 307 473 307 575 l 307 330 l 102 330 l 102 471 q 186 742 102 648 q 427 836 270 836 q 664 741 583 836 q 745 468 745 646 l 745 155 l 896 155 l 945 -111 l 911 -111 q 808 -81 850 -111 q 753 0 766 -51 l 258 0 q 202 -81 245 -51 q 100 -111 160 -111 l 66 -111 l 115 155 l 539 155 m 97 1171 q 186 1141 144 1171 q 244 1069 229 1112 l 602 1069 q 657 1139 614 1108 q 749 1171 701 1171 l 782 1171 l 745 1000 l 782 829 l 749 829 q 686 844 716 829 q 632 882 655 859 q 602 930 610 906 l 244 930 q 186 859 229 889 q 97 829 144 829 l 64 829 l 102 1000 l 64 1171 l 97 1171 z "},"ተ":{"ha":979,"x_min":62,"x_max":917,"o":"m 387 733 l 387 991 l 591 991 l 591 733 l 868 733 l 917 467 l 884 467 q 781 497 823 467 q 725 578 739 527 l 591 578 l 591 0 l 387 0 l 387 578 l 254 578 q 198 497 241 527 q 96 467 156 467 l 62 467 l 111 733 l 387 733 z "},"ቱ":{"ha":979,"x_min":62,"x_max":917,"o":"m 591 367 l 868 367 l 917 100 l 884 100 q 781 130 823 100 q 725 211 739 160 l 591 211 l 591 0 l 387 0 l 387 578 l 254 578 q 198 497 241 527 q 96 467 156 467 l 62 467 l 111 733 l 387 733 l 387 991 l 591 991 l 591 733 l 868 733 l 917 467 l 884 467 q 781 497 823 467 q 725 578 739 527 l 591 578 l 591 367 z "},"ቲ":{"ha":979,"x_min":62,"x_max":917,"o":"m 387 733 l 387 991 l 591 991 l 591 733 l 868 733 l 917 467 l 884 467 q 781 497 823 467 q 725 578 739 527 l 591 578 l 591 155 l 736 155 q 792 218 749 193 q 884 244 835 244 l 917 244 l 879 78 l 917 -89 l 884 -89 q 792 -63 834 -89 q 736 0 749 -37 l 387 0 l 387 578 l 254 578 q 198 497 241 527 q 96 467 156 467 l 62 467 l 111 733 l 387 733 z "},"ታ":{"ha":979,"x_min":62,"x_max":917,"o":"m 387 733 l 387 991 l 591 991 l 591 733 l 868 733 l 917 467 l 884 467 q 781 497 823 467 q 725 578 739 527 l 591 578 l 591 315 q 528 79 591 158 q 342 0 465 0 l 254 0 q 197 -82 239 -52 q 96 -111 155 -111 l 62 -111 l 111 155 l 268 155 q 359 183 332 155 q 387 277 387 210 l 387 578 l 254 578 q 198 497 241 527 q 96 467 156 467 l 62 467 l 111 733 l 387 733 z "},"ቴ":{"ha":1011,"x_min":62,"x_max":951,"o":"m 387 764 l 387 991 l 591 991 l 591 764 l 868 764 l 917 497 l 884 497 q 781 527 823 497 q 725 608 739 557 l 591 608 l 591 436 l 681 436 q 882 382 813 436 q 951 228 951 328 q 869 61 951 122 q 643 0 786 0 l 387 0 l 387 608 l 254 608 q 198 527 241 557 q 96 497 156 497 l 62 497 l 111 764 l 387 764 m 591 298 l 591 138 l 606 138 q 713 158 677 138 q 749 227 749 179 q 720 283 749 267 q 637 298 691 298 l 591 298 z "},"ት":{"ha":979,"x_min":62,"x_max":917,"o":"m 403 1118 l 403 1026 q 437 921 403 954 q 546 889 471 889 l 591 889 l 591 733 l 868 733 l 917 467 l 884 467 q 781 497 823 467 q 725 578 739 527 l 591 578 l 591 0 l 387 0 l 387 578 l 254 578 q 198 497 241 527 q 96 467 156 467 l 62 467 l 111 733 l 387 733 l 387 771 q 205 1018 205 824 l 205 1118 l 403 1118 z "},"ቶ":{"ha":979,"x_min":62,"x_max":917,"o":"m 882 368 q 780 398 821 368 q 725 479 739 428 l 591 479 l 591 0 l 387 0 l 387 479 l 254 479 q 199 399 241 429 q 97 368 157 368 l 62 368 l 111 635 l 387 635 l 387 639 q 400 688 387 663 q 283 755 330 699 q 236 880 236 810 q 301 1021 236 973 q 492 1069 366 1069 q 680 1023 613 1069 q 746 889 746 976 q 715 779 746 830 q 624 694 684 727 q 599 672 607 686 q 591 644 591 657 l 591 635 l 868 635 l 917 368 l 882 368 m 492 957 q 435 937 456 957 q 414 885 414 918 q 433 821 414 847 q 496 777 453 795 q 568 885 568 814 q 547 937 568 916 q 492 957 526 957 z "},"ቷ":{"ha":979,"x_min":62,"x_max":917,"o":"m 387 733 l 387 991 l 591 991 l 591 733 l 868 733 l 917 467 l 884 467 q 781 497 823 467 q 725 578 739 527 l 591 578 l 591 155 l 868 155 l 917 -111 l 884 -111 q 781 -81 823 -111 q 725 0 739 -51 l 254 0 q 198 -81 241 -51 q 96 -111 156 -111 l 62 -111 l 111 155 l 387 155 l 387 578 l 254 578 q 198 497 241 527 q 96 467 156 467 l 62 467 l 111 733 l 387 733 z "},"ቸ":{"ha":979,"x_min":62,"x_max":917,"o":"m 96 1171 q 185 1141 142 1171 q 243 1069 227 1112 l 736 1069 q 793 1140 751 1109 q 884 1171 836 1171 l 917 1171 l 879 1000 l 917 829 l 884 829 q 793 860 836 829 q 736 930 751 890 l 591 930 l 591 733 l 868 733 l 917 467 l 884 467 q 781 497 823 467 q 725 578 739 527 l 591 578 l 591 0 l 387 0 l 387 578 l 254 578 q 198 497 241 527 q 96 467 156 467 l 62 467 l 111 733 l 387 733 l 387 930 l 243 930 q 185 859 228 889 q 96 829 142 829 l 62 829 l 100 1000 l 62 1171 l 96 1171 z "},"ቹ":{"ha":979,"x_min":62,"x_max":917,"o":"m 591 367 l 868 367 l 917 100 l 884 100 q 781 130 823 100 q 725 211 739 160 l 591 211 l 591 0 l 387 0 l 387 578 l 254 578 q 198 497 241 527 q 96 467 156 467 l 62 467 l 111 733 l 387 733 l 387 930 l 243 930 q 185 859 228 889 q 96 829 142 829 l 62 829 l 100 1000 l 62 1171 l 96 1171 q 185 1141 142 1171 q 243 1069 227 1112 l 736 1069 q 793 1140 751 1109 q 884 1171 836 1171 l 917 1171 l 879 1000 l 917 829 l 884 829 q 793 860 836 829 q 736 930 751 890 l 591 930 l 591 733 l 868 733 l 917 467 l 884 467 q 781 497 823 467 q 725 578 739 527 l 591 578 l 591 367 z "},"ቺ":{"ha":979,"x_min":62,"x_max":917,"o":"m 96 1171 q 185 1141 142 1171 q 243 1069 227 1112 l 736 1069 q 793 1140 751 1109 q 884 1171 836 1171 l 917 1171 l 879 1000 l 917 829 l 884 829 q 793 860 836 829 q 736 930 751 890 l 591 930 l 591 733 l 868 733 l 917 467 l 884 467 q 781 497 823 467 q 725 578 739 527 l 591 578 l 591 155 l 736 155 q 792 218 749 193 q 884 244 835 244 l 917 244 l 879 78 l 917 -89 l 884 -89 q 792 -63 834 -89 q 736 0 749 -37 l 387 0 l 387 578 l 254 578 q 198 497 241 527 q 96 467 156 467 l 62 467 l 111 733 l 387 733 l 387 930 l 243 930 q 185 859 228 889 q 96 829 142 829 l 62 829 l 100 1000 l 62 1171 l 96 1171 z "},"ቻ":{"ha":979,"x_min":62,"x_max":917,"o":"m 96 1171 q 185 1141 142 1171 q 243 1069 227 1112 l 736 1069 q 793 1140 751 1109 q 884 1171 836 1171 l 917 1171 l 879 1000 l 917 829 l 884 829 q 793 860 836 829 q 736 930 751 890 l 591 930 l 591 733 l 868 733 l 917 467 l 884 467 q 781 497 823 467 q 725 578 739 527 l 591 578 l 591 315 q 528 79 591 158 q 342 0 465 0 l 254 0 q 197 -82 239 -52 q 96 -111 155 -111 l 62 -111 l 111 155 l 268 155 q 359 183 332 155 q 387 277 387 210 l 387 578 l 254 578 q 198 497 241 527 q 96 467 156 467 l 62 467 l 111 733 l 387 733 l 387 930 l 243 930 q 185 859 228 889 q 96 829 142 829 l 62 829 l 100 1000 l 62 1171 l 96 1171 z "},"ቼ":{"ha":1011,"x_min":62,"x_max":951,"o":"m 387 595 l 254 595 q 198 513 241 543 q 96 484 156 484 l 62 484 l 111 750 l 387 750 l 387 930 l 243 930 q 185 859 228 889 q 96 829 142 829 l 62 829 l 100 1000 l 62 1171 l 96 1171 q 185 1141 142 1171 q 243 1069 227 1112 l 736 1069 q 793 1140 751 1109 q 884 1171 836 1171 l 917 1171 l 879 1000 l 917 829 l 884 829 q 793 860 836 829 q 736 930 751 890 l 591 930 l 591 750 l 868 750 l 917 484 l 884 484 q 781 513 823 484 q 725 595 739 543 l 591 595 l 591 436 l 681 436 q 882 382 813 436 q 951 228 951 328 q 869 61 951 122 q 643 0 786 0 l 387 0 l 387 595 m 591 298 l 591 138 l 606 138 q 713 158 677 138 q 749 227 749 179 q 720 283 749 267 q 637 298 691 298 l 591 298 z "},"ች":{"ha":1156,"x_min":62,"x_max":1093,"o":"m 96 1171 q 185 1141 142 1171 q 243 1069 227 1112 l 736 1069 q 793 1140 751 1109 q 884 1171 836 1171 l 917 1171 l 879 1000 l 917 829 l 884 829 q 793 860 836 829 q 736 930 751 890 l 579 930 l 579 922 q 613 817 579 849 q 722 785 646 785 l 768 785 l 768 629 l 1044 629 l 1093 363 l 1060 363 q 957 393 1000 363 q 901 473 915 422 l 768 473 l 768 0 l 564 0 l 564 473 l 431 473 q 375 393 417 422 q 272 363 332 363 l 239 363 l 288 629 l 564 629 l 564 667 q 382 914 382 720 l 382 930 l 243 930 q 185 859 228 889 q 96 829 142 829 l 62 829 l 100 1000 l 62 1171 l 96 1171 z "},"ቾ":{"ha":981,"x_min":62,"x_max":918,"o":"m 692 981 q 732 860 732 933 q 702 764 732 808 q 624 694 672 720 q 591 635 591 677 l 868 635 l 917 368 l 884 368 q 781 398 823 368 q 725 479 739 428 l 591 479 l 591 0 l 387 0 l 387 479 l 254 479 q 198 398 241 428 q 96 368 156 368 l 62 368 l 111 635 l 387 635 q 400 688 387 662 q 327 717 362 693 q 271 777 292 741 q 250 854 250 812 q 294 981 250 926 l 243 981 q 186 909 229 939 q 96 879 143 879 l 62 879 l 100 1039 l 62 1198 l 96 1198 q 185 1169 142 1198 q 243 1097 227 1139 l 726 1097 q 788 1168 747 1143 q 885 1194 829 1194 l 918 1194 l 869 981 l 692 981 m 490 979 q 433 957 452 979 q 414 899 414 935 q 494 777 414 813 q 568 899 568 814 q 547 958 568 937 q 490 979 526 979 z "},"ቿ":{"ha":979,"x_min":62,"x_max":917,"o":"m 387 155 l 387 578 l 254 578 q 198 497 241 527 q 96 467 156 467 l 62 467 l 111 733 l 387 733 l 387 930 l 243 930 q 185 859 228 889 q 96 829 142 829 l 62 829 l 100 1000 l 62 1171 l 96 1171 q 185 1141 142 1171 q 243 1069 227 1112 l 736 1069 q 793 1140 751 1109 q 884 1171 836 1171 l 917 1171 l 879 1000 l 917 829 l 884 829 q 793 860 836 829 q 736 930 751 890 l 591 930 l 591 733 l 868 733 l 917 467 l 884 467 q 781 497 823 467 q 725 578 739 527 l 591 578 l 591 155 l 868 155 l 917 -111 l 884 -111 q 781 -81 823 -111 q 725 0 739 -51 l 254 0 q 198 -81 241 -51 q 96 -111 156 -111 l 62 -111 l 111 155 l 387 155 z "},"ኀ":{"ha":831,"x_min":49,"x_max":715,"o":"m 329 879 l 329 991 l 526 991 l 526 882 q 560 777 526 809 q 669 745 594 745 l 715 745 l 715 0 l 510 0 l 510 627 q 368 724 415 652 l 240 724 q 185 643 227 673 q 82 612 143 612 l 49 612 l 97 879 l 329 879 z "},"ኁ":{"ha":1039,"x_min":49,"x_max":990,"o":"m 329 879 l 329 991 l 526 991 l 526 882 q 560 777 526 809 q 669 745 594 745 l 715 745 l 715 449 l 942 449 l 990 182 l 957 182 q 854 212 896 182 q 799 293 812 242 l 715 293 l 715 0 l 510 0 l 510 627 q 368 724 415 652 l 240 724 q 185 643 227 673 q 82 612 143 612 l 49 612 l 97 879 l 329 879 z "},"ኂ":{"ha":1089,"x_min":49,"x_max":1040,"o":"m 329 879 l 329 991 l 526 991 l 526 882 q 560 777 526 809 q 669 745 594 745 l 715 745 l 715 155 l 860 155 q 915 218 871 191 q 1007 244 958 244 l 1040 244 l 1003 78 l 1040 -89 l 1007 -89 q 914 -62 956 -89 q 860 0 871 -36 l 510 0 l 510 627 q 368 724 415 652 l 240 724 q 185 643 227 673 q 82 612 143 612 l 49 612 l 97 879 l 329 879 z "},"ኃ":{"ha":831,"x_min":49,"x_max":715,"o":"m 329 879 l 329 991 l 526 991 l 526 882 q 560 777 526 809 q 669 745 594 745 l 715 745 l 715 285 q 633 68 715 137 q 363 0 551 0 l 240 0 q 185 -81 227 -51 q 82 -111 143 -111 l 49 -111 l 97 155 l 359 155 q 476 196 441 155 q 510 334 510 236 l 510 627 q 368 724 415 652 l 240 724 q 185 643 227 673 q 82 612 143 612 l 49 612 l 97 879 l 329 879 z "},"ኄ":{"ha":1133,"x_min":49,"x_max":1074,"o":"m 329 879 l 329 991 l 526 991 l 526 882 q 560 777 526 809 q 669 745 594 745 l 715 745 l 715 436 l 803 436 q 1004 382 935 436 q 1074 228 1074 328 q 991 61 1074 122 q 765 0 908 0 l 510 0 l 510 627 q 368 724 415 652 l 240 724 q 185 643 227 673 q 82 612 143 612 l 49 612 l 97 879 l 329 879 m 715 298 l 715 138 l 728 138 q 835 158 800 138 q 871 227 871 179 q 843 283 871 267 q 760 298 815 298 l 715 298 z "},"ኅ":{"ha":852,"x_min":62,"x_max":737,"o":"m 737 0 l 532 0 l 532 627 q 382 737 427 656 q 300 651 326 710 q 269 481 274 591 l 62 481 q 142 753 73 658 q 351 884 211 848 l 351 991 l 549 991 l 549 882 q 583 777 549 809 q 692 745 616 745 l 737 745 l 737 0 z "},"ኆ":{"ha":1217,"x_min":49,"x_max":1168,"o":"m 659 785 q 664 836 659 816 q 561 734 593 808 q 529 509 529 659 l 529 490 l 777 490 l 777 0 l 571 0 l 571 334 l 323 334 l 323 522 l 325 550 l 240 550 q 185 469 227 499 q 82 439 143 439 l 49 439 l 97 705 l 346 705 q 493 923 387 854 q 799 991 599 991 l 914 991 q 1100 936 1033 991 q 1168 785 1168 880 q 1102 641 1168 691 q 914 591 1037 591 q 724 640 789 591 q 659 785 659 688 m 914 703 q 970 725 950 703 q 990 790 990 747 q 914 880 990 880 q 856 857 876 880 q 836 790 836 834 q 857 726 836 749 q 914 703 877 703 z "},"ኈ":{"ha":1354,"x_min":49,"x_max":1305,"o":"m 329 879 l 329 991 l 526 991 l 526 882 q 560 777 526 809 q 669 745 594 745 l 715 745 l 715 510 l 878 510 q 1051 547 942 547 q 1240 497 1175 547 q 1305 354 1305 446 q 1237 202 1305 258 q 1051 147 1169 147 q 865 203 934 147 q 796 354 796 258 l 796 368 l 715 368 l 715 0 l 510 0 l 510 627 q 368 724 415 652 l 240 724 q 185 643 227 673 q 82 612 143 612 l 49 612 l 97 879 l 329 879 m 1051 436 q 995 415 1015 436 q 974 354 974 393 q 994 285 974 311 q 1051 258 1015 258 q 1107 285 1087 258 q 1128 354 1128 312 q 1108 414 1128 392 q 1051 436 1088 436 z "},"ኊ":{"ha":1251,"x_min":49,"x_max":1203,"o":"m 329 879 l 329 991 l 526 991 l 526 882 q 560 777 526 809 q 669 745 594 745 l 715 745 l 715 513 l 814 513 l 814 621 l 1011 621 l 1011 403 l 1154 403 l 1203 136 l 1169 136 q 1067 166 1109 136 q 1011 248 1025 196 l 814 248 l 814 357 l 715 357 l 715 0 l 510 0 l 510 627 q 368 724 415 652 l 240 724 q 185 643 227 673 q 82 612 143 612 l 49 612 l 97 879 l 329 879 z "},"ኋ":{"ha":1043,"x_min":49,"x_max":970,"o":"m 329 879 l 329 991 l 526 991 l 526 882 q 560 777 526 809 q 669 745 594 745 l 715 745 l 715 292 l 970 292 l 970 0 l 772 0 l 772 136 l 328 136 q 272 55 314 85 q 170 25 231 25 l 136 25 l 184 292 l 510 292 l 510 627 q 368 724 415 652 l 240 724 q 185 643 227 673 q 82 612 143 612 l 49 612 l 97 879 l 329 879 z "},"ኌ":{"ha":1133,"x_min":49,"x_max":1074,"o":"m 329 879 l 329 991 l 526 991 l 526 882 q 560 777 526 809 q 669 745 594 745 l 715 745 l 715 436 l 803 436 q 1004 382 935 436 q 1074 228 1074 328 q 991 61 1074 122 q 765 0 908 0 l 328 0 q 272 -81 314 -51 q 170 -111 231 -111 l 136 -111 l 184 155 l 510 155 l 510 627 q 368 724 415 652 l 240 724 q 185 643 227 673 q 82 612 143 612 l 49 612 l 97 879 l 329 879 m 715 298 l 715 138 l 728 138 q 835 158 800 138 q 871 227 871 179 q 843 283 871 267 q 760 298 815 298 l 715 298 z "},"ኍ":{"ha":1254,"x_min":49,"x_max":1206,"o":"m 329 879 l 329 991 l 526 991 l 526 882 q 560 777 526 809 q 669 745 594 745 l 715 745 l 715 439 l 817 439 l 817 633 l 1014 633 l 1014 439 l 1157 439 l 1206 172 l 1173 172 q 1070 202 1112 172 q 1014 283 1027 232 l 715 283 l 715 0 l 510 0 l 510 627 q 368 724 415 652 l 240 724 q 185 643 227 673 q 82 612 143 612 l 49 612 l 97 879 l 329 879 z "},"ነ":{"ha":575,"x_min":74,"x_max":460,"o":"m 460 0 l 254 0 l 254 627 q 74 873 74 677 l 74 991 l 271 991 l 271 882 q 304 777 271 809 q 414 745 338 745 l 460 745 l 460 0 z "},"ኑ":{"ha":833,"x_min":74,"x_max":785,"o":"m 460 510 l 736 510 l 785 243 l 751 243 q 649 273 691 243 q 593 354 606 303 l 460 354 l 460 0 l 254 0 l 254 627 q 74 873 74 677 l 74 991 l 271 991 l 271 882 q 304 777 271 809 q 414 745 338 745 l 460 745 l 460 510 z "},"ኒ":{"ha":833,"x_min":74,"x_max":785,"o":"m 460 155 l 604 155 q 659 218 616 191 q 751 244 702 244 l 785 244 l 747 78 l 785 -89 l 751 -89 q 658 -62 701 -89 q 604 0 616 -36 l 254 0 l 254 627 q 74 873 74 677 l 74 991 l 271 991 l 271 882 q 304 777 271 809 q 414 745 338 745 l 460 745 l 460 155 z "},"ና":{"ha":789,"x_min":74,"x_max":741,"o":"m 526 490 l 526 0 l 321 0 l 321 334 l 74 334 l 74 427 q 121 752 74 628 q 267 934 168 877 q 553 991 367 991 l 692 991 l 741 725 l 707 725 q 604 756 646 725 q 549 836 562 787 q 348 763 416 836 q 279 534 279 689 l 279 490 l 526 490 z "},"ኔ":{"ha":783,"x_min":25,"x_max":724,"o":"m 297 616 q 132 700 189 633 q 74 873 74 766 l 74 991 l 271 991 l 271 882 q 304 777 271 809 q 414 745 338 745 l 568 745 l 432 436 l 453 436 q 654 382 585 436 q 724 228 724 328 q 641 61 724 122 q 415 0 558 0 l 25 0 l 297 616 m 371 298 l 300 138 l 378 138 q 485 158 450 138 q 521 227 521 179 q 492 283 521 267 q 410 298 463 298 l 371 298 z "},"ን":{"ha":864,"x_min":49,"x_max":829,"o":"m 829 679 l 529 0 l 315 0 l 546 524 l 372 524 l 372 624 q 361 768 372 731 q 324 821 351 805 q 240 836 297 836 q 206 784 231 810 q 148 742 182 758 q 82 725 115 725 l 49 725 l 97 991 l 232 991 q 487 920 406 991 q 575 679 568 848 l 829 679 z "},"ኖ":{"ha":1008,"x_min":115,"x_max":960,"o":"m 450 785 q 456 836 450 816 q 355 727 389 810 q 321 509 321 644 l 321 490 l 568 490 l 568 0 l 363 0 l 363 334 l 115 334 l 115 427 q 164 756 115 633 q 318 935 214 879 q 612 991 422 991 l 705 991 q 891 936 823 991 q 960 785 960 881 q 894 642 960 692 q 705 591 828 591 q 515 640 581 591 q 450 785 450 688 m 705 703 q 763 726 743 703 q 782 790 782 749 q 705 880 782 880 q 647 857 667 880 q 628 790 628 833 q 648 725 628 747 q 705 703 668 703 z "},"ኗ":{"ha":889,"x_min":69,"x_max":840,"o":"m 568 490 l 568 155 l 791 155 l 840 -111 l 807 -111 q 704 -81 747 -111 q 648 0 662 -51 l 261 0 q 205 -81 248 -51 q 103 -111 163 -111 l 69 -111 l 118 155 l 363 155 l 363 334 l 115 334 l 115 427 q 162 751 115 627 q 309 933 209 876 q 595 991 409 991 l 733 991 l 782 725 l 749 725 q 646 755 689 725 q 590 836 603 786 q 389 763 458 836 q 321 534 321 689 l 321 490 l 568 490 z "},"ኘ":{"ha":928,"x_min":49,"x_max":879,"o":"m 755 0 l 550 0 l 550 561 q 370 808 370 611 l 370 851 l 229 851 q 172 781 214 811 q 82 750 129 750 l 49 750 l 86 921 l 49 1092 l 82 1092 q 171 1062 129 1092 q 229 990 214 1032 l 699 990 q 756 1062 713 1031 q 846 1092 799 1092 l 879 1092 l 842 921 l 879 750 l 846 750 q 756 781 799 750 q 699 851 713 811 l 567 851 l 567 817 q 600 712 567 745 q 710 679 632 679 l 755 679 l 755 0 z "},"ኙ":{"ha":1129,"x_min":49,"x_max":1080,"o":"m 755 479 l 1032 479 l 1080 212 l 1047 212 q 944 242 986 212 q 889 323 903 273 l 755 323 l 755 0 l 550 0 l 550 561 q 370 808 370 611 l 370 851 l 229 851 q 172 781 214 811 q 82 750 129 750 l 49 750 l 86 921 l 49 1092 l 82 1092 q 171 1062 129 1092 q 229 990 214 1032 l 699 990 q 756 1062 713 1031 q 846 1092 799 1092 l 879 1092 l 842 921 l 879 750 l 846 750 q 756 781 799 750 q 699 851 713 811 l 567 851 l 567 817 q 600 712 567 745 q 710 679 632 679 l 755 679 l 755 479 z "},"ኚ":{"ha":1132,"x_min":49,"x_max":1083,"o":"m 755 155 l 903 155 q 958 218 916 193 q 1050 244 1000 244 l 1083 244 l 1046 78 l 1083 -89 l 1050 -89 q 958 -63 1000 -89 q 903 0 916 -37 l 550 0 l 550 561 q 370 808 370 611 l 370 851 l 229 851 q 172 781 214 811 q 82 750 129 750 l 49 750 l 86 921 l 49 1092 l 82 1092 q 171 1062 129 1092 q 229 990 214 1032 l 699 990 q 756 1062 713 1031 q 846 1092 799 1092 l 879 1092 l 842 921 l 879 750 l 846 750 q 756 781 799 750 q 699 851 713 811 l 567 851 l 567 817 q 600 712 567 745 q 710 679 632 679 l 755 679 l 755 155 z "},"ኛ":{"ha":924,"x_min":49,"x_max":875,"o":"m 557 421 l 557 0 l 351 0 l 351 264 l 104 264 l 104 338 q 163 651 104 537 q 351 806 222 764 l 351 930 l 229 930 q 172 860 214 890 q 82 829 129 829 l 49 829 l 86 1000 l 49 1171 l 82 1171 q 172 1140 129 1171 q 229 1069 215 1109 l 694 1069 q 750 1139 707 1108 q 842 1171 794 1171 l 875 1171 l 838 1000 l 875 829 l 842 829 q 779 844 809 829 q 725 882 748 859 q 694 930 703 906 l 557 930 l 557 835 l 694 835 l 743 568 l 710 568 q 608 598 651 568 q 551 679 565 628 q 374 614 437 679 q 310 429 310 549 l 310 421 l 557 421 z "},"ኜ":{"ha":1063,"x_min":49,"x_max":1003,"o":"m 361 851 l 229 851 q 172 781 214 811 q 82 750 129 750 l 49 750 l 86 921 l 49 1092 l 82 1092 q 171 1062 129 1092 q 229 990 214 1032 l 699 990 q 756 1062 713 1031 q 846 1092 799 1092 l 879 1092 l 842 921 l 879 750 l 846 750 q 756 781 799 750 q 699 851 713 811 l 567 851 l 567 679 l 818 679 l 710 436 l 732 436 q 933 382 864 436 q 1003 228 1003 328 q 920 61 1003 122 q 694 0 838 0 l 304 0 l 534 524 l 361 524 l 361 851 m 650 298 l 578 138 l 657 138 q 765 158 729 138 q 800 227 800 179 q 771 283 800 267 q 689 298 743 298 l 650 298 z "},"ኝ":{"ha":905,"x_min":49,"x_max":871,"o":"m 636 0 l 422 0 l 587 376 l 421 376 l 421 444 q 407 536 421 502 q 365 587 392 571 q 285 603 338 603 q 224 527 271 563 q 126 492 177 492 l 93 492 l 142 758 l 301 758 l 301 835 l 97 835 l 49 1101 l 82 1101 q 185 1072 143 1101 q 240 990 227 1042 l 570 990 q 625 1072 583 1042 q 728 1101 667 1101 l 761 1101 l 713 835 l 507 835 l 507 708 q 619 532 600 654 l 871 532 l 636 0 z "},"ኞ":{"ha":1039,"x_min":49,"x_max":990,"o":"m 481 586 q 510 693 481 646 l 504 693 q 405 656 450 693 q 335 551 360 619 q 310 395 310 484 l 310 386 l 557 386 l 557 0 l 351 0 l 351 231 l 104 231 l 104 335 q 165 642 104 525 q 351 804 225 759 l 351 930 l 229 930 q 172 860 214 890 q 82 829 129 829 l 49 829 l 86 1000 l 49 1171 l 82 1171 q 172 1140 129 1171 q 229 1069 215 1109 l 694 1069 q 750 1139 707 1108 q 842 1171 794 1171 l 875 1171 l 838 1000 l 875 829 l 842 829 q 779 844 809 829 q 725 882 748 859 q 694 930 703 906 l 557 930 l 557 835 l 566 835 q 879 770 768 835 q 990 586 990 706 q 925 444 990 494 q 736 393 860 393 q 546 441 611 393 q 481 586 481 490 m 736 504 q 793 527 774 504 q 812 591 812 550 q 736 682 812 682 q 679 659 699 682 q 659 591 659 636 q 679 526 659 549 q 736 504 699 504 z "},"ኟ":{"ha":924,"x_min":49,"x_max":875,"o":"m 351 155 l 351 278 l 104 278 l 104 338 q 163 651 104 537 q 351 806 222 764 l 351 930 l 229 930 q 172 860 214 890 q 82 829 129 829 l 49 829 l 86 1000 l 49 1171 l 82 1171 q 172 1140 129 1171 q 229 1069 215 1109 l 694 1069 q 750 1139 707 1108 q 842 1171 794 1171 l 875 1171 l 838 1000 l 875 829 l 842 829 q 779 844 809 829 q 725 882 748 859 q 694 930 703 906 l 557 930 l 557 835 l 694 835 l 743 568 l 710 568 q 608 598 651 568 q 551 679 565 628 q 374 615 437 679 q 310 443 310 551 l 310 435 l 557 435 l 557 155 l 815 155 l 864 -111 l 831 -111 q 728 -81 770 -111 q 672 0 686 -51 l 250 0 q 194 -81 237 -51 q 92 -111 152 -111 l 58 -111 l 107 155 l 351 155 z "},"አ":{"ha":821,"x_min":25,"x_max":754,"o":"m 297 616 q 132 700 189 633 q 74 873 74 766 l 74 991 l 271 991 l 271 882 q 304 777 271 809 q 414 745 338 745 l 568 745 l 469 519 q 673 339 603 465 q 754 0 744 213 l 547 0 q 509 249 543 157 q 408 383 475 342 l 240 0 l 25 0 l 297 616 z "},"ኡ":{"ha":1042,"x_min":25,"x_max":993,"o":"m 297 616 q 132 700 189 633 q 74 873 74 766 l 74 991 l 271 991 l 271 882 q 305 776 271 807 q 414 745 340 745 l 570 745 l 469 519 q 629 406 567 480 l 945 406 l 993 139 l 960 139 q 857 169 899 139 q 802 250 815 199 l 713 250 q 754 0 746 151 l 547 0 q 509 247 543 154 q 410 383 476 340 l 240 0 l 25 0 l 297 616 z "},"ኢ":{"ha":1067,"x_min":25,"x_max":1018,"o":"m 297 616 q 132 700 189 633 q 74 873 74 766 l 74 991 l 271 991 l 271 882 q 305 776 271 807 q 414 745 340 745 l 568 745 l 469 519 q 644 385 579 475 q 736 155 709 295 l 838 155 q 892 218 849 191 q 985 244 935 244 l 1018 244 l 981 78 l 1018 -89 l 985 -89 q 891 -62 934 -89 q 838 0 849 -36 l 547 0 q 509 249 543 157 q 408 383 475 342 l 240 0 l 25 0 l 297 616 z "},"ኣ":{"ha":821,"x_min":74,"x_max":754,"o":"m 297 616 q 132 700 189 633 q 74 873 74 766 l 74 991 l 271 991 l 271 882 q 305 776 271 807 q 414 745 340 745 l 568 745 l 469 519 q 673 339 603 465 q 754 0 744 213 l 547 0 q 509 247 543 154 q 410 383 476 340 l 330 203 l 115 203 l 297 616 z "},"ኤ":{"ha":1128,"x_min":25,"x_max":1068,"o":"m 297 616 q 132 700 189 633 q 74 873 74 766 l 74 991 l 271 991 l 271 882 q 305 776 271 807 q 414 745 340 745 l 568 745 l 469 519 q 602 436 545 490 l 832 436 q 1005 380 941 436 q 1068 228 1068 324 q 994 59 1068 119 q 779 0 919 0 l 547 0 q 509 249 543 157 q 408 383 475 342 l 240 0 l 25 0 l 297 616 m 693 298 q 741 138 722 232 l 757 138 q 865 227 865 138 q 754 298 865 298 l 693 298 z "},"እ":{"ha":978,"x_min":74,"x_max":911,"o":"m 306 697 q 74 962 74 727 l 74 991 l 271 991 l 271 966 q 410 828 271 828 l 570 828 l 511 693 l 726 693 l 636 490 q 830 316 764 437 q 911 0 897 196 l 704 0 q 665 221 695 136 q 575 351 635 306 l 419 0 l 204 0 l 441 538 l 237 538 l 306 697 z "},"ኦ":{"ha":821,"x_min":25,"x_max":754,"o":"m 297 616 q 132 700 189 633 q 74 873 74 766 l 74 991 l 271 991 l 271 882 q 304 777 271 809 q 414 745 338 745 l 568 745 l 469 521 q 655 397 587 477 q 754 191 724 317 l 547 191 q 497 309 530 263 q 410 385 464 355 l 240 0 l 25 0 l 297 616 z "},"ኧ":{"ha":1109,"x_min":49,"x_max":1043,"o":"m 361 851 l 229 851 q 172 781 214 811 q 82 750 129 750 l 49 750 l 86 921 l 49 1092 l 82 1092 q 171 1062 129 1092 q 229 990 214 1032 l 699 990 q 756 1062 713 1031 q 846 1092 799 1092 l 879 1092 l 842 921 l 879 750 l 846 750 q 756 781 799 750 q 699 851 713 811 l 567 851 l 567 659 l 818 659 l 757 521 q 962 341 891 467 q 1043 0 1032 216 l 836 0 q 798 249 831 157 q 697 383 764 342 l 528 0 l 314 0 l 534 503 l 361 503 l 361 851 z "},"ከ":{"ha":942,"x_min":74,"x_max":827,"o":"m 183 471 q 210 647 183 574 q 74 943 74 726 l 74 1055 l 278 1055 l 278 937 q 313 782 278 819 q 509 836 390 836 q 746 741 665 836 q 827 468 827 646 l 827 0 l 621 0 l 621 475 q 592 620 621 574 q 503 665 563 665 q 417 619 445 665 q 389 473 389 573 l 389 0 l 183 0 l 183 471 z "},"ኩ":{"ha":1152,"x_min":74,"x_max":1103,"o":"m 827 458 l 1054 458 l 1103 192 l 1069 192 q 967 222 1009 192 q 911 302 924 252 l 827 302 l 827 0 l 621 0 l 621 475 q 592 620 621 574 q 503 665 563 665 q 417 619 445 665 q 389 473 389 573 l 389 0 l 183 0 l 183 471 q 210 647 183 574 q 74 943 74 726 l 74 1055 l 278 1055 l 278 937 q 313 782 278 819 q 509 836 390 836 q 746 741 665 836 q 827 468 827 646 l 827 458 z "},"ኪ":{"ha":1136,"x_min":74,"x_max":1088,"o":"m 183 471 q 210 647 183 574 q 74 943 74 726 l 74 1055 l 278 1055 l 278 937 q 313 782 278 819 q 509 836 390 836 q 746 741 665 836 q 827 468 827 646 l 827 155 l 907 155 q 962 218 920 193 q 1054 244 1004 244 l 1088 244 l 1050 78 l 1088 -89 l 1054 -89 q 962 -63 1004 -89 q 907 0 920 -37 l 621 0 l 621 475 q 592 620 621 574 q 503 665 563 665 q 417 619 445 665 q 389 473 389 573 l 389 0 l 183 0 l 183 471 z "},"ካ":{"ha":942,"x_min":74,"x_max":827,"o":"m 183 471 q 210 647 183 574 q 74 943 74 726 l 74 1055 l 278 1055 l 278 937 q 313 782 278 819 q 509 836 390 836 q 746 741 665 836 q 827 468 827 646 l 827 0 l 621 0 l 621 475 q 592 620 621 574 q 503 665 563 665 q 417 619 445 665 q 389 473 389 573 l 389 329 l 183 329 l 183 471 z "},"ኬ":{"ha":1246,"x_min":74,"x_max":1186,"o":"m 621 475 q 592 620 621 574 q 503 665 563 665 q 417 619 445 665 q 389 473 389 573 l 389 0 l 183 0 l 183 471 q 210 647 183 574 q 74 943 74 726 l 74 1055 l 278 1055 l 278 937 q 313 782 278 819 q 509 836 390 836 q 746 741 665 836 q 827 468 827 646 l 827 436 l 916 436 q 1117 382 1048 436 q 1186 228 1186 328 q 1103 61 1186 122 q 878 0 1021 0 l 621 0 l 621 475 m 827 298 l 827 138 l 840 138 q 948 158 912 138 q 983 227 983 179 q 955 283 983 267 q 872 298 926 298 l 827 298 z "},"ክ":{"ha":942,"x_min":74,"x_max":827,"o":"m 183 471 q 210 647 183 574 q 74 943 74 726 l 74 1055 l 278 1055 l 278 937 q 313 782 278 819 q 509 836 390 836 q 746 741 665 836 q 827 468 827 646 l 827 0 l 621 0 l 621 475 q 592 620 621 574 q 503 665 563 665 q 417 619 445 665 q 389 473 389 573 l 389 454 q 461 460 434 460 l 498 460 l 498 325 l 488 325 q 412 293 435 325 q 389 187 389 260 l 389 0 l 183 0 l 183 196 q 298 425 183 362 l 183 425 l 183 471 z "},"ኮ":{"ha":928,"x_min":74,"x_max":827,"o":"m 183 471 q 211 647 183 570 q 74 943 74 726 l 74 1055 l 278 1055 l 278 937 q 313 782 278 819 q 509 836 390 836 q 746 741 665 836 q 827 468 827 646 l 827 329 l 621 329 l 621 475 q 592 620 621 574 q 503 665 563 665 q 417 619 445 665 q 389 473 389 573 l 389 0 l 183 0 l 183 471 z "},"ኰ":{"ha":1458,"x_min":74,"x_max":1410,"o":"m 183 0 l 183 471 q 211 647 183 570 q 74 943 74 726 l 74 1055 l 278 1055 l 278 937 q 313 782 278 819 q 509 836 390 836 q 718 769 637 836 q 817 579 798 701 l 968 579 q 1056 616 1011 606 q 1156 625 1101 625 q 1344 575 1279 625 q 1410 432 1410 524 q 1342 280 1410 336 q 1156 225 1274 225 q 968 281 1037 225 q 900 432 900 338 l 900 435 l 827 435 l 827 0 l 621 0 l 621 475 q 592 620 621 574 q 503 665 563 665 q 417 619 445 665 q 389 473 389 573 l 389 0 l 183 0 m 1156 514 q 1098 492 1118 514 q 1078 432 1078 469 q 1099 362 1078 388 q 1156 336 1120 336 q 1212 362 1191 336 q 1232 432 1232 389 q 1212 492 1232 469 q 1156 514 1192 514 z "},"ኲ":{"ha":1356,"x_min":74,"x_max":1307,"o":"m 183 0 l 183 468 q 211 646 183 576 q 74 943 74 726 l 74 1055 l 278 1055 l 278 937 q 287 837 278 873 q 314 781 295 800 q 509 833 391 833 q 724 760 644 833 q 821 545 804 686 l 918 545 l 918 653 l 1116 653 l 1116 435 l 1258 435 l 1307 168 l 1274 168 q 1171 198 1213 168 q 1116 279 1129 228 l 918 279 l 918 389 l 827 389 l 827 0 l 621 0 l 621 472 q 592 617 621 571 q 503 663 563 663 q 417 616 445 663 q 389 471 389 570 l 389 0 l 183 0 z "},"ኳ":{"ha":1112,"x_min":74,"x_max":1025,"o":"m 621 292 l 621 475 q 592 620 621 574 q 503 665 563 665 q 417 619 445 665 q 389 473 389 573 l 389 411 l 183 411 l 183 471 q 211 647 183 570 q 74 943 74 726 l 74 1055 l 278 1055 l 278 937 q 313 782 278 819 q 509 836 390 836 q 746 741 665 836 q 827 468 827 646 l 827 292 l 1025 292 l 1025 0 l 828 0 l 828 136 l 439 136 q 383 55 425 85 q 281 25 341 25 l 248 25 l 296 292 l 621 292 z "},"ኴ":{"ha":1246,"x_min":74,"x_max":1186,"o":"m 375 0 q 319 -81 361 -51 q 216 -111 277 -111 l 183 -111 l 232 155 l 621 155 l 621 475 q 592 620 621 574 q 503 665 563 665 q 417 619 445 665 q 389 473 389 573 l 389 329 l 183 329 l 183 471 q 211 647 183 570 q 74 943 74 726 l 74 1055 l 278 1055 l 278 937 q 313 782 278 819 q 509 836 390 836 q 746 741 665 836 q 827 468 827 646 l 827 436 l 916 436 q 1117 382 1048 436 q 1186 228 1186 328 q 1103 61 1186 122 q 878 0 1021 0 l 375 0 m 827 298 l 827 138 l 840 138 q 948 158 912 138 q 983 227 983 179 q 955 283 983 267 q 872 298 926 298 l 827 298 z "},"ኵ":{"ha":1308,"x_min":74,"x_max":1260,"o":"m 183 0 l 183 468 q 211 646 183 576 q 74 943 74 726 l 74 1055 l 278 1055 l 278 937 q 287 837 278 873 q 314 781 295 800 q 509 833 391 833 q 700 780 625 833 q 806 623 774 726 l 871 623 l 871 817 l 1068 817 l 1068 623 l 1211 623 l 1260 355 l 1226 355 q 1124 386 1166 355 q 1068 467 1082 416 l 827 467 l 827 0 l 621 0 l 621 472 q 592 617 621 571 q 503 663 563 663 q 417 616 445 663 q 389 471 389 570 l 389 0 l 183 0 z "},"ኸ":{"ha":1182,"x_min":49,"x_max":1067,"o":"m 82 1171 q 172 1140 129 1171 q 229 1069 215 1109 l 603 1069 q 659 1139 615 1108 q 750 1171 703 1171 l 783 1171 l 746 1000 l 783 829 l 750 829 q 687 844 718 829 q 634 882 656 859 q 603 930 611 906 l 518 930 l 518 892 q 553 736 518 773 q 749 790 628 790 q 985 696 904 790 q 1067 422 1067 602 l 1067 0 l 861 0 l 861 429 q 833 573 861 528 q 743 619 804 619 q 657 573 684 619 q 629 428 629 527 l 629 0 l 424 0 l 424 425 q 450 602 424 530 q 314 897 314 680 l 314 930 l 229 930 q 172 860 214 890 q 82 829 129 829 l 49 829 l 86 1000 l 49 1171 l 82 1171 z "},"ኹ":{"ha":1392,"x_min":49,"x_max":1343,"o":"m 1067 0 l 861 0 l 861 429 q 833 573 861 528 q 743 619 804 619 q 657 573 684 619 q 629 428 629 527 l 629 0 l 424 0 l 424 425 q 450 602 424 530 q 314 897 314 680 l 314 930 l 229 930 q 172 860 214 890 q 82 829 129 829 l 49 829 l 86 1000 l 49 1171 l 82 1171 q 172 1140 129 1171 q 229 1069 215 1109 l 603 1069 q 659 1139 615 1108 q 750 1171 703 1171 l 783 1171 l 746 1000 l 783 829 l 750 829 q 687 844 718 829 q 634 882 656 859 q 603 930 611 906 l 518 930 l 518 892 q 553 736 518 773 q 749 790 628 790 q 982 700 899 790 q 1067 437 1064 610 l 1295 437 l 1343 171 l 1310 171 q 1207 201 1249 171 q 1152 282 1165 231 l 1067 282 l 1067 0 z "},"ኺ":{"ha":1375,"x_min":49,"x_max":1326,"o":"m 82 1171 q 172 1140 129 1171 q 229 1069 215 1109 l 603 1069 q 659 1139 615 1108 q 750 1171 703 1171 l 783 1171 l 746 1000 l 783 829 l 750 829 q 687 844 718 829 q 634 882 656 859 q 603 930 611 906 l 518 930 l 518 892 q 553 736 518 773 q 749 790 628 790 q 985 696 904 790 q 1067 422 1067 602 l 1067 155 l 1146 155 q 1201 218 1158 191 q 1293 244 1244 244 l 1326 244 l 1289 78 l 1326 -89 l 1293 -89 q 1200 -62 1242 -89 q 1146 0 1158 -36 l 861 0 l 861 429 q 833 573 861 528 q 743 619 804 619 q 657 573 684 619 q 629 428 629 527 l 629 0 l 424 0 l 424 425 q 450 602 424 530 q 314 897 314 680 l 314 930 l 229 930 q 172 860 214 890 q 82 829 129 829 l 49 829 l 86 1000 l 49 1171 l 82 1171 z "},"ኻ":{"ha":1182,"x_min":49,"x_max":1067,"o":"m 82 1171 q 172 1140 129 1171 q 229 1069 215 1109 l 603 1069 q 659 1139 615 1108 q 750 1171 703 1171 l 783 1171 l 746 1000 l 783 829 l 750 829 q 687 844 718 829 q 634 882 656 859 q 603 930 611 906 l 518 930 l 518 892 q 553 736 518 773 q 749 790 628 790 q 985 696 904 790 q 1067 422 1067 602 l 1067 0 l 861 0 l 861 429 q 833 573 861 528 q 743 619 804 619 q 657 573 684 619 q 629 428 629 527 l 629 283 l 424 283 l 424 425 q 450 602 424 530 q 314 897 314 680 l 314 930 l 229 930 q 172 860 214 890 q 82 829 129 829 l 49 829 l 86 1000 l 49 1171 l 82 1171 z "},"ኼ":{"ha":1486,"x_min":49,"x_max":1426,"o":"m 861 429 q 833 573 861 528 q 743 619 804 619 q 657 573 684 619 q 629 428 629 527 l 629 0 l 424 0 l 424 425 q 450 602 424 530 q 314 897 314 680 l 314 930 l 229 930 q 172 860 214 890 q 82 829 129 829 l 49 829 l 86 1000 l 49 1171 l 82 1171 q 172 1140 129 1171 q 229 1069 215 1109 l 603 1069 q 659 1139 615 1108 q 750 1171 703 1171 l 783 1171 l 746 1000 l 783 829 l 750 829 q 687 844 718 829 q 634 882 656 859 q 603 930 611 906 l 518 930 l 518 892 q 553 736 518 773 q 749 790 628 790 q 981 699 899 790 q 1067 436 1064 608 l 1156 436 q 1357 382 1288 436 q 1426 228 1426 328 q 1345 61 1426 123 q 1118 0 1263 0 l 861 0 l 861 429 m 1067 298 l 1067 138 l 1080 138 q 1188 158 1152 138 q 1223 227 1223 179 q 1196 283 1223 267 q 1112 298 1168 298 l 1067 298 z "},"ኽ":{"ha":1182,"x_min":49,"x_max":1067,"o":"m 82 1171 q 172 1140 129 1171 q 229 1069 215 1109 l 603 1069 q 659 1139 615 1108 q 750 1171 703 1171 l 783 1171 l 746 1000 l 783 829 l 750 829 q 687 844 718 829 q 634 882 656 859 q 603 930 611 906 l 518 930 l 518 871 q 553 736 521 769 q 749 790 628 790 q 985 696 904 790 q 1067 422 1067 602 l 1067 0 l 861 0 l 861 429 q 833 573 861 528 q 743 619 804 619 q 657 573 684 619 q 629 428 629 527 l 629 419 q 701 425 667 425 l 739 425 l 739 290 l 728 290 q 652 258 675 290 q 629 153 629 225 l 629 0 l 424 0 l 424 161 q 541 392 424 329 l 424 392 l 424 425 q 450 602 424 530 q 314 897 314 680 l 314 930 l 229 930 q 172 860 214 890 q 82 829 129 829 l 49 829 l 86 1000 l 49 1171 l 82 1171 z "},"ኾ":{"ha":1168,"x_min":49,"x_max":1067,"o":"m 82 1171 q 172 1140 129 1171 q 229 1069 215 1109 l 603 1069 q 659 1139 615 1108 q 750 1171 703 1171 l 783 1171 l 746 1000 l 783 829 l 750 829 q 687 844 718 829 q 634 882 656 859 q 603 930 611 906 l 518 930 l 518 892 q 553 736 518 773 q 749 790 628 790 q 985 696 904 790 q 1067 422 1067 602 l 1067 283 l 861 283 l 861 429 q 833 573 861 528 q 743 619 804 619 q 657 573 684 619 q 629 428 629 527 l 629 0 l 424 0 l 424 425 q 450 602 424 530 q 314 897 314 680 l 314 930 l 229 930 q 172 860 214 890 q 82 829 129 829 l 49 829 l 86 1000 l 49 1171 l 82 1171 z "},"ዀ":{"ha":1699,"x_min":49,"x_max":1650,"o":"m 1140 389 l 1067 389 l 1067 0 l 861 0 l 861 429 q 833 573 861 528 q 743 619 804 619 q 657 573 684 619 q 629 428 629 527 l 629 0 l 424 0 l 424 425 q 450 602 424 530 q 314 897 314 680 l 314 930 l 229 930 q 172 860 214 890 q 82 829 129 829 l 49 829 l 86 1000 l 49 1171 l 82 1171 q 172 1140 129 1171 q 229 1069 215 1109 l 603 1069 q 659 1139 615 1108 q 750 1171 703 1171 l 783 1171 l 746 1000 l 783 829 l 750 829 q 687 844 718 829 q 634 882 656 859 q 603 930 611 906 l 518 930 l 518 892 q 553 736 518 773 q 749 790 628 790 q 957 723 877 790 q 1057 533 1038 656 l 1210 533 q 1273 564 1251 557 q 1326 575 1296 571 q 1396 579 1357 579 q 1585 529 1519 579 q 1650 386 1650 478 q 1582 234 1650 290 q 1396 179 1514 179 q 1208 235 1277 179 q 1140 386 1140 292 l 1140 389 m 1396 468 q 1339 447 1360 468 q 1318 386 1318 425 q 1339 317 1318 343 q 1396 290 1359 290 q 1452 317 1432 290 q 1472 386 1472 344 q 1452 446 1472 424 q 1396 468 1432 468 z "},"ዂ":{"ha":1596,"x_min":49,"x_max":1547,"o":"m 1158 346 l 1067 346 l 1067 0 l 861 0 l 861 429 q 833 573 861 528 q 743 619 804 619 q 657 573 684 619 q 629 428 629 527 l 629 0 l 424 0 l 424 425 q 450 602 424 530 q 314 897 314 680 l 314 930 l 229 930 q 172 860 214 890 q 82 829 129 829 l 49 829 l 86 1000 l 49 1171 l 82 1171 q 172 1140 129 1171 q 229 1069 215 1109 l 603 1069 q 659 1139 615 1108 q 750 1171 703 1171 l 783 1171 l 746 1000 l 783 829 l 750 829 q 687 844 718 829 q 634 882 656 859 q 603 930 611 906 l 518 930 l 518 892 q 553 736 518 773 q 749 790 628 790 q 964 718 884 790 q 1061 501 1044 645 l 1158 501 l 1158 610 l 1356 610 l 1356 392 l 1499 392 l 1547 125 l 1514 125 q 1411 155 1453 125 q 1356 236 1369 185 l 1158 236 l 1158 346 z "},"ዃ":{"ha":1315,"x_min":49,"x_max":1267,"o":"m 424 374 l 424 425 q 450 602 424 530 q 314 897 314 680 l 314 930 l 229 930 q 172 860 214 890 q 82 829 129 829 l 49 829 l 86 1000 l 49 1171 l 82 1171 q 172 1140 129 1171 q 229 1069 215 1109 l 603 1069 q 659 1139 615 1108 q 750 1171 703 1171 l 783 1171 l 746 1000 l 783 829 l 750 829 q 687 844 718 829 q 634 882 656 859 q 603 930 611 906 l 518 930 l 518 892 q 553 736 518 773 q 749 790 628 790 q 985 696 904 790 q 1067 422 1067 602 l 1067 155 l 1218 155 l 1267 -111 l 1234 -111 q 1131 -81 1173 -111 q 1075 0 1088 -51 l 615 0 q 560 -81 602 -51 q 457 -111 518 -111 l 424 -111 l 472 155 l 861 155 l 861 429 q 833 573 861 528 q 743 619 804 619 q 657 573 684 619 q 629 428 629 527 l 629 374 l 424 374 z "},"ዄ":{"ha":1486,"x_min":49,"x_max":1426,"o":"m 424 374 l 424 425 q 450 602 424 530 q 314 897 314 680 l 314 930 l 229 930 q 172 860 214 890 q 82 829 129 829 l 49 829 l 86 1000 l 49 1171 l 82 1171 q 172 1140 129 1171 q 229 1069 215 1109 l 603 1069 q 659 1139 615 1108 q 750 1171 703 1171 l 783 1171 l 746 1000 l 783 829 l 750 829 q 687 844 718 829 q 634 882 656 859 q 603 930 611 906 l 518 930 l 518 892 q 553 736 518 773 q 749 790 628 790 q 981 699 899 790 q 1067 436 1064 608 l 1156 436 q 1357 382 1288 436 q 1426 228 1426 328 q 1345 61 1426 123 q 1118 0 1263 0 l 615 0 q 560 -81 602 -51 q 457 -111 518 -111 l 424 -111 l 472 155 l 861 155 l 861 429 q 833 573 861 528 q 743 619 804 619 q 657 573 684 619 q 629 428 629 527 l 629 374 l 424 374 m 1067 298 l 1067 138 l 1080 138 q 1188 158 1152 138 q 1223 227 1223 179 q 1196 283 1223 267 q 1112 298 1168 298 l 1067 298 z "},"ዅ":{"ha":1549,"x_min":49,"x_max":1500,"o":"m 82 1171 q 172 1140 129 1171 q 229 1069 215 1109 l 603 1069 q 659 1139 615 1108 q 750 1171 703 1171 l 783 1171 l 746 1000 l 783 829 l 750 829 q 687 844 718 829 q 634 882 656 859 q 603 930 611 906 l 518 930 l 518 892 q 553 736 518 773 q 749 790 628 790 q 943 734 870 790 q 1046 579 1017 677 l 1111 579 l 1111 774 l 1308 774 l 1308 579 l 1451 579 l 1500 313 l 1467 313 q 1364 342 1407 313 q 1308 424 1322 372 l 1067 424 l 1067 0 l 861 0 l 861 429 q 833 573 861 528 q 743 619 804 619 q 657 573 684 619 q 629 428 629 527 l 629 0 l 424 0 l 424 425 q 450 602 424 530 q 314 897 314 680 l 314 930 l 229 930 q 172 860 214 890 q 82 829 129 829 l 49 829 l 86 1000 l 49 1171 l 82 1171 z "},"ወ":{"ha":1161,"x_min":74,"x_max":1088,"o":"m 608 111 q 487 24 541 49 q 371 0 432 0 q 150 119 225 0 q 74 471 74 237 q 176 851 74 711 q 458 991 279 991 l 753 991 q 1001 884 915 991 q 1088 572 1088 777 q 1005 229 1088 347 q 765 111 922 111 l 608 111 m 390 155 q 435 164 416 155 q 482 200 455 173 l 482 839 l 464 839 q 366 794 408 839 q 300 659 323 750 q 277 454 277 568 q 306 233 277 311 q 390 155 336 155 m 688 839 l 688 265 l 755 265 q 853 337 821 265 q 885 562 885 408 q 757 839 885 839 l 688 839 z "},"ዉ":{"ha":1396,"x_min":74,"x_max":1348,"o":"m 1088 567 q 1025 253 1088 370 l 1299 253 l 1348 -14 l 1314 -14 q 1212 16 1254 -14 q 1156 97 1169 45 l 607 97 q 488 22 543 44 q 371 0 433 0 q 150 119 225 0 q 74 471 74 237 q 176 851 74 711 q 458 991 279 991 l 753 991 q 1001 883 914 991 q 1088 567 1088 774 m 390 155 q 435 164 416 155 q 482 200 455 173 l 482 839 l 464 839 q 366 794 408 839 q 300 659 323 750 q 277 454 277 568 q 306 233 277 311 q 390 155 336 155 m 688 839 l 688 253 l 755 253 q 852 325 819 253 q 885 555 885 397 q 757 839 885 839 l 688 839 z "},"ዊ":{"ha":1161,"x_min":74,"x_max":1088,"o":"m 482 407 q 366 392 421 392 q 148 463 222 392 q 74 667 74 534 q 121 834 74 760 q 256 950 168 908 q 458 991 344 991 l 753 991 q 1001 926 915 991 q 1088 737 1088 861 q 1005 529 1088 600 q 765 458 922 458 l 688 458 l 688 155 l 817 155 q 872 218 830 193 q 964 244 914 244 l 997 244 l 960 78 l 997 -89 l 964 -89 q 872 -63 914 -89 q 817 0 830 -37 l 482 0 l 482 407 m 375 547 q 482 571 439 547 l 482 839 l 464 839 q 363 816 404 839 q 299 753 321 793 q 277 667 277 713 q 304 579 277 611 q 375 547 331 547 m 688 839 l 688 612 l 755 612 q 885 729 885 612 q 757 839 885 839 l 688 839 z "},"ዋ":{"ha":1161,"x_min":74,"x_max":1088,"o":"m 482 407 q 366 392 421 392 q 148 463 222 392 q 74 667 74 534 q 121 834 74 760 q 256 950 168 908 q 458 991 344 991 l 753 991 q 1001 926 915 991 q 1088 737 1088 861 q 1005 529 1088 600 q 765 458 922 458 l 688 458 l 688 0 l 482 0 l 482 407 m 375 547 q 482 571 439 547 l 482 839 l 464 839 q 363 816 404 839 q 299 753 321 793 q 277 667 277 713 q 304 579 277 611 q 375 547 331 547 m 688 839 l 688 612 l 755 612 q 885 729 885 612 q 757 839 885 839 l 688 839 z "},"ዌ":{"ha":1161,"x_min":74,"x_max":1088,"o":"m 482 407 q 366 392 421 392 q 148 463 222 392 q 74 667 74 534 q 121 834 74 760 q 256 950 168 908 q 458 991 344 991 l 753 991 q 1001 926 915 991 q 1088 737 1088 861 q 1005 529 1088 600 q 765 458 922 458 l 688 458 l 688 395 l 777 395 q 1047 214 1047 395 q 965 57 1047 115 q 739 0 883 0 l 482 0 l 482 407 m 375 547 q 482 571 439 547 l 482 839 l 464 839 q 363 816 404 839 q 299 753 321 793 q 277 667 277 713 q 304 579 277 611 q 375 547 331 547 m 688 839 l 688 612 l 755 612 q 885 729 885 612 q 757 839 885 839 l 688 839 m 688 271 l 688 123 l 701 123 q 809 143 774 123 q 844 204 844 162 q 818 256 844 241 q 733 271 791 271 l 688 271 z "},"ው":{"ha":1435,"x_min":74,"x_max":1386,"o":"m 608 98 q 490 23 546 46 q 371 0 435 0 q 150 119 225 0 q 74 471 74 237 q 176 851 74 711 q 458 991 279 991 l 753 991 q 989 897 903 991 q 1086 621 1074 803 l 1337 621 l 1386 354 l 1353 354 q 1250 384 1293 354 q 1194 465 1208 414 l 1082 465 q 983 191 1064 283 q 765 98 902 98 l 608 98 m 390 155 q 435 164 416 155 q 482 200 455 173 l 482 839 l 464 839 q 366 794 408 839 q 300 659 323 750 q 277 454 277 568 q 306 233 277 311 q 390 155 336 155 m 688 839 l 688 253 l 755 253 q 852 325 819 253 q 885 555 885 397 q 757 839 885 839 l 688 839 z "},"ዎ":{"ha":1161,"x_min":74,"x_max":1088,"o":"m 415 395 q 366 392 397 392 q 148 463 222 392 q 74 667 74 534 q 121 834 74 760 q 256 950 168 908 q 458 991 344 991 l 753 991 q 1001 926 915 991 q 1088 737 1088 861 q 1005 529 1088 600 q 765 458 922 458 l 652 458 l 456 0 l 244 0 l 415 395 m 375 547 q 482 571 439 547 l 482 839 l 464 839 q 363 816 404 839 q 299 753 321 793 q 277 667 277 713 q 304 579 277 611 q 375 547 331 547 m 688 839 l 688 612 l 755 612 q 885 729 885 612 q 757 839 885 839 l 688 839 z "},"ዐ":{"ha":871,"x_min":102,"x_max":770,"o":"m 770 351 q 683 81 770 175 q 432 -14 595 -14 q 186 81 270 -14 q 102 354 102 176 l 102 637 q 186 911 102 816 q 432 1006 271 1006 q 682 911 595 1006 q 770 640 770 816 l 770 351 m 564 642 q 533 788 564 743 q 437 833 503 833 q 339 788 372 833 q 307 643 307 743 l 307 347 q 339 202 307 248 q 437 157 371 157 q 532 202 501 157 q 564 349 564 248 l 564 642 z "},"ዑ":{"ha":1080,"x_min":102,"x_max":1032,"o":"m 770 597 l 983 597 l 1032 330 l 999 330 q 896 360 939 330 q 840 441 854 391 l 770 441 l 770 351 q 683 81 770 175 q 432 -14 595 -14 q 186 81 270 -14 q 102 354 102 176 l 102 637 q 186 911 102 816 q 432 1006 271 1006 q 682 911 595 1006 q 770 640 770 816 l 770 597 m 564 642 q 533 788 564 743 q 437 833 503 833 q 339 788 372 833 q 307 643 307 743 l 307 347 q 339 202 307 248 q 437 157 371 157 q 532 202 501 157 q 564 349 564 248 l 564 642 z "},"ዒ":{"ha":1080,"x_min":74,"x_max":1032,"o":"m 387 354 q 74 604 74 354 l 74 757 q 376 1007 74 1007 q 604 944 524 1007 q 684 757 684 882 l 684 603 q 673 528 684 559 l 844 528 l 697 155 l 851 155 q 907 218 865 193 q 999 244 950 244 l 1032 244 l 994 78 l 1032 -89 l 999 -89 q 907 -63 949 -89 q 851 0 865 -37 l 467 0 l 467 109 l 585 403 q 387 354 506 354 m 379 509 q 463 537 439 509 q 486 625 486 565 l 486 742 q 461 825 486 797 q 378 852 437 852 q 271 742 271 852 l 271 625 q 296 536 271 564 q 379 509 321 509 z "},"ዓ":{"ha":904,"x_min":74,"x_max":844,"o":"m 387 354 q 74 604 74 354 l 74 757 q 376 1007 74 1007 q 604 944 524 1007 q 684 757 684 882 l 684 603 q 673 528 684 559 l 844 528 l 636 0 l 424 0 l 585 403 q 387 354 506 354 m 379 509 q 463 537 439 509 q 486 625 486 565 l 486 742 q 461 825 486 797 q 378 852 437 852 q 271 742 271 852 l 271 625 q 296 536 271 564 q 379 509 321 509 z "},"ዔ":{"ha":1125,"x_min":74,"x_max":1065,"o":"m 387 354 q 74 604 74 354 l 74 757 q 376 1007 74 1007 q 604 944 524 1007 q 684 757 684 882 l 684 603 q 673 528 684 559 l 844 528 l 798 408 q 997 357 928 407 q 1065 214 1065 307 q 983 57 1065 114 q 757 0 900 0 l 467 0 l 467 109 l 585 403 q 387 354 506 354 m 379 509 q 463 537 439 509 q 486 625 486 565 l 486 742 q 461 825 486 797 q 378 852 437 852 q 271 742 271 852 l 271 625 q 296 536 271 564 q 379 509 321 509 m 743 271 l 685 123 l 720 123 q 828 143 793 123 q 863 204 863 162 q 836 256 863 241 q 751 271 808 271 l 743 271 z "},"ዕ":{"ha":871,"x_min":102,"x_max":770,"o":"m 770 351 q 683 81 770 175 q 432 -14 595 -14 q 186 81 270 -14 q 102 354 102 176 l 102 515 q 161 754 102 663 q 335 872 220 846 l 335 1055 l 541 1055 l 541 871 q 711 751 652 842 q 770 518 770 660 l 770 351 m 564 519 q 533 666 564 621 q 437 711 503 711 q 339 666 372 711 q 307 521 307 621 l 307 347 q 339 202 307 248 q 437 157 371 157 q 532 202 501 157 q 564 349 564 248 l 564 519 z "},"ዖ":{"ha":800,"x_min":28,"x_max":726,"o":"m 28 0 q 76 211 50 133 q 144 345 102 289 q 269 457 187 401 q 156 563 196 492 q 115 728 115 633 q 198 929 115 854 q 418 1004 280 1004 q 644 931 562 1004 q 726 732 726 857 q 706 596 726 652 q 638 495 685 541 q 482 386 591 450 q 352 291 399 338 q 280 183 305 244 q 240 0 256 122 l 28 0 m 428 848 q 345 814 372 848 q 318 720 318 779 q 345 613 318 661 q 414 547 372 564 q 495 613 466 565 q 524 732 524 661 q 498 817 524 785 q 428 848 472 848 z "},"ዘ":{"ha":807,"x_min":115,"x_max":692,"o":"m 692 0 l 486 0 l 486 460 l 321 460 l 321 0 l 115 0 l 115 991 l 321 991 l 321 615 l 486 615 l 486 991 l 692 991 l 692 0 z "},"ዙ":{"ha":1017,"x_min":115,"x_max":968,"o":"m 692 615 l 920 615 l 968 349 l 935 349 q 832 379 874 349 q 777 460 790 409 l 692 460 l 692 0 l 486 0 l 486 460 l 321 460 l 321 0 l 115 0 l 115 991 l 321 991 l 321 615 l 486 615 l 486 991 l 692 991 l 692 615 z "},"ዚ":{"ha":1003,"x_min":115,"x_max":954,"o":"m 692 155 l 774 155 q 828 218 785 191 q 921 244 871 244 l 954 244 l 917 78 l 954 -89 l 921 -89 q 828 -62 870 -89 q 774 0 785 -36 l 486 0 l 486 460 l 321 460 l 321 0 l 115 0 l 115 991 l 321 991 l 321 615 l 486 615 l 486 991 l 692 991 l 692 155 z "},"ዛ":{"ha":807,"x_min":115,"x_max":692,"o":"m 692 0 l 486 0 l 486 460 l 321 460 l 321 224 l 115 224 l 115 991 l 321 991 l 321 615 l 486 615 l 486 991 l 692 991 l 692 0 z "},"ዜ":{"ha":1111,"x_min":115,"x_max":1051,"o":"m 692 436 l 781 436 q 982 382 913 436 q 1051 228 1051 328 q 970 61 1051 123 q 743 0 888 0 l 486 0 l 486 460 l 321 460 l 321 0 l 115 0 l 115 991 l 321 991 l 321 615 l 486 615 l 486 991 l 692 991 l 692 436 m 692 298 l 692 138 l 705 138 q 813 158 777 138 q 848 227 848 179 q 821 283 848 267 q 737 298 793 298 l 692 298 z "},"ዝ":{"ha":1002,"x_min":49,"x_max":886,"o":"m 886 0 l 681 0 l 681 460 l 517 460 l 517 0 l 311 0 l 311 707 q 294 801 311 769 q 240 836 277 833 q 185 755 227 785 q 82 725 143 725 l 49 725 l 97 991 l 220 991 q 401 962 339 991 q 490 864 464 932 q 517 642 517 795 l 517 615 l 681 615 l 681 993 l 886 993 l 886 0 z "},"ዞ":{"ha":807,"x_min":115,"x_max":692,"o":"m 692 224 l 486 224 l 486 460 l 321 460 l 321 0 l 115 0 l 115 991 l 321 991 l 321 615 l 486 615 l 486 991 l 692 991 l 692 224 z "},"ዟ":{"ha":1003,"x_min":115,"x_max":954,"o":"m 486 155 l 486 460 l 321 460 l 321 224 l 115 224 l 115 991 l 321 991 l 321 615 l 486 615 l 486 991 l 692 991 l 692 155 l 905 155 l 954 -111 l 921 -111 q 818 -81 861 -111 q 762 0 776 -51 l 414 0 q 358 -81 400 -51 q 256 -111 317 -111 l 222 -111 l 271 155 l 486 155 z "},"ዠ":{"ha":1197,"x_min":49,"x_max":1149,"o":"m 886 0 l 681 0 l 681 460 l 517 460 l 517 0 l 311 0 l 311 707 q 294 801 311 769 q 240 836 277 833 q 185 755 227 785 q 82 725 143 725 l 49 725 l 97 991 l 220 991 q 401 962 339 991 q 490 864 464 932 q 517 642 517 795 l 517 615 l 681 615 l 681 642 q 707 864 681 796 q 795 962 734 932 q 978 991 857 991 l 1100 991 l 1149 725 l 1116 725 q 1013 755 1055 725 q 957 836 970 785 q 886 707 886 830 l 886 0 z "},"ዡ":{"ha":1197,"x_min":49,"x_max":1149,"o":"m 886 615 l 1100 615 l 1149 349 l 1116 349 q 1013 379 1055 349 q 957 460 970 409 l 886 460 l 886 0 l 681 0 l 681 460 l 517 460 l 517 0 l 311 0 l 311 707 q 294 801 311 769 q 240 836 277 833 q 185 755 227 785 q 82 725 143 725 l 49 725 l 97 991 l 220 991 q 401 962 339 991 q 490 864 464 932 q 517 642 517 795 l 517 615 l 681 615 l 681 642 q 707 864 681 796 q 795 962 734 932 q 978 991 857 991 l 1100 991 l 1149 725 l 1116 725 q 1013 755 1055 725 q 957 836 970 785 q 886 707 886 830 l 886 615 z "},"ዢ":{"ha":1197,"x_min":49,"x_max":1149,"o":"m 886 155 l 968 155 q 1024 218 981 193 q 1116 244 1067 244 l 1149 244 l 1111 78 l 1149 -89 l 1116 -89 q 1024 -63 1066 -89 q 968 0 981 -37 l 681 0 l 681 460 l 517 460 l 517 0 l 311 0 l 311 707 q 294 801 311 769 q 240 836 277 833 q 185 755 227 785 q 82 725 143 725 l 49 725 l 97 991 l 220 991 q 401 962 339 991 q 490 864 464 932 q 517 642 517 795 l 517 615 l 681 615 l 681 642 q 707 864 681 796 q 795 962 734 932 q 978 991 857 991 l 1100 991 l 1149 725 l 1116 725 q 1013 755 1055 725 q 957 836 970 785 q 886 707 886 830 l 886 155 z "},"ዣ":{"ha":1197,"x_min":49,"x_max":1149,"o":"m 886 0 l 681 0 l 681 460 l 517 460 l 517 224 l 311 224 l 311 707 q 294 801 311 769 q 240 836 277 833 q 185 755 227 785 q 82 725 143 725 l 49 725 l 97 991 l 220 991 q 401 962 339 991 q 490 864 464 932 q 517 642 517 795 l 517 615 l 681 615 l 681 642 q 707 864 681 796 q 795 962 734 932 q 978 991 857 991 l 1100 991 l 1149 725 l 1116 725 q 1013 755 1055 725 q 957 836 970 785 q 886 707 886 830 l 886 0 z "},"ዤ":{"ha":1305,"x_min":49,"x_max":1246,"o":"m 886 436 l 975 436 q 1177 382 1107 436 q 1246 228 1246 328 q 1163 61 1246 122 q 937 0 1080 0 l 681 0 l 681 460 l 517 460 l 517 0 l 311 0 l 311 707 q 294 801 311 769 q 240 836 277 833 q 185 755 227 785 q 82 725 143 725 l 49 725 l 97 991 l 220 991 q 401 962 339 991 q 490 864 464 932 q 517 642 517 795 l 517 615 l 681 615 l 681 642 q 707 864 681 796 q 795 962 734 932 q 978 991 857 991 l 1100 991 l 1149 725 l 1116 725 q 1013 755 1055 725 q 957 836 970 785 q 886 707 886 830 l 886 436 m 886 298 l 886 138 l 900 138 q 1007 158 972 138 q 1043 227 1043 179 q 1014 283 1043 267 q 932 298 985 298 l 886 298 z "},"ዥ":{"ha":1279,"x_min":49,"x_max":1231,"o":"m 968 0 l 762 0 l 762 340 l 599 340 l 599 0 l 393 0 l 393 498 q 358 598 393 569 q 240 628 322 628 q 185 547 227 576 q 82 517 143 517 l 49 517 l 97 783 l 245 783 l 278 782 l 278 930 l 229 930 q 172 860 214 890 q 82 829 129 829 l 49 829 l 86 1000 l 49 1171 l 82 1171 q 172 1140 129 1171 q 229 1069 215 1109 l 530 1069 q 588 1140 545 1109 q 677 1171 631 1171 l 711 1171 l 673 1000 l 711 829 l 677 829 q 588 860 631 829 q 530 930 545 890 l 482 930 l 482 737 q 565 651 537 707 q 597 496 593 595 l 762 496 q 796 674 768 616 q 886 758 825 732 q 1060 783 947 783 l 1182 783 l 1231 517 l 1197 517 q 1095 547 1137 517 q 1039 628 1053 576 q 985 593 1002 625 q 968 498 968 561 l 968 0 z "},"ዦ":{"ha":1197,"x_min":49,"x_max":1149,"o":"m 886 224 l 681 224 l 681 460 l 517 460 l 517 0 l 311 0 l 311 707 q 294 801 311 769 q 240 836 277 833 q 185 755 227 785 q 82 725 143 725 l 49 725 l 97 991 l 220 991 q 401 962 339 991 q 490 864 464 932 q 517 642 517 795 l 517 615 l 681 615 l 681 642 q 707 864 681 796 q 795 962 734 932 q 978 991 857 991 l 1100 991 l 1149 725 l 1116 725 q 1013 755 1055 725 q 957 836 970 785 q 886 707 886 830 l 886 224 z "},"ዧ":{"ha":1197,"x_min":49,"x_max":1149,"o":"m 886 155 l 1100 155 l 1149 -111 l 1116 -111 q 1013 -81 1055 -111 q 957 0 970 -51 l 608 0 q 552 -81 595 -51 q 450 -111 510 -111 l 416 -111 l 465 155 l 681 155 l 681 460 l 517 460 l 517 224 l 311 224 l 311 707 q 294 801 311 769 q 240 836 277 833 q 185 755 227 785 q 82 725 143 725 l 49 725 l 97 991 l 220 991 q 401 962 339 991 q 490 864 464 932 q 517 642 517 795 l 517 615 l 681 615 l 681 642 q 707 864 681 796 q 795 962 734 932 q 978 991 857 991 l 1100 991 l 1149 725 l 1116 725 q 1013 755 1055 725 q 957 836 970 785 q 886 707 886 830 l 886 155 z "},"የ":{"ha":758,"x_min":74,"x_max":685,"o":"m 250 0 l 250 207 q 229 342 250 277 q 162 479 207 407 q 96 613 117 551 q 74 742 74 675 q 157 934 74 863 q 378 1006 241 1006 q 604 930 523 1006 q 685 718 685 854 q 618 531 685 609 q 421 412 551 452 q 456 183 456 304 l 456 0 l 250 0 m 376 850 q 304 818 332 850 q 277 736 277 785 q 357 549 277 660 q 449 615 416 566 q 482 733 482 663 q 454 817 482 783 q 376 850 425 850 z "},"ዩ":{"ha":785,"x_min":74,"x_max":736,"o":"m 250 0 l 250 207 q 229 342 250 277 q 162 479 207 407 q 96 613 117 551 q 74 742 74 675 q 157 934 74 863 q 378 1006 241 1006 q 604 930 523 1006 q 685 718 685 854 q 618 531 685 609 q 421 412 551 452 q 439 345 433 376 l 688 345 l 736 78 l 703 78 q 600 108 642 78 q 545 189 558 138 l 456 189 l 456 0 l 250 0 m 376 850 q 304 818 332 850 q 277 736 277 785 q 357 549 277 660 q 449 615 416 566 q 482 733 482 663 q 454 817 482 783 q 376 850 425 850 z "},"ዪ":{"ha":987,"x_min":74,"x_max":939,"o":"m 250 0 l 250 207 q 229 342 250 277 q 162 479 207 407 q 96 613 117 551 q 74 742 74 675 q 157 934 74 863 q 378 1006 241 1006 q 604 930 523 1006 q 685 718 685 854 q 618 531 685 609 q 421 412 551 452 q 441 334 433 375 l 550 334 l 550 400 l 747 400 l 747 267 l 890 267 l 939 0 l 905 0 q 803 30 845 0 q 747 111 761 60 l 550 111 l 550 178 l 456 178 l 456 0 l 250 0 m 376 850 q 304 818 332 850 q 277 736 277 785 q 357 549 277 660 q 449 615 416 566 q 482 733 482 663 q 454 817 482 783 q 376 850 425 850 z "},"ያ":{"ha":819,"x_min":49,"x_max":746,"o":"m 311 207 q 290 342 311 277 q 223 479 268 407 q 157 613 178 551 q 135 742 135 675 q 218 934 135 863 q 439 1006 302 1006 q 665 930 584 1006 q 746 718 746 854 q 679 531 746 609 q 482 412 612 452 q 517 183 517 304 l 517 0 l 229 0 q 174 -63 216 -37 q 82 -89 132 -89 l 49 -89 l 86 78 l 49 244 l 82 244 q 174 218 132 244 q 229 155 216 193 l 311 155 l 311 207 m 437 850 q 366 818 393 850 q 338 736 338 785 q 418 549 338 660 q 510 615 477 566 q 543 733 543 663 q 515 818 543 785 q 437 850 486 850 z "},"ዬ":{"ha":1103,"x_min":74,"x_max":1054,"o":"m 250 0 l 250 207 q 229 342 250 277 q 162 479 207 407 q 96 613 117 551 q 74 742 74 675 q 157 934 74 863 q 378 1006 241 1006 q 604 930 523 1006 q 685 718 685 854 q 618 531 685 609 q 421 412 551 452 l 435 363 l 627 363 q 800 400 691 400 q 988 350 923 400 q 1054 207 1054 300 q 986 56 1054 111 q 800 0 919 0 q 613 56 682 0 q 545 207 545 113 l 545 221 l 454 221 l 456 202 l 456 0 l 250 0 m 376 850 q 304 818 332 850 q 277 736 277 785 q 357 549 277 660 q 449 615 416 566 q 482 733 482 663 q 454 817 482 783 q 376 850 425 850 m 800 289 q 743 267 764 289 q 722 207 722 245 q 743 138 722 164 q 800 111 764 111 q 856 138 836 111 q 876 207 876 165 q 856 268 876 246 q 800 289 836 289 z "},"ይ":{"ha":1051,"x_min":49,"x_max":991,"o":"m 991 335 q 910 86 991 172 q 669 0 829 0 l 229 0 q 174 -63 216 -37 q 82 -89 132 -89 l 49 -89 l 86 78 l 49 244 l 82 244 q 174 218 132 244 q 229 155 216 193 l 359 155 q 255 371 294 243 q 215 611 215 498 q 303 902 215 796 q 542 1007 391 1007 q 760 933 679 1007 q 840 736 840 860 q 791 572 840 648 q 658 457 742 496 q 463 418 574 418 q 548 226 491 296 q 667 155 604 155 q 755 200 724 155 q 786 323 786 244 l 786 407 l 991 407 l 991 335 m 541 851 q 452 803 485 851 q 419 673 419 754 q 428 568 419 619 q 581 619 524 570 q 637 747 637 668 q 612 824 637 796 q 541 851 586 851 z "},"ዮ":{"ha":990,"x_min":74,"x_max":942,"o":"m 250 0 l 250 207 q 229 342 250 277 q 162 479 207 407 q 96 613 117 551 q 74 742 74 675 q 157 934 74 863 q 378 1006 241 1006 q 572 955 495 1006 q 673 807 648 903 l 893 807 l 942 541 l 908 541 q 806 570 848 541 q 750 652 764 600 l 677 652 q 595 507 661 568 q 421 412 530 446 q 456 183 456 304 l 456 0 l 250 0 m 376 850 q 304 818 332 850 q 277 736 277 785 q 357 549 277 660 q 449 615 416 566 q 482 733 482 663 q 454 817 482 783 q 376 850 425 850 z "},"ደ":{"ha":903,"x_min":49,"x_max":854,"o":"m 267 267 q 176 449 208 353 q 144 640 144 546 q 225 911 144 816 q 457 1006 305 1006 q 678 926 600 1006 q 755 710 755 847 q 709 562 755 633 q 585 454 663 492 q 404 411 508 416 q 484 267 440 331 l 806 267 l 854 0 l 821 0 q 718 30 760 0 q 663 111 676 60 l 240 111 q 185 30 227 60 q 82 0 143 0 l 49 0 l 97 267 l 267 267 m 458 850 q 378 808 408 850 q 347 673 347 766 q 366 541 347 607 q 502 597 452 549 q 553 721 553 645 q 528 816 553 783 q 458 850 504 850 z "},"ዱ":{"ha":1356,"x_min":49,"x_max":1307,"o":"m 821 0 l 821 244 l 240 244 q 185 163 227 193 q 82 134 143 134 l 49 134 l 97 400 l 389 400 q 292 667 292 501 q 378 916 292 827 q 621 1006 465 1006 q 828 937 755 1006 q 901 746 901 869 q 859 598 901 665 q 738 493 816 531 q 558 456 660 456 q 736 400 621 403 l 1026 400 l 1026 277 l 1258 277 l 1307 14 l 1274 14 q 1171 43 1213 14 q 1116 123 1129 73 l 1026 123 l 1026 0 l 821 0 m 604 850 q 530 804 559 850 q 500 692 500 759 q 504 629 500 663 q 513 582 508 596 q 647 632 595 587 q 699 739 699 677 q 674 822 699 793 q 604 850 650 850 z "},"ዲ":{"ha":1356,"x_min":49,"x_max":1307,"o":"m 821 0 l 821 244 l 240 244 q 185 163 227 193 q 82 134 143 134 l 49 134 l 97 400 l 386 400 q 292 667 292 503 q 378 916 292 827 q 621 1006 465 1006 q 828 937 755 1006 q 901 746 901 869 q 859 598 901 665 q 738 493 816 531 q 558 456 660 456 q 736 400 621 403 l 1026 400 l 1026 155 l 1126 155 q 1181 218 1138 191 q 1274 244 1224 244 l 1307 244 l 1270 78 l 1307 -89 l 1274 -89 q 1180 -62 1223 -89 q 1126 0 1138 -36 l 821 0 m 604 850 q 530 804 559 850 q 500 692 500 759 q 504 629 500 663 q 513 582 508 596 q 647 632 595 587 q 699 739 699 677 q 674 822 699 793 q 604 850 650 850 z "},"ዳ":{"ha":1128,"x_min":49,"x_max":1026,"o":"m 821 0 l 821 244 l 240 244 q 185 163 227 193 q 82 134 143 134 l 49 134 l 97 400 l 390 400 q 292 667 292 507 q 378 916 292 827 q 621 1006 465 1006 q 828 937 755 1006 q 901 746 901 869 q 859 598 901 665 q 738 493 816 531 q 558 456 660 456 q 750 400 625 400 l 1026 400 l 1026 0 l 821 0 m 604 850 q 530 804 559 850 q 500 692 500 759 q 504 629 500 663 q 513 582 508 596 q 647 632 595 587 q 699 739 699 677 q 674 822 699 793 q 604 850 650 850 z "},"ዴ":{"ha":1183,"x_min":49,"x_max":1135,"o":"m 403 386 q 292 667 292 507 q 378 916 292 827 q 621 1006 465 1006 q 828 937 755 1006 q 901 746 901 869 q 859 598 901 665 q 738 493 816 531 q 558 456 660 456 q 750 386 623 386 l 889 386 q 1070 335 1006 386 q 1135 193 1135 284 q 1067 42 1135 98 q 880 -14 1000 -14 q 694 42 763 -14 q 625 193 625 98 q 628 231 625 218 l 240 231 q 185 150 227 180 q 82 119 143 119 l 49 119 l 97 386 l 403 386 m 604 850 q 530 804 559 850 q 500 692 500 759 q 504 629 500 663 q 513 582 508 596 q 647 632 595 587 q 699 739 699 677 q 674 822 699 793 q 604 850 650 850 m 880 275 q 823 253 844 275 q 803 193 803 231 q 824 123 803 150 q 880 97 844 97 q 937 124 916 97 q 957 193 957 151 q 937 253 957 231 q 880 275 917 275 z "},"ድ":{"ha":1108,"x_min":49,"x_max":1060,"o":"m 306 267 q 215 452 246 354 q 183 640 183 549 q 263 911 183 816 q 496 1006 343 1006 q 692 947 616 1006 q 787 781 768 888 l 1011 781 l 1060 514 l 1026 514 q 924 544 966 514 q 868 625 882 574 l 779 625 q 660 473 747 529 q 443 411 572 418 q 482 331 465 366 q 522 267 499 296 l 806 267 l 854 0 l 821 0 q 718 30 760 0 q 663 111 676 60 l 240 111 q 185 30 227 60 q 82 0 143 0 l 49 0 l 97 267 l 306 267 m 497 850 q 416 808 447 850 q 386 673 386 766 q 404 541 386 607 q 541 597 490 549 q 591 721 591 645 q 567 816 591 783 q 497 850 543 850 z "},"ዶ":{"ha":1054,"x_min":60,"x_max":1006,"o":"m 957 401 l 1006 135 l 972 135 q 870 165 912 135 q 814 245 827 195 l 400 245 q 294 216 323 245 q 264 115 264 186 l 264 0 l 60 0 l 60 118 q 137 327 60 252 q 358 401 215 401 l 392 401 q 299 528 334 450 q 264 690 264 606 q 352 921 264 836 q 593 1006 440 1006 q 798 935 723 1006 q 872 746 872 865 q 792 553 872 632 q 582 458 713 474 q 811 401 644 401 l 957 401 m 576 850 q 526 830 551 850 q 486 777 500 811 q 471 696 471 743 q 503 583 471 638 q 625 638 581 596 q 669 741 669 681 q 643 823 669 795 q 576 850 617 850 z "},"ዷ":{"ha":1105,"x_min":49,"x_max":1057,"o":"m 770 155 l 1008 155 l 1057 -111 l 1023 -111 q 921 -81 963 -111 q 865 0 879 -51 l 492 0 q 436 -81 478 -51 q 334 -111 393 -111 l 300 -111 l 349 155 l 564 155 l 564 245 l 240 245 q 185 165 227 195 q 82 135 143 135 l 49 135 l 97 401 l 300 401 q 208 528 243 450 q 172 690 172 606 q 260 921 172 836 q 501 1006 349 1006 q 651 974 587 1006 q 747 883 714 941 q 781 746 781 824 q 701 553 781 632 q 490 458 621 474 q 720 401 552 401 l 770 401 l 770 155 m 485 850 q 433 830 458 850 q 393 777 408 810 q 379 696 379 743 q 411 583 379 638 q 533 638 488 596 q 578 741 578 680 q 552 823 578 795 q 485 850 526 850 z "},"ዸ":{"ha":903,"x_min":49,"x_max":854,"o":"m 267 267 q 177 440 210 342 q 144 631 144 539 q 197 819 144 739 q 346 929 250 899 l 346 1105 l 551 1105 l 551 936 q 702 846 648 913 q 755 681 755 780 q 713 536 755 603 q 594 428 671 469 q 415 382 517 387 q 484 267 456 306 l 806 267 l 854 0 l 821 0 q 718 30 760 0 q 663 111 676 60 l 240 111 q 185 30 227 60 q 82 0 143 0 l 49 0 l 97 267 l 267 267 m 458 790 q 380 744 413 790 q 347 629 347 698 q 366 510 347 557 q 500 563 448 517 q 553 675 553 609 q 528 760 553 730 q 458 790 503 790 z "},"ዹ":{"ha":1356,"x_min":49,"x_max":1307,"o":"m 821 0 l 821 215 l 240 215 q 185 134 227 164 q 82 104 143 104 l 49 104 l 97 371 l 375 371 q 292 621 292 467 q 346 821 292 743 q 501 929 400 900 l 501 1105 l 707 1105 l 707 937 q 851 856 800 918 q 901 694 901 793 q 859 554 901 616 q 739 457 817 492 q 558 422 661 422 q 639 383 599 395 q 730 371 680 372 l 1026 371 l 1026 254 l 1258 254 l 1307 0 l 1274 0 q 1171 30 1213 0 q 1116 110 1129 59 l 1026 110 l 1026 0 l 821 0 m 604 790 q 530 747 559 790 q 500 642 500 705 q 513 549 500 587 q 647 591 595 553 q 699 686 699 629 q 674 764 699 737 q 604 790 650 790 z "},"ዺ":{"ha":1356,"x_min":49,"x_max":1307,"o":"m 821 0 l 821 215 l 240 215 q 185 134 227 164 q 82 104 143 104 l 49 104 l 97 371 l 375 371 q 292 621 292 467 q 346 821 292 743 q 501 929 400 900 l 501 1105 l 707 1105 l 707 937 q 851 856 800 918 q 901 694 901 793 q 859 554 901 616 q 739 457 817 492 q 558 422 661 422 q 639 383 599 395 q 730 371 680 372 l 1026 371 l 1026 155 l 1126 155 q 1181 218 1138 191 q 1274 244 1224 244 l 1307 244 l 1270 78 l 1307 -89 l 1274 -89 q 1180 -62 1223 -89 q 1126 0 1138 -36 l 821 0 m 604 790 q 530 747 559 790 q 500 642 500 705 q 513 549 500 587 q 647 591 595 553 q 699 686 699 629 q 674 764 699 737 q 604 790 650 790 z "},"ዻ":{"ha":1128,"x_min":49,"x_max":1026,"o":"m 821 0 l 821 215 l 240 215 q 185 134 227 164 q 82 104 143 104 l 49 104 l 97 371 l 375 371 q 292 621 292 467 q 346 821 292 743 q 501 929 400 900 l 501 1105 l 707 1105 l 707 937 q 851 856 800 918 q 901 694 901 793 q 859 554 901 616 q 739 457 817 492 q 558 422 661 422 q 639 383 599 395 q 730 371 680 372 l 1026 371 l 1026 0 l 821 0 m 604 790 q 530 747 559 790 q 500 642 500 705 q 513 549 500 587 q 647 591 595 553 q 699 686 699 629 q 674 764 699 737 q 604 790 650 790 z "},"ዼ":{"ha":1183,"x_min":49,"x_max":1135,"o":"m 375 386 q 292 636 292 482 q 346 837 292 758 q 501 945 400 915 l 501 1105 l 707 1105 l 707 953 q 851 870 801 933 q 901 710 901 807 q 859 569 901 632 q 738 472 817 507 q 558 437 660 437 q 643 397 604 408 q 730 386 682 386 l 889 386 q 1070 335 1006 386 q 1135 193 1135 284 q 1067 42 1135 98 q 880 -14 1000 -14 q 694 42 763 -14 q 625 193 625 98 q 628 231 625 218 l 240 231 q 185 150 227 180 q 82 119 143 119 l 49 119 l 97 386 l 375 386 m 604 806 q 530 763 559 806 q 500 657 500 720 q 505 599 500 625 q 513 564 509 572 q 647 607 596 570 q 699 701 699 645 q 674 779 699 753 q 604 806 650 806 m 880 275 q 823 253 844 275 q 803 193 803 231 q 824 123 803 150 q 880 97 844 97 q 937 124 916 97 q 957 193 957 151 q 937 253 957 231 q 880 275 917 275 z "},"ዽ":{"ha":1108,"x_min":49,"x_max":1060,"o":"m 306 267 q 215 438 247 344 q 183 624 183 533 q 236 822 183 742 q 386 930 288 902 l 386 1105 l 591 1105 l 591 935 q 721 866 672 916 q 787 741 770 816 l 1011 741 l 1060 473 l 1026 473 q 924 504 966 473 q 868 585 882 534 l 778 585 q 660 445 745 496 q 450 386 574 393 q 522 267 490 306 l 806 267 l 854 0 l 821 0 q 718 30 760 0 q 663 111 676 60 l 240 111 q 185 30 227 60 q 82 0 143 0 l 49 0 l 97 267 l 306 267 m 497 790 q 414 750 442 790 q 386 633 386 710 q 406 514 386 573 q 539 565 487 519 q 591 677 591 610 q 567 761 591 732 q 497 790 543 790 z "},"ዾ":{"ha":1054,"x_min":60,"x_max":1006,"o":"m 957 378 l 1006 111 l 972 111 q 870 141 912 111 q 814 222 827 171 l 400 222 q 294 188 323 222 q 264 66 264 153 l 264 0 l 60 0 l 60 64 q 138 296 60 214 q 358 378 217 378 l 392 378 q 299 497 335 423 q 264 650 264 570 q 317 828 264 755 q 465 928 370 901 l 465 1105 l 671 1105 l 671 939 q 819 857 765 921 q 872 699 872 793 q 791 512 872 588 q 582 424 711 437 q 811 378 644 378 l 957 378 m 576 790 q 525 773 549 790 q 486 724 500 755 q 471 650 471 692 q 503 549 471 598 q 625 599 580 560 q 669 690 669 637 q 643 765 669 741 q 576 790 617 790 z "},"ዿ":{"ha":1105,"x_min":49,"x_max":1057,"o":"m 770 140 l 1008 140 l 1057 -111 l 1023 -111 q 921 -81 963 -111 q 865 0 879 -51 l 492 0 q 436 -81 478 -51 q 334 -111 393 -111 l 300 -111 l 349 140 l 564 140 l 564 231 l 240 231 q 185 150 227 180 q 82 119 143 119 l 49 119 l 97 374 l 325 374 q 214 492 256 415 q 172 653 172 570 q 228 829 172 755 q 386 930 283 903 l 386 1105 l 591 1105 l 591 935 q 730 852 680 913 q 781 708 781 791 q 702 518 781 597 q 498 424 623 439 q 720 374 557 374 l 770 374 l 770 140 m 485 790 q 408 753 437 790 q 379 659 379 716 q 411 546 379 601 q 533 601 488 559 q 578 703 578 643 q 553 766 578 742 q 485 790 528 790 z "},"ጀ":{"ha":932,"x_min":49,"x_max":884,"o":"m 297 250 q 193 415 222 343 q 163 562 163 488 q 215 748 163 672 q 364 854 268 824 l 364 930 l 229 930 q 172 860 214 890 q 82 829 129 829 l 49 829 l 86 1000 l 49 1171 l 82 1171 q 172 1140 129 1171 q 229 1069 215 1109 l 703 1069 q 760 1140 718 1109 q 850 1171 803 1171 l 884 1171 l 846 1000 l 884 829 l 850 829 q 760 860 803 829 q 703 930 717 890 l 570 930 l 570 861 q 721 776 669 840 q 774 619 774 712 q 733 484 774 547 q 618 382 692 420 q 447 339 543 344 q 484 289 466 309 q 517 250 502 269 l 817 250 l 865 0 l 832 0 q 729 30 772 0 q 673 111 687 60 l 252 111 q 196 30 238 60 q 93 0 153 0 l 60 0 l 109 250 l 297 250 m 476 715 q 421 701 446 715 q 381 656 396 686 q 366 583 366 627 q 390 465 366 526 q 520 511 469 471 q 571 612 571 552 q 547 689 571 663 q 476 715 522 715 z "},"ጁ":{"ha":1354,"x_min":49,"x_max":1305,"o":"m 707 930 l 707 864 q 852 787 802 846 q 901 639 901 728 q 859 508 901 566 q 738 418 817 450 q 558 386 660 386 q 637 356 600 366 q 725 347 675 347 l 1026 347 l 1026 240 l 1257 240 l 1305 12 l 1272 12 q 1170 40 1213 12 q 1114 118 1127 68 l 1026 118 l 1026 0 l 821 0 l 821 192 l 240 192 q 185 111 227 140 q 82 81 143 81 l 49 81 l 97 347 l 367 347 q 292 570 292 435 q 346 755 292 683 q 501 856 400 828 l 501 930 l 367 930 q 309 860 352 890 q 220 829 267 829 l 186 829 l 224 1000 l 186 1171 l 220 1171 q 310 1140 267 1171 q 367 1069 353 1109 l 840 1069 q 898 1140 855 1109 q 987 1171 940 1171 l 1021 1171 l 983 1000 l 1021 829 l 987 829 q 897 860 939 829 q 840 930 854 890 l 707 930 m 604 717 q 530 679 559 717 q 500 586 500 642 q 513 504 500 543 q 648 543 598 509 q 699 625 699 577 q 674 694 699 671 q 604 717 649 717 z "},"ጂ":{"ha":1354,"x_min":49,"x_max":1305,"o":"m 707 930 l 707 864 q 852 787 802 846 q 901 639 901 728 q 859 508 901 566 q 738 418 817 450 q 558 386 660 386 q 637 356 600 366 q 725 347 675 347 l 1026 347 l 1026 142 l 1125 142 q 1180 204 1137 178 q 1272 231 1223 231 l 1305 231 l 1268 71 l 1305 -89 l 1272 -89 q 1179 -62 1221 -89 q 1125 0 1137 -36 l 821 0 l 821 192 l 240 192 q 185 111 227 140 q 82 81 143 81 l 49 81 l 97 347 l 367 347 q 292 570 292 435 q 346 755 292 683 q 501 856 400 828 l 501 930 l 367 930 q 309 860 352 890 q 220 829 267 829 l 186 829 l 224 1000 l 186 1171 l 220 1171 q 310 1140 267 1171 q 367 1069 353 1109 l 840 1069 q 898 1140 855 1109 q 987 1171 940 1171 l 1021 1171 l 983 1000 l 1021 829 l 987 829 q 897 860 939 829 q 840 930 854 890 l 707 930 m 604 717 q 530 679 559 717 q 500 586 500 642 q 513 504 500 543 q 648 543 598 509 q 699 625 699 577 q 674 694 699 671 q 604 717 649 717 z "},"ጃ":{"ha":1128,"x_min":49,"x_max":1026,"o":"m 707 930 l 707 864 q 852 787 802 846 q 901 639 901 728 q 859 508 901 566 q 738 418 817 450 q 558 386 660 386 q 644 356 603 364 q 750 347 684 347 l 1026 347 l 1026 0 l 821 0 l 821 192 l 240 192 q 185 111 227 140 q 82 81 143 81 l 49 81 l 97 347 l 367 347 q 292 570 292 435 q 346 755 292 683 q 501 856 400 828 l 501 930 l 367 930 q 309 860 352 890 q 220 829 267 829 l 186 829 l 224 1000 l 186 1171 l 220 1171 q 310 1140 267 1171 q 367 1069 353 1109 l 840 1069 q 898 1140 855 1109 q 987 1171 940 1171 l 1021 1171 l 983 1000 l 1021 829 l 987 829 q 897 860 939 829 q 840 930 854 890 l 707 930 m 604 717 q 530 679 559 717 q 500 586 500 642 q 513 504 500 543 q 648 543 598 509 q 699 625 699 577 q 674 694 699 671 q 604 717 649 717 z "},"ጄ":{"ha":1183,"x_min":49,"x_max":1135,"o":"m 707 930 l 707 864 q 852 787 802 846 q 901 639 901 728 q 859 508 901 566 q 738 418 817 450 q 558 386 660 386 q 637 356 600 366 q 725 347 675 347 l 889 347 q 1070 296 1006 347 q 1135 154 1135 245 q 1067 3 1135 58 q 880 -53 1000 -53 q 694 3 763 -53 q 625 154 625 58 q 628 192 625 178 l 240 192 q 185 111 227 140 q 82 81 143 81 l 49 81 l 97 347 l 367 347 q 292 570 292 435 q 346 755 292 683 q 501 856 400 828 l 501 930 l 367 930 q 309 860 352 890 q 220 829 267 829 l 186 829 l 224 1000 l 186 1171 l 220 1171 q 310 1140 267 1171 q 367 1069 353 1109 l 840 1069 q 898 1140 855 1109 q 987 1171 940 1171 l 1021 1171 l 983 1000 l 1021 829 l 987 829 q 897 860 939 829 q 840 930 854 890 l 707 930 m 604 717 q 530 679 559 717 q 500 586 500 642 q 513 504 500 543 q 648 543 598 509 q 699 625 699 577 q 674 694 699 671 q 604 717 649 717 m 880 236 q 824 215 844 236 q 803 154 803 193 q 823 85 803 111 q 880 58 844 58 q 937 85 916 58 q 957 154 957 112 q 937 214 957 192 q 880 236 917 236 z "},"ጅ":{"ha":1095,"x_min":49,"x_max":1046,"o":"m 283 250 q 193 404 225 320 q 161 575 161 488 q 214 757 161 684 q 364 857 267 829 l 364 930 l 229 930 q 172 860 214 890 q 82 829 129 829 l 49 829 l 86 1000 l 49 1171 l 82 1171 q 172 1140 129 1171 q 229 1069 215 1109 l 703 1069 q 760 1140 718 1109 q 850 1171 803 1171 l 884 1171 l 846 1000 l 884 829 l 850 829 q 760 860 803 829 q 703 930 717 890 l 570 930 l 570 864 q 696 804 647 847 q 762 694 745 760 l 997 694 l 1046 428 l 1013 428 q 910 458 951 428 q 854 539 868 488 l 757 539 q 636 401 722 452 q 427 346 550 351 q 500 250 461 289 l 822 250 l 871 0 l 838 0 q 735 30 777 0 q 679 111 692 60 l 257 111 q 201 30 243 60 q 98 0 159 0 l 65 0 l 114 250 l 283 250 m 475 717 q 393 682 421 717 q 364 583 364 648 q 382 473 364 526 q 518 522 467 480 q 570 625 570 564 q 544 692 570 667 q 475 717 518 717 z "},"ጆ":{"ha":1054,"x_min":60,"x_max":1006,"o":"m 957 335 l 1006 85 l 972 85 q 870 115 912 85 q 814 196 827 144 l 400 196 q 294 161 323 196 q 264 40 264 126 l 264 0 l 60 0 l 60 37 q 135 258 60 182 q 358 335 211 335 l 392 335 q 264 596 264 437 q 317 759 264 690 q 465 856 370 827 l 465 930 l 330 930 q 273 859 315 889 q 183 829 230 829 l 150 829 l 187 1000 l 150 1171 l 183 1171 q 272 1141 230 1171 q 330 1069 315 1112 l 804 1069 q 860 1139 817 1108 q 951 1171 904 1171 l 985 1171 l 947 1000 l 985 829 l 951 829 q 888 844 919 829 q 835 882 858 859 q 804 930 812 906 l 671 930 l 671 865 q 820 783 767 846 q 872 625 872 719 q 795 458 872 522 q 582 380 718 395 q 811 335 642 335 l 957 335 m 576 717 q 501 687 531 717 q 471 607 471 657 q 503 505 471 555 q 627 542 584 509 q 669 627 669 574 q 643 693 669 669 q 576 717 617 717 z "},"ጇ":{"ha":1105,"x_min":49,"x_max":1057,"o":"m 770 119 l 1008 119 l 1057 -111 l 1023 -111 q 921 -81 963 -111 q 865 0 879 -51 l 492 0 q 436 -81 478 -51 q 334 -111 393 -111 l 300 -111 l 349 119 l 564 119 l 564 205 l 240 205 q 185 124 227 155 q 82 94 143 94 l 49 94 l 97 328 l 325 328 q 216 435 260 360 q 172 591 172 510 q 229 762 172 692 q 386 859 286 833 l 386 930 l 252 930 q 194 860 237 890 q 104 829 151 829 l 71 829 l 109 1000 l 71 1171 l 104 1171 q 194 1140 151 1171 q 252 1069 237 1109 l 725 1069 q 783 1140 740 1109 q 872 1171 825 1171 l 905 1171 l 868 1000 l 905 829 l 872 829 q 782 860 825 829 q 725 930 739 890 l 591 930 l 591 863 q 730 783 680 842 q 781 646 781 724 q 703 466 781 542 q 498 374 625 390 q 578 342 524 357 q 720 328 633 328 l 770 328 l 770 119 m 485 728 q 409 693 438 728 q 379 603 379 659 q 411 496 379 547 q 533 548 488 509 q 578 644 578 587 q 553 705 578 682 q 485 728 529 728 z "},"ገ":{"ha":871,"x_min":49,"x_max":755,"o":"m 550 429 q 526 680 550 597 q 442 800 502 763 q 256 836 382 836 l 240 836 q 172 754 215 784 q 82 725 129 725 l 49 725 l 97 991 l 260 991 q 555 946 450 991 q 708 801 661 901 q 755 521 755 701 l 755 0 l 550 0 l 550 429 z "},"ጉ":{"ha":1129,"x_min":49,"x_max":1080,"o":"m 550 429 q 526 680 550 597 q 442 800 502 763 q 256 836 382 836 l 240 836 q 172 754 215 784 q 82 725 129 725 l 49 725 l 97 991 l 260 991 q 524 958 425 991 q 677 852 623 924 q 747 657 730 779 l 1032 657 l 1080 390 l 1047 390 q 944 420 986 390 q 889 501 903 450 l 755 501 l 755 0 l 550 0 l 550 429 z "},"ጊ":{"ha":1129,"x_min":49,"x_max":1080,"o":"m 755 155 l 900 155 q 956 218 913 193 q 1047 244 998 244 l 1080 244 l 1043 78 l 1080 -89 l 1047 -89 q 956 -63 998 -89 q 900 0 913 -37 l 550 0 l 550 429 q 526 680 550 597 q 442 800 502 763 q 256 836 382 836 l 240 836 q 172 754 215 784 q 82 725 129 725 l 49 725 l 97 991 l 260 991 q 555 946 450 991 q 708 801 661 901 q 755 521 755 701 l 755 155 z "},"ጋ":{"ha":871,"x_min":49,"x_max":755,"o":"m 550 429 q 526 680 550 597 q 442 800 502 763 q 256 836 382 836 l 240 836 q 172 754 215 784 q 82 725 129 725 l 49 725 l 97 991 l 260 991 q 555 946 450 991 q 708 801 661 901 q 755 521 755 701 l 755 351 q 709 145 755 220 q 564 35 663 69 q 293 0 465 0 l 240 0 q 183 -83 226 -54 q 82 -113 140 -113 l 49 -113 l 97 154 l 343 154 q 503 196 456 154 q 550 339 550 238 l 550 429 z "},"ጌ":{"ha":1164,"x_min":49,"x_max":1116,"o":"m 550 429 q 526 680 550 597 q 442 800 502 763 q 256 836 382 836 l 240 836 q 172 754 215 784 q 82 725 129 725 l 49 725 l 97 991 l 260 991 q 555 946 450 991 q 708 801 661 901 q 755 521 755 701 l 755 436 l 844 436 q 1046 382 977 436 q 1116 228 1116 328 q 1033 61 1116 122 q 807 0 950 0 l 550 0 l 550 429 m 755 298 l 755 138 l 770 138 q 877 158 842 138 q 913 227 913 179 q 884 283 913 267 q 802 298 855 298 l 755 298 z "},"ግ":{"ha":1089,"x_min":49,"x_max":974,"o":"m 558 785 q 493 640 558 688 q 302 591 428 591 q 114 641 180 591 q 49 785 49 691 q 116 936 49 880 q 302 991 183 991 l 452 991 q 766 948 656 991 q 925 805 876 905 q 974 521 974 706 l 974 0 l 768 0 l 768 458 q 748 669 768 592 q 682 785 727 746 q 553 832 636 823 q 558 785 558 802 m 304 703 q 361 726 342 703 q 380 790 380 749 q 304 880 380 880 q 246 857 266 880 q 227 790 227 833 q 304 703 227 703 z "},"ጎ":{"ha":871,"x_min":49,"x_max":755,"o":"m 550 298 q 525 554 550 471 q 439 671 499 637 q 256 705 378 705 l 240 705 q 173 625 216 655 q 82 595 130 595 l 49 595 l 97 861 l 271 861 l 271 1055 l 476 1055 l 476 840 q 691 701 627 805 q 755 390 755 596 l 755 0 l 550 0 l 550 298 z "},"ጐ":{"ha":1393,"x_min":49,"x_max":1344,"o":"m 550 298 q 525 554 550 471 q 439 671 499 637 q 256 705 378 705 l 240 705 q 173 625 216 655 q 82 595 130 595 l 49 595 l 97 861 l 271 861 l 271 1055 l 476 1055 l 476 840 q 656 747 592 814 q 742 559 720 680 l 1090 559 q 1279 510 1213 559 q 1344 367 1344 460 q 1277 216 1344 271 q 1090 160 1209 160 q 903 216 972 160 q 835 367 835 273 q 847 443 835 407 l 754 443 l 755 417 l 755 0 l 550 0 l 550 298 m 1090 449 q 1033 427 1053 449 q 1013 367 1013 404 q 1034 297 1013 323 q 1090 271 1055 271 q 1146 298 1126 271 q 1166 367 1166 325 q 1146 427 1166 406 q 1090 449 1126 449 z "},"ጒ":{"ha":1284,"x_min":49,"x_max":1236,"o":"m 550 429 q 526 680 550 597 q 442 800 502 763 q 256 836 382 836 l 240 836 q 172 754 215 784 q 82 725 129 725 l 49 725 l 97 991 l 260 991 q 610 916 499 991 q 746 664 721 841 l 847 664 l 847 772 l 1044 772 l 1044 554 l 1187 554 l 1236 288 l 1203 288 q 1100 317 1143 288 q 1044 399 1058 347 l 847 399 l 847 509 l 755 509 l 755 0 l 550 0 l 550 429 z "},"ጓ":{"ha":871,"x_min":49,"x_max":755,"o":"m 755 0 l 550 0 l 550 74 q 524 328 550 245 q 438 447 498 412 q 256 482 378 482 l 240 482 q 174 400 216 431 q 82 370 131 370 l 49 370 l 97 636 l 260 636 l 338 633 q 327 753 336 711 q 301 813 319 795 q 244 836 283 831 q 179 755 222 786 q 86 725 136 725 l 53 725 l 102 991 l 207 991 q 409 955 338 991 q 511 836 479 918 q 543 597 543 753 q 707 447 658 548 q 755 174 755 347 l 755 0 z "},"ጔ":{"ha":1175,"x_min":49,"x_max":1116,"o":"m 755 298 l 755 138 l 770 138 q 877 158 842 138 q 913 227 913 179 q 884 283 913 267 q 802 298 855 298 l 755 298 m 755 436 l 844 436 q 1046 382 977 436 q 1116 228 1116 328 q 1033 61 1116 122 q 807 0 950 0 l 240 0 q 185 -81 227 -51 q 82 -111 143 -111 l 49 -111 l 97 155 l 550 155 l 550 429 q 526 680 550 597 q 442 800 502 763 q 256 836 382 836 l 240 836 q 172 754 215 784 q 82 725 129 725 l 49 725 l 97 991 l 260 991 q 555 946 450 991 q 708 801 661 901 q 755 521 755 701 l 755 436 z "},"ጕ":{"ha":1284,"x_min":49,"x_max":1236,"o":"m 550 429 q 526 680 550 597 q 442 800 502 763 q 256 836 382 836 l 240 836 q 172 754 215 784 q 82 725 129 725 l 49 725 l 97 991 l 260 991 q 544 951 441 991 q 696 822 646 910 q 754 578 747 734 l 847 578 l 847 772 l 1044 772 l 1044 578 l 1187 578 l 1236 311 l 1203 311 q 1100 341 1143 311 q 1044 422 1058 371 l 755 422 l 755 0 l 550 0 l 550 429 z "},"ጘ":{"ha":904,"x_min":49,"x_max":856,"o":"m 586 183 q 567 449 586 376 q 503 556 547 522 q 375 590 458 590 l 359 590 q 294 510 338 541 q 201 479 251 479 l 168 479 l 216 746 l 349 746 l 349 851 l 229 851 q 172 781 214 811 q 82 750 129 750 l 49 750 l 86 921 l 49 1092 l 82 1092 q 171 1062 129 1092 q 229 990 214 1032 l 675 990 q 732 1062 690 1031 q 822 1092 775 1092 l 856 1092 l 818 921 l 856 750 l 822 750 q 732 781 775 750 q 675 851 689 811 l 554 851 l 554 725 q 734 586 677 689 q 791 275 791 484 l 791 0 l 586 0 l 586 183 z "},"ጙ":{"ha":1165,"x_min":49,"x_max":1117,"o":"m 586 183 q 567 449 586 376 q 503 556 547 522 q 375 590 458 590 l 359 590 q 294 510 338 541 q 201 479 251 479 l 168 479 l 216 746 l 349 746 l 349 851 l 229 851 q 172 781 214 811 q 82 750 129 750 l 49 750 l 86 921 l 49 1092 l 82 1092 q 171 1062 129 1092 q 229 990 214 1032 l 675 990 q 732 1062 690 1031 q 822 1092 775 1092 l 856 1092 l 818 921 l 856 750 l 822 750 q 732 781 775 750 q 675 851 689 811 l 554 851 l 554 725 q 713 620 659 694 q 785 410 768 545 l 1068 410 l 1117 143 l 1083 143 q 981 173 1023 143 q 925 254 939 203 l 791 254 l 791 0 l 586 0 l 586 183 z "},"ጚ":{"ha":1165,"x_min":49,"x_max":1117,"o":"m 586 183 q 567 449 586 376 q 503 556 547 522 q 375 590 458 590 l 359 590 q 294 510 338 541 q 201 479 251 479 l 168 479 l 216 746 l 349 746 l 349 851 l 229 851 q 172 781 214 811 q 82 750 129 750 l 49 750 l 86 921 l 49 1092 l 82 1092 q 171 1062 129 1092 q 229 990 214 1032 l 675 990 q 732 1062 690 1031 q 822 1092 775 1092 l 856 1092 l 818 921 l 856 750 l 822 750 q 732 781 775 750 q 675 851 689 811 l 554 851 l 554 725 q 734 586 677 689 q 791 275 791 484 l 791 155 l 936 155 q 991 218 949 193 q 1083 244 1034 244 l 1117 244 l 1079 78 l 1117 -89 l 1083 -89 q 991 -63 1034 -89 q 936 0 949 -37 l 586 0 l 586 183 z "},"ጛ":{"ha":904,"x_min":49,"x_max":856,"o":"m 790 350 q 755 143 790 217 q 645 34 721 68 q 436 0 569 0 l 359 0 q 302 -83 345 -54 q 201 -113 259 -113 l 168 -113 l 216 155 l 432 155 q 550 196 515 155 q 585 339 585 237 q 567 495 585 445 q 509 568 550 546 q 390 590 469 590 l 359 590 q 294 510 338 541 q 201 479 251 479 l 168 479 l 216 746 l 349 746 l 349 851 l 229 851 q 172 781 214 811 q 82 750 129 750 l 49 750 l 86 921 l 49 1092 l 82 1092 q 171 1062 129 1092 q 229 990 214 1032 l 675 990 q 732 1062 690 1031 q 822 1092 775 1092 l 856 1092 l 818 921 l 856 750 l 822 750 q 732 781 775 750 q 675 851 689 811 l 554 851 l 554 728 q 734 611 677 698 q 790 350 790 524 z "},"ጜ":{"ha":1211,"x_min":49,"x_max":1152,"o":"m 880 436 q 1082 382 1013 436 q 1152 228 1152 328 q 1069 61 1152 122 q 843 0 986 0 l 586 0 l 586 183 q 567 449 586 376 q 503 556 547 522 q 375 590 458 590 l 359 590 q 294 510 338 541 q 201 479 251 479 l 168 479 l 216 746 l 349 746 l 349 851 l 229 851 q 172 781 214 811 q 82 750 129 750 l 49 750 l 86 921 l 49 1092 l 82 1092 q 171 1062 129 1092 q 229 990 214 1032 l 675 990 q 732 1062 690 1031 q 822 1092 775 1092 l 856 1092 l 818 921 l 856 750 l 822 750 q 732 781 775 750 q 675 851 689 811 l 554 851 l 554 725 q 709 625 654 696 q 782 436 764 554 l 880 436 m 791 298 l 791 138 l 806 138 q 913 158 878 138 q 949 227 949 179 q 920 283 949 267 q 838 298 891 298 l 791 298 z "},"ጝ":{"ha":1089,"x_min":49,"x_max":974,"o":"m 558 538 q 493 393 558 441 q 302 345 428 345 q 114 394 180 345 q 49 538 49 444 q 116 689 49 633 q 302 745 183 745 l 349 745 l 349 851 l 229 851 q 172 781 214 811 q 82 750 129 750 l 49 750 l 86 921 l 49 1092 l 82 1092 q 171 1062 129 1092 q 229 990 214 1032 l 675 990 q 732 1062 690 1031 q 822 1092 775 1092 l 856 1092 l 818 921 l 856 750 l 822 750 q 732 781 775 750 q 675 851 689 811 l 554 851 l 554 742 q 804 684 715 732 q 933 540 892 636 q 974 273 974 444 l 974 0 l 768 0 l 768 211 q 748 422 768 345 q 681 538 727 499 q 553 585 635 576 q 558 538 558 554 m 304 456 q 361 479 342 456 q 380 543 380 503 q 304 633 380 633 q 247 611 267 633 q 227 543 227 588 q 304 456 227 456 z "},"ጞ":{"ha":982,"x_min":49,"x_max":933,"o":"m 693 981 q 732 869 732 938 q 704 777 732 821 q 624 704 675 732 q 599 683 607 696 q 591 660 591 669 l 591 633 q 806 494 742 598 q 871 183 871 389 l 871 0 l 665 0 l 665 92 q 641 342 665 259 q 557 462 617 425 q 371 498 498 498 l 355 498 q 287 417 330 446 q 197 387 244 387 l 164 387 l 212 654 l 387 654 l 387 660 q 400 697 387 675 q 328 727 363 703 q 271 786 292 751 q 250 864 250 822 q 294 981 250 935 l 229 981 q 172 910 215 941 q 82 879 130 879 l 49 879 l 86 1039 l 49 1198 l 82 1198 q 172 1168 129 1198 q 229 1097 215 1137 l 753 1097 q 809 1167 765 1136 q 900 1198 852 1198 l 933 1198 l 896 1039 l 933 879 l 900 879 q 808 910 851 879 q 753 981 764 942 l 693 981 m 492 968 q 435 947 456 968 q 414 892 414 926 q 433 824 414 852 q 496 777 453 796 q 568 892 568 816 q 547 946 568 924 q 492 968 526 968 z "},"ጠ":{"ha":1506,"x_min":115,"x_max":1390,"o":"m 1185 0 l 1185 593 q 1135 780 1185 722 q 979 838 1084 838 q 912 829 947 838 q 856 810 876 821 l 856 0 l 650 0 l 650 838 q 455 806 526 838 q 352 709 384 774 q 321 498 321 643 l 321 0 l 115 0 l 115 504 q 171 780 115 671 q 340 940 227 888 q 642 991 454 991 l 856 991 l 856 928 q 946 975 892 958 q 1054 991 999 991 q 1301 900 1212 991 q 1390 640 1390 808 l 1390 0 l 1185 0 z "},"ጡ":{"ha":1715,"x_min":115,"x_max":1667,"o":"m 1185 0 l 1185 593 q 1135 780 1185 722 q 979 838 1084 838 q 912 829 947 838 q 856 810 876 821 l 856 0 l 650 0 l 650 838 q 459 808 533 838 q 353 714 386 778 q 321 515 321 650 l 321 0 l 115 0 l 115 504 q 171 780 115 671 q 340 940 227 888 q 642 991 454 991 l 856 991 l 856 928 q 946 975 892 958 q 1054 991 999 991 q 1301 900 1212 991 q 1390 640 1390 808 l 1390 570 l 1618 570 l 1667 302 l 1633 302 q 1531 333 1573 302 q 1475 414 1489 363 l 1390 414 l 1390 0 l 1185 0 z "},"ጢ":{"ha":1703,"x_min":115,"x_max":1654,"o":"m 1185 593 q 1135 780 1185 722 q 979 838 1084 838 q 912 829 947 838 q 856 810 876 821 l 856 0 l 650 0 l 650 838 q 450 806 519 838 q 351 704 381 775 q 321 498 321 633 l 321 0 l 115 0 l 115 504 q 170 777 115 669 q 339 938 224 885 q 642 991 453 991 l 856 991 l 856 928 q 946 975 892 958 q 1054 991 999 991 q 1301 900 1212 991 q 1390 640 1390 808 l 1390 155 l 1474 155 q 1528 218 1485 191 q 1621 244 1571 244 l 1654 244 l 1617 78 l 1654 -89 l 1621 -89 q 1528 -62 1570 -89 q 1474 0 1485 -36 l 1185 0 l 1185 593 z "},"ጣ":{"ha":1492,"x_min":102,"x_max":1377,"o":"m 1171 0 l 1171 593 q 1120 780 1171 723 q 965 838 1069 838 q 898 829 933 838 q 842 810 862 821 l 842 329 l 636 329 l 636 838 q 443 807 514 838 q 339 709 372 777 q 307 498 307 641 l 307 329 l 102 329 l 102 504 q 233 871 102 751 q 642 991 365 991 l 842 991 l 842 928 q 932 975 878 958 q 1040 991 985 991 q 1288 900 1198 991 q 1377 640 1377 808 l 1377 0 l 1171 0 z "},"ጤ":{"ha":1686,"x_min":115,"x_max":1626,"o":"m 1349 387 l 1396 387 q 1566 336 1505 387 q 1626 197 1626 285 q 1553 54 1626 108 q 1357 0 1480 0 l 1157 0 l 1157 593 q 1112 778 1157 718 q 972 838 1066 838 q 893 830 932 838 q 828 808 854 822 l 828 0 l 636 0 l 636 838 q 440 806 510 838 q 338 707 370 775 q 307 498 307 640 l 307 0 l 115 0 l 115 504 q 240 873 115 755 q 642 991 365 991 l 828 991 l 828 928 q 918 975 865 958 q 1026 991 971 991 q 1265 902 1181 991 q 1349 640 1349 813 l 1349 387 m 1349 275 l 1349 113 q 1431 136 1402 114 q 1461 200 1461 158 q 1367 275 1461 275 l 1349 275 z "},"ጥ":{"ha":1413,"x_min":102,"x_max":1311,"o":"m 1105 329 l 1105 593 q 1055 780 1105 723 q 900 838 1004 838 q 832 829 868 838 q 777 810 797 821 l 777 616 l 899 616 l 899 0 l 693 0 l 693 461 l 571 461 l 571 838 q 418 803 476 838 q 334 699 361 768 q 307 498 307 629 l 307 329 l 102 329 l 102 504 q 576 991 102 991 l 777 991 l 777 928 q 867 975 813 958 q 975 991 920 991 q 1222 900 1133 991 q 1311 640 1311 808 l 1311 329 l 1105 329 z "},"ጦ":{"ha":1492,"x_min":115,"x_max":1390,"o":"m 1185 329 l 1185 593 q 1135 780 1185 722 q 979 838 1084 838 q 912 829 947 838 q 856 810 876 821 l 856 329 l 650 329 l 650 838 q 454 807 525 838 q 352 710 384 776 q 321 498 321 644 l 321 0 l 115 0 l 115 504 q 240 873 115 755 q 642 991 365 991 l 856 991 l 856 928 q 946 975 892 958 q 1054 991 999 991 q 1301 900 1212 991 q 1390 640 1390 808 l 1390 329 l 1185 329 z "},"ጧ":{"ha":1689,"x_min":102,"x_max":1640,"o":"m 1171 155 l 1171 593 q 1120 780 1171 723 q 965 838 1069 838 q 898 829 933 838 q 842 810 862 821 l 842 329 l 636 329 l 636 838 q 437 807 505 838 q 338 706 368 776 q 307 498 307 636 l 307 329 l 102 329 l 102 504 q 234 871 102 751 q 642 991 366 991 l 842 991 l 842 928 q 932 975 878 958 q 1040 991 985 991 q 1288 900 1198 991 q 1377 640 1377 808 l 1377 155 l 1592 155 l 1640 -111 l 1607 -111 q 1505 -81 1547 -111 q 1449 0 1462 -51 l 1035 0 q 979 -81 1021 -51 q 876 -111 937 -111 l 843 -111 l 892 155 l 1171 155 z "},"ጨ":{"ha":1686,"x_min":115,"x_max":1626,"o":"m 115 504 q 169 776 115 668 q 335 938 222 884 q 642 991 448 991 l 828 991 l 828 928 q 918 975 865 958 q 1026 991 971 991 q 1265 902 1181 991 q 1349 640 1349 813 l 1349 387 l 1396 387 q 1566 336 1505 387 q 1626 197 1626 285 q 1553 54 1626 108 q 1357 0 1480 0 l 1157 0 l 1157 606 q 1112 785 1157 732 q 971 838 1066 838 q 892 830 931 838 q 828 808 853 822 l 828 387 l 875 387 q 1045 336 984 387 q 1105 197 1105 285 q 1033 54 1105 108 q 836 0 960 0 l 636 0 l 636 838 q 483 820 545 838 q 382 768 420 803 q 326 675 344 733 q 307 513 307 616 l 307 387 l 354 387 q 524 336 463 387 q 585 197 585 285 q 512 54 585 108 q 315 0 439 0 l 115 0 l 115 504 m 1349 275 l 1349 113 q 1431 136 1402 114 q 1461 200 1461 158 q 1367 275 1461 275 l 1349 275 m 307 275 l 307 113 q 390 136 360 114 q 419 200 419 158 q 325 275 419 275 l 307 275 m 828 275 l 828 113 q 910 136 881 114 q 940 200 940 158 q 846 275 940 275 l 828 275 z "},"ጩ":{"ha":1686,"x_min":115,"x_max":1626,"o":"m 828 991 l 828 928 q 918 975 865 958 q 1026 991 971 991 q 1235 929 1156 991 q 1339 747 1315 867 l 1558 747 l 1607 494 l 1573 494 q 1471 525 1513 494 q 1415 606 1429 555 l 1349 606 l 1349 387 l 1396 387 q 1566 336 1505 387 q 1626 197 1626 285 q 1553 54 1626 108 q 1357 0 1480 0 l 1157 0 l 1157 606 q 1112 781 1157 725 q 972 838 1067 838 q 893 830 932 838 q 828 808 854 822 l 828 387 l 875 387 q 1045 336 984 387 q 1105 197 1105 285 q 1033 54 1105 108 q 836 0 960 0 l 636 0 l 636 838 q 481 820 545 838 q 380 768 418 802 q 325 675 342 734 q 307 498 307 617 l 307 387 l 354 387 q 524 336 463 387 q 585 197 585 285 q 512 54 585 108 q 315 0 439 0 l 115 0 l 115 504 q 240 873 115 755 q 642 991 365 991 l 828 991 m 1349 275 l 1349 113 q 1431 136 1402 114 q 1461 200 1461 158 q 1367 275 1461 275 l 1349 275 m 307 275 l 307 113 q 390 136 360 114 q 419 200 419 158 q 325 275 419 275 l 307 275 m 828 275 l 828 113 q 910 136 881 114 q 940 200 940 158 q 846 275 940 275 l 828 275 z "},"ጪ":{"ha":1661,"x_min":115,"x_max":1613,"o":"m 636 838 q 441 807 512 838 q 339 712 370 777 q 307 513 307 647 l 307 387 l 354 387 q 524 336 463 387 q 585 197 585 285 q 512 54 585 108 q 315 0 439 0 l 115 0 l 115 504 q 170 778 115 669 q 337 939 224 886 q 642 991 451 991 l 828 991 l 828 928 q 918 975 865 958 q 1026 991 971 991 q 1265 902 1181 991 q 1349 640 1349 813 l 1349 155 l 1432 155 q 1488 218 1445 193 q 1579 244 1531 244 l 1613 244 l 1575 78 l 1613 -89 l 1579 -89 q 1488 -63 1530 -89 q 1432 0 1445 -37 l 1157 0 l 1157 606 q 1112 781 1157 724 q 972 838 1067 838 q 828 810 881 838 l 828 387 l 875 387 q 1045 336 984 387 q 1105 197 1105 285 q 1033 54 1105 108 q 836 0 960 0 l 636 0 l 636 838 m 828 275 l 828 113 q 910 136 881 114 q 940 200 940 158 q 846 275 940 275 l 828 275 m 307 275 l 307 113 q 390 136 360 114 q 419 200 419 158 q 325 275 419 275 l 307 275 z "},"ጫ":{"ha":1672,"x_min":102,"x_max":1613,"o":"m 102 504 q 227 875 102 758 q 628 991 353 991 l 814 991 l 814 928 q 904 975 850 958 q 1013 991 958 991 q 1253 901 1171 991 q 1335 640 1335 810 l 1335 387 l 1382 387 q 1552 336 1491 387 q 1613 197 1613 285 q 1540 54 1613 108 q 1343 0 1467 0 l 1143 0 l 1143 607 q 1098 791 1143 731 q 958 851 1053 851 q 814 810 892 851 l 814 686 l 861 686 q 1030 635 968 686 q 1092 496 1092 585 q 1019 352 1092 406 q 822 298 946 298 l 623 298 l 623 851 q 314 686 382 851 l 340 686 q 509 635 448 686 q 571 496 571 585 q 498 352 571 406 q 301 298 425 298 l 102 298 l 102 504 m 814 574 l 814 411 q 897 435 867 412 q 926 498 926 457 q 832 574 926 574 l 814 574 m 1335 275 l 1335 113 q 1417 136 1388 114 q 1447 200 1447 159 q 1353 275 1447 275 l 1335 275 m 296 574 q 293 513 293 553 l 293 411 q 376 435 346 412 q 406 498 406 457 q 311 574 406 574 l 296 574 z "},"ጬ":{"ha":1927,"x_min":115,"x_max":1867,"o":"m 1157 606 q 1113 782 1157 727 q 972 838 1068 838 q 893 830 932 838 q 828 808 854 822 l 828 387 l 875 387 q 1045 336 984 387 q 1105 197 1105 285 q 1033 54 1105 108 q 836 0 960 0 l 636 0 l 636 838 q 442 807 513 838 q 339 711 371 777 q 307 514 307 646 l 307 387 l 354 387 q 524 336 463 387 q 585 197 585 285 q 512 54 585 108 q 315 0 439 0 l 115 0 l 115 504 q 172 783 115 675 q 341 942 229 891 q 642 993 454 993 l 828 993 l 828 929 q 918 976 865 959 q 1026 993 971 993 q 1227 936 1149 993 q 1333 766 1305 880 l 1645 766 q 1809 723 1752 766 q 1867 599 1867 680 q 1809 467 1867 515 q 1645 418 1750 418 q 1482 467 1541 418 q 1422 599 1422 517 q 1428 650 1422 630 l 1349 650 l 1349 387 l 1396 387 q 1566 336 1505 387 q 1626 197 1626 285 q 1553 54 1626 108 q 1357 0 1480 0 l 1157 0 l 1157 606 m 1645 669 q 1596 652 1613 669 q 1578 599 1578 634 q 1596 537 1578 559 q 1645 515 1614 515 q 1693 537 1674 515 q 1711 599 1711 559 q 1693 651 1711 633 q 1645 669 1675 669 m 1349 275 l 1349 113 q 1431 136 1402 114 q 1461 200 1461 158 q 1367 275 1461 275 l 1349 275 m 828 275 l 828 113 q 910 136 881 114 q 940 200 940 158 q 846 275 940 275 l 828 275 m 307 275 l 307 113 q 390 136 360 114 q 419 200 419 158 q 325 275 419 275 l 307 275 z "},"ጭ":{"ha":1758,"x_min":102,"x_max":1699,"o":"m 102 504 q 226 874 102 755 q 628 993 351 993 l 814 993 l 814 929 q 937 975 864 956 q 1074 993 1009 993 q 1323 916 1234 993 q 1422 686 1412 839 l 1468 686 q 1635 635 1571 686 q 1699 496 1699 583 q 1626 352 1699 406 q 1429 298 1553 298 l 1229 298 l 1229 606 q 1179 795 1229 739 q 1025 851 1129 851 q 917 838 979 851 q 814 810 854 825 l 814 616 l 935 616 l 935 387 l 982 387 q 1152 336 1091 387 q 1213 197 1213 285 q 1140 54 1213 108 q 943 0 1067 0 l 743 0 l 743 461 l 623 461 l 623 851 q 313 686 380 851 l 340 686 q 509 635 448 686 q 571 496 571 585 q 498 352 571 406 q 301 298 425 298 l 102 298 l 102 504 m 935 275 l 935 113 q 1017 136 987 114 q 1047 200 1047 159 q 953 275 1047 275 l 935 275 m 296 574 q 293 513 293 553 l 293 411 q 376 435 346 412 q 406 498 406 457 q 311 574 406 574 l 296 574 m 1422 574 l 1421 411 q 1503 435 1474 412 q 1533 498 1533 457 q 1439 574 1533 574 l 1422 574 z "},"ጮ":{"ha":1686,"x_min":115,"x_max":1626,"o":"m 115 504 q 169 774 115 666 q 337 938 223 883 q 642 993 451 993 l 828 993 l 828 929 q 918 976 865 959 q 1026 993 971 993 q 1253 914 1170 993 q 1348 686 1336 836 l 1396 686 q 1565 635 1503 686 q 1626 496 1626 585 q 1553 352 1626 406 q 1357 298 1480 298 l 1157 298 l 1157 607 q 1112 791 1157 730 q 972 851 1067 851 q 828 810 907 851 l 828 686 l 875 686 q 1044 635 982 686 q 1105 496 1105 585 q 1033 352 1105 406 q 836 298 960 298 l 636 298 l 636 851 q 445 817 517 851 q 340 711 373 782 q 307 513 307 641 l 307 387 l 354 387 q 524 336 463 387 q 585 197 585 285 q 512 54 585 108 q 315 0 439 0 l 115 0 l 115 504 m 1349 574 l 1349 411 q 1431 434 1402 412 q 1461 498 1461 456 q 1367 574 1461 574 l 1349 574 m 307 275 l 307 113 q 390 136 360 114 q 419 200 419 158 q 325 275 419 275 l 307 275 m 828 574 l 828 411 q 910 434 881 412 q 940 498 940 456 q 846 574 940 574 l 828 574 z "},"ጯ":{"ha":1672,"x_min":102,"x_max":1640,"o":"m 1377 155 l 1592 155 l 1640 -111 l 1607 -111 q 1505 -81 1547 -111 q 1449 0 1462 -51 l 1048 0 q 993 -81 1035 -51 q 890 -111 951 -111 l 857 -111 l 905 155 l 1185 155 l 1185 607 q 1138 793 1185 734 q 987 851 1091 851 q 828 810 907 851 l 828 686 l 875 686 q 1044 635 982 686 q 1105 496 1105 585 q 1033 352 1105 406 q 836 298 960 298 l 636 298 l 636 851 q 428 809 511 851 q 313 686 345 766 l 340 686 q 509 635 448 686 q 571 496 571 585 q 498 352 571 406 q 301 298 425 298 l 102 298 l 102 504 q 158 784 102 677 q 330 942 214 892 q 642 993 446 993 l 828 993 l 828 929 q 922 976 865 958 q 1046 993 980 993 q 1292 904 1207 993 q 1377 640 1377 814 l 1377 155 m 828 574 l 828 411 q 910 434 881 412 q 940 498 940 456 q 846 574 940 574 l 828 574 m 296 574 q 293 513 293 553 l 293 411 q 376 435 346 412 q 406 498 406 457 q 311 574 406 574 l 296 574 z "},"ጰ":{"ha":863,"x_min":60,"x_max":789,"o":"m 435 754 q 367 728 389 754 q 345 660 345 703 q 366 583 345 620 q 424 533 388 547 q 514 668 514 570 q 494 729 514 705 q 435 754 473 754 m 418 339 q 336 275 366 314 q 289 180 305 237 q 264 0 273 123 l 60 0 q 92 215 66 134 q 165 356 117 296 q 293 460 214 416 q 185 545 224 488 q 146 672 146 601 q 191 812 146 754 q 318 895 237 871 l 318 1055 l 524 1055 l 524 900 q 666 820 616 880 q 717 668 717 759 q 680 536 717 594 q 555 421 644 477 q 729 295 669 382 q 789 71 789 207 l 789 0 l 583 0 l 583 28 q 543 242 583 168 q 418 339 503 317 z "},"ጱ":{"ha":1152,"x_min":60,"x_max":1103,"o":"m 418 339 q 336 275 366 314 q 289 180 305 237 q 264 0 273 123 l 60 0 q 92 215 66 134 q 165 356 117 296 q 293 460 214 416 q 185 545 224 488 q 146 672 146 601 q 191 812 146 754 q 318 895 237 871 l 318 1055 l 524 1055 l 524 900 q 666 820 616 880 q 717 668 717 759 q 680 536 717 594 q 555 421 644 477 q 676 353 626 395 l 1054 353 l 1103 86 l 1069 86 q 967 116 1009 86 q 911 197 924 146 l 772 197 q 789 71 789 141 l 789 0 l 583 0 l 583 28 q 543 242 583 168 q 418 339 503 317 m 435 754 q 367 728 389 754 q 345 660 345 703 q 366 583 345 620 q 424 533 388 547 q 514 668 514 570 q 494 729 514 705 q 435 754 473 754 z "},"ጲ":{"ha":1152,"x_min":60,"x_max":1103,"o":"m 418 339 q 336 275 366 314 q 289 180 305 237 q 264 0 273 123 l 60 0 q 92 215 66 134 q 165 356 117 296 q 293 460 214 416 q 185 545 224 488 q 146 672 146 601 q 191 812 146 754 q 318 895 237 871 l 318 1055 l 524 1055 l 524 900 q 666 820 616 880 q 717 668 717 759 q 680 536 717 594 q 555 421 644 477 q 782 155 749 352 l 922 155 q 977 218 934 191 q 1069 244 1020 244 l 1103 244 l 1065 78 l 1103 -89 l 1069 -89 q 976 -62 1019 -89 q 922 0 934 -36 l 583 0 l 583 28 q 543 242 583 168 q 418 339 503 317 m 435 754 q 367 728 389 754 q 345 660 345 703 q 366 583 345 620 q 424 533 388 547 q 514 668 514 570 q 494 729 514 705 q 435 754 473 754 z "},"ጳ":{"ha":863,"x_min":60,"x_max":789,"o":"m 435 754 q 367 728 389 754 q 345 660 345 703 q 366 583 345 620 q 424 533 388 547 q 514 668 514 570 q 494 729 514 705 q 435 754 473 754 m 418 339 q 346 287 377 319 q 292 216 314 255 q 264 140 271 176 l 60 140 q 153 340 95 264 q 293 460 212 416 q 185 545 224 488 q 146 672 146 601 q 191 812 146 754 q 318 895 237 871 l 318 1055 l 524 1055 l 524 900 q 666 820 616 880 q 717 668 717 759 q 680 536 717 594 q 555 421 644 477 q 729 295 669 382 q 789 71 789 207 l 789 0 l 583 0 l 583 28 q 543 242 583 168 q 418 339 503 317 z "},"ጴ":{"ha":1125,"x_min":60,"x_max":1076,"o":"m 418 339 q 337 279 368 317 q 290 183 307 241 q 264 0 273 125 l 60 0 q 92 215 66 134 q 165 356 117 296 q 293 460 214 416 q 185 545 224 488 q 146 672 146 601 q 191 812 146 754 q 318 895 237 871 l 318 1055 l 524 1055 l 524 900 q 666 820 616 880 q 717 668 717 759 q 680 536 717 594 q 555 421 644 477 q 624 375 591 405 q 673 314 656 345 q 838 375 734 375 q 1014 324 951 375 q 1076 182 1076 273 q 1009 30 1076 85 q 822 -25 941 -25 q 571 139 643 -25 q 517 249 534 222 q 476 298 500 275 q 418 339 453 320 m 822 264 q 765 242 786 264 q 745 182 745 221 q 765 113 745 139 q 822 86 785 86 q 878 113 858 86 q 899 182 899 140 q 879 242 899 220 q 822 264 859 264 m 435 754 q 367 728 389 754 q 345 660 345 703 q 366 583 345 620 q 424 533 388 547 q 514 668 514 570 q 494 729 514 705 q 435 754 473 754 z "},"ጵ":{"ha":1040,"x_min":60,"x_max":991,"o":"m 418 339 q 336 275 366 314 q 289 180 305 237 q 264 0 273 123 l 60 0 q 92 215 66 134 q 165 356 117 296 q 293 460 214 416 q 185 545 224 488 q 146 672 146 601 q 191 812 146 754 q 318 895 237 871 l 318 1055 l 524 1055 l 524 900 q 645 841 600 883 q 707 742 690 800 l 943 742 l 991 475 l 958 475 q 856 505 897 475 q 800 586 814 535 l 704 586 q 555 421 673 494 q 729 295 669 382 q 789 71 789 207 l 789 0 l 583 0 l 583 28 q 543 242 583 168 q 418 339 503 317 m 435 754 q 367 728 389 754 q 345 660 345 703 q 366 583 345 620 q 424 533 388 547 q 514 668 514 570 q 494 729 514 705 q 435 754 473 754 z "},"ጶ":{"ha":863,"x_min":60,"x_max":789,"o":"m 435 754 q 367 728 389 754 q 345 660 345 703 q 366 583 345 620 q 424 533 388 547 q 514 668 514 570 q 494 729 514 705 q 435 754 473 754 m 575 151 q 518 279 553 239 q 418 339 484 319 q 336 275 366 314 q 289 180 305 237 q 264 0 273 123 l 60 0 q 92 215 66 134 q 165 356 117 296 q 293 460 214 416 q 185 545 224 488 q 146 672 146 601 q 191 812 146 754 q 318 895 237 871 l 318 1055 l 524 1055 l 524 900 q 666 820 616 880 q 717 668 717 759 q 680 536 717 594 q 555 421 644 477 q 714 315 656 385 q 789 151 772 245 l 575 151 z "},"ጷ":{"ha":1075,"x_min":60,"x_max":1026,"o":"m 435 789 q 367 763 389 789 q 345 694 345 737 q 367 617 345 654 q 424 568 389 580 q 514 703 514 606 q 494 764 514 739 q 435 789 473 789 m 978 155 l 1026 -111 l 993 -111 q 890 -81 932 -111 q 835 0 848 -51 l 511 0 q 455 -81 498 -51 q 353 -111 413 -111 l 319 -111 l 368 155 l 576 155 q 528 303 568 250 q 418 374 488 355 q 317 296 357 344 q 264 175 278 248 l 60 175 q 153 375 95 298 q 293 494 212 451 q 185 579 224 523 q 146 707 146 635 q 191 847 146 789 q 318 929 237 905 l 318 1090 l 524 1090 l 524 935 q 666 854 616 915 q 717 703 717 793 q 680 570 717 629 q 555 456 644 512 q 717 346 660 419 q 787 155 774 272 l 978 155 z "},"ጸ":{"ha":904,"x_min":60,"x_max":831,"o":"m 468 840 q 400 811 422 840 q 378 733 378 783 q 400 646 378 688 q 457 591 422 604 q 547 743 547 633 q 527 813 547 785 q 468 840 507 840 m 446 389 q 315 248 361 347 q 264 0 270 149 l 60 0 q 97 230 68 140 q 181 391 126 321 q 321 510 235 460 q 212 604 249 545 q 175 742 175 664 q 252 927 175 859 q 458 996 328 996 q 674 929 598 996 q 750 736 750 862 q 714 592 750 653 q 583 471 677 531 q 772 319 713 423 q 831 36 831 216 l 831 0 l 625 0 l 625 26 q 446 389 625 344 z "},"ጹ":{"ha":1137,"x_min":60,"x_max":1089,"o":"m 446 389 q 315 248 361 347 q 264 0 270 149 l 60 0 q 97 230 68 140 q 181 391 126 321 q 321 510 235 460 q 212 604 249 545 q 175 742 175 664 q 252 927 175 859 q 458 996 328 996 q 674 929 598 996 q 750 736 750 862 q 714 592 750 653 q 583 471 677 531 q 743 363 686 433 l 1040 363 l 1089 96 l 1055 96 q 953 126 995 96 q 897 207 911 156 l 814 207 q 831 36 831 133 l 831 0 l 625 0 l 625 26 q 446 389 625 344 m 468 840 q 400 811 422 840 q 378 733 378 783 q 400 646 378 688 q 457 591 422 604 q 547 743 547 633 q 527 813 547 785 q 468 840 507 840 z "},"ጺ":{"ha":1193,"x_min":60,"x_max":1145,"o":"m 446 389 q 315 248 361 347 q 264 0 270 149 l 60 0 q 97 230 68 140 q 181 391 126 321 q 321 510 235 460 q 212 604 249 545 q 175 742 175 664 q 252 927 175 859 q 458 996 328 996 q 674 929 598 996 q 750 736 750 862 q 714 592 750 653 q 583 471 677 531 q 748 355 690 432 q 822 155 806 278 l 964 155 q 1019 218 977 193 q 1111 244 1061 244 l 1145 244 l 1107 78 l 1145 -89 l 1111 -89 q 1019 -63 1061 -89 q 964 0 977 -37 l 625 0 l 625 26 q 446 389 625 344 m 468 840 q 400 811 422 840 q 378 733 378 783 q 400 646 378 688 q 457 591 422 604 q 547 743 547 633 q 527 813 547 785 q 468 840 507 840 z "},"ጻ":{"ha":904,"x_min":60,"x_max":831,"o":"m 468 840 q 400 811 422 840 q 378 733 378 783 q 400 646 378 688 q 457 591 422 604 q 547 743 547 633 q 527 813 547 785 q 468 840 507 840 m 60 165 q 153 362 82 268 q 321 510 224 457 q 212 604 249 545 q 175 742 175 664 q 252 927 175 859 q 458 996 328 996 q 674 931 599 996 q 750 743 750 866 q 712 591 750 656 q 583 471 673 525 q 771 319 711 425 q 831 36 831 213 l 831 0 l 625 0 l 625 26 q 446 389 625 344 q 334 295 389 359 q 264 165 280 231 l 60 165 z "},"ጼ":{"ha":1192,"x_min":60,"x_max":1132,"o":"m 878 264 q 821 242 842 264 q 800 182 800 221 q 821 113 800 139 q 878 86 841 86 q 934 113 913 86 q 954 182 954 140 q 934 242 954 220 q 878 264 914 264 m 468 840 q 400 811 422 840 q 378 733 378 783 q 400 646 378 688 q 457 591 422 604 q 547 743 547 633 q 527 813 547 785 q 468 840 507 840 m 583 471 q 677 411 639 444 q 745 325 715 377 q 890 375 802 375 q 1069 324 1006 375 q 1132 182 1132 273 q 1068 31 1132 86 q 893 -25 1004 -25 q 731 13 794 -25 q 627 139 668 51 q 550 286 572 253 q 503 346 529 319 q 446 389 477 372 q 315 248 361 347 q 264 0 270 149 l 60 0 q 97 230 68 140 q 181 391 126 321 q 321 510 235 460 q 212 604 249 545 q 175 742 175 664 q 252 927 175 859 q 458 996 328 996 q 674 931 599 996 q 750 743 750 866 q 733 636 750 682 q 684 551 717 589 q 583 471 650 513 z "},"ጽ":{"ha":1074,"x_min":60,"x_max":1025,"o":"m 446 389 q 315 248 361 347 q 264 0 270 149 l 60 0 q 97 230 68 140 q 181 391 126 321 q 321 510 235 460 q 212 604 249 545 q 175 742 175 664 q 252 927 175 859 q 458 996 328 996 q 650 947 576 996 q 743 804 723 898 l 977 804 l 1025 538 l 991 538 q 889 568 930 538 q 833 648 847 597 l 737 648 q 687 556 722 597 q 583 471 652 515 q 772 319 713 423 q 831 36 831 216 l 831 0 l 625 0 l 625 26 q 446 389 625 344 m 468 840 q 400 811 422 840 q 378 733 378 783 q 400 646 378 688 q 457 591 422 604 q 547 743 547 633 q 527 813 547 785 q 468 840 507 840 z "},"ጾ":{"ha":904,"x_min":60,"x_max":819,"o":"m 468 840 q 400 811 422 840 q 378 733 378 783 q 400 646 378 688 q 457 591 422 604 q 547 743 547 633 q 527 813 547 785 q 468 840 507 840 m 608 168 q 555 314 598 257 q 446 389 513 372 q 315 248 361 347 q 264 0 270 149 l 60 0 q 97 230 68 140 q 181 391 126 321 q 321 510 235 460 q 212 604 249 545 q 175 742 175 664 q 252 927 175 859 q 458 996 328 996 q 674 929 598 996 q 750 736 750 862 q 714 592 750 653 q 583 471 677 531 q 744 359 686 433 q 819 168 802 286 l 608 168 z "},"ጿ":{"ha":1133,"x_min":60,"x_max":1084,"o":"m 611 155 q 560 309 603 248 q 446 389 517 370 q 338 303 390 363 q 264 176 286 242 l 60 176 q 162 374 94 288 q 321 510 230 460 q 212 604 249 545 q 175 742 175 664 q 252 927 175 859 q 458 996 328 996 q 674 929 598 996 q 750 736 750 862 q 714 592 750 653 q 583 471 677 531 q 747 357 688 433 q 822 155 806 280 l 1036 155 l 1084 -111 l 1051 -111 q 949 -81 991 -111 q 893 0 907 -51 l 528 0 q 472 -81 514 -51 q 370 -111 431 -111 l 336 -111 l 385 155 l 611 155 m 468 840 q 400 811 422 840 q 378 733 378 783 q 400 646 378 688 q 457 591 422 604 q 547 743 547 633 q 527 813 547 785 q 468 840 507 840 z "},"ፀ":{"ha":871,"x_min":102,"x_max":770,"o":"m 770 351 q 683 81 770 175 q 432 -14 595 -14 q 186 81 270 -14 q 102 354 102 176 l 102 637 q 186 911 102 816 q 432 1006 271 1006 q 682 911 595 1006 q 770 640 770 816 l 770 351 m 564 456 l 307 456 l 307 347 q 339 202 307 248 q 437 157 371 157 q 532 202 501 157 q 564 349 564 248 l 564 456 m 307 583 l 564 583 l 564 642 q 533 788 564 743 q 437 833 503 833 q 339 788 372 833 q 307 643 307 743 l 307 583 z "},"ፁ":{"ha":1080,"x_min":102,"x_max":1032,"o":"m 770 583 l 983 583 l 1032 330 l 999 330 q 898 366 942 330 q 840 456 854 401 l 770 456 l 770 351 q 683 81 770 175 q 432 -14 595 -14 q 186 81 270 -14 q 102 354 102 176 l 102 637 q 186 911 102 816 q 432 1006 271 1006 q 682 911 595 1006 q 770 640 770 816 l 770 583 m 564 456 l 307 456 l 307 347 q 339 202 307 248 q 437 157 371 157 q 532 202 501 157 q 564 349 564 248 l 564 456 m 307 583 l 564 583 l 564 642 q 533 788 564 743 q 437 833 503 833 q 339 788 372 833 q 307 643 307 743 l 307 583 z "},"ፂ":{"ha":785,"x_min":74,"x_max":736,"o":"m 204 0 l 227 106 q 295 331 254 227 l 313 378 q 74 711 74 463 q 156 923 74 841 q 374 1006 239 1006 q 596 935 519 1006 q 672 732 672 865 q 650 613 672 675 q 578 466 628 551 q 488 294 521 366 q 440 155 456 222 l 555 155 q 611 218 569 193 q 703 244 653 244 l 736 244 l 699 78 l 736 -89 l 703 -89 q 611 -63 653 -89 q 555 0 569 -37 l 204 0 m 397 532 l 399 534 l 399 534 q 460 661 446 614 l 281 661 q 319 583 289 617 q 397 532 350 548 m 370 850 q 279 753 296 850 l 467 753 q 435 825 460 800 q 370 850 410 850 z "},"ፃ":{"ha":746,"x_min":74,"x_max":672,"o":"m 204 0 l 227 106 q 295 331 254 227 l 313 378 q 74 711 74 463 q 156 923 74 841 q 374 1006 239 1006 q 596 935 519 1006 q 672 732 672 865 q 650 612 672 675 q 572 455 627 549 q 482 278 515 355 q 433 123 449 200 l 410 0 l 204 0 m 397 532 l 399 534 l 399 534 q 460 661 446 614 l 281 661 q 319 583 289 617 q 397 532 350 548 m 370 850 q 279 753 296 850 l 467 753 q 435 825 460 800 q 370 850 410 850 z "},"ፄ":{"ha":861,"x_min":74,"x_max":802,"o":"m 204 0 l 227 106 q 295 331 254 227 l 313 378 q 74 711 74 463 q 156 923 74 841 q 374 1006 239 1006 q 596 935 519 1006 q 672 732 672 865 q 602 510 672 635 l 561 435 q 740 375 679 429 q 802 228 802 322 q 719 61 802 122 q 493 0 636 0 l 204 0 m 490 298 q 436 138 453 216 l 456 138 q 563 158 528 138 q 599 227 599 179 q 573 280 599 264 q 490 298 547 297 m 399 534 q 460 661 446 614 l 281 661 q 319 583 289 617 q 397 532 350 548 l 399 534 l 399 534 m 370 850 q 279 753 296 850 l 467 753 q 435 825 460 800 q 370 850 410 850 z "},"ፅ":{"ha":871,"x_min":102,"x_max":770,"o":"m 770 351 q 683 81 770 175 q 432 -14 595 -14 q 186 81 270 -14 q 102 354 102 176 l 102 515 q 161 754 102 663 q 335 872 220 846 l 335 1055 l 541 1055 l 541 871 q 711 751 652 842 q 770 518 770 660 l 770 351 m 564 382 l 307 382 l 307 347 q 339 202 307 248 q 437 157 371 157 q 532 202 501 157 q 564 349 564 248 l 564 382 m 307 510 l 564 510 l 564 519 q 533 666 564 621 q 437 711 503 711 q 339 666 372 711 q 307 521 307 621 l 307 510 z "},"ፆ":{"ha":800,"x_min":28,"x_max":726,"o":"m 28 0 q 76 211 50 133 q 144 345 102 289 q 269 457 187 401 q 156 563 196 492 q 115 728 115 633 q 198 929 115 854 q 418 1004 280 1004 q 644 931 562 1004 q 726 732 726 857 q 706 596 726 652 q 638 495 685 541 q 482 386 591 450 q 352 291 399 338 q 280 183 305 244 q 240 0 256 122 l 28 0 m 428 848 q 321 754 337 848 l 522 754 q 493 822 517 796 q 428 848 470 848 m 414 547 q 515 663 490 574 l 325 663 q 360 590 336 621 q 414 547 383 559 z "},"ፈ":{"ha":968,"x_min":74,"x_max":920,"o":"m 366 0 q 149 66 224 0 q 74 253 74 132 q 98 371 74 319 q 168 468 122 424 q 307 566 213 511 q 451 671 401 618 q 524 794 500 723 q 559 1004 549 866 l 764 1004 q 724 763 758 867 q 628 592 690 659 q 507 496 566 526 q 611 400 574 464 q 648 254 648 336 q 632 155 648 199 l 871 155 l 920 -111 l 886 -111 q 784 -81 826 -111 q 728 0 741 -51 l 366 0 m 355 155 q 424 184 401 155 q 446 262 446 214 q 423 350 446 308 q 367 404 400 391 q 277 253 277 364 q 298 182 277 209 q 355 155 319 155 z "},"ፉ":{"ha":1025,"x_min":74,"x_max":977,"o":"m 279 283 q 131 371 188 301 q 74 532 74 440 q 294 790 74 739 q 466 889 397 815 q 545 1057 536 964 l 749 1057 q 719 932 745 985 q 647 838 692 879 q 521 757 602 797 q 613 675 578 732 q 648 547 648 618 q 628 431 648 481 l 928 431 l 977 164 l 943 164 q 841 194 883 164 q 785 275 798 224 l 513 275 q 335 0 378 172 l 131 0 q 189 165 151 92 q 279 283 228 238 m 277 534 q 299 456 277 484 q 364 429 322 429 q 446 542 446 429 q 424 613 446 587 q 363 639 402 639 q 299 613 322 639 q 277 534 277 587 z "},"ፊ":{"ha":1059,"x_min":74,"x_max":999,"o":"m 366 0 q 149 66 224 0 q 74 253 74 132 q 98 371 74 319 q 168 468 122 424 q 307 566 213 511 q 451 671 401 618 q 524 794 500 723 q 559 1004 549 866 l 764 1004 q 724 763 758 867 q 628 592 690 659 q 507 496 566 526 q 611 400 574 464 q 648 254 648 336 q 632 155 648 199 l 652 155 q 756 198 721 155 q 791 323 791 241 l 791 407 l 999 407 l 999 335 q 652 0 999 0 l 366 0 m 355 155 q 424 184 401 155 q 446 262 446 214 q 423 350 446 308 q 367 404 400 391 q 277 253 277 364 q 298 182 277 209 q 355 155 319 155 z "},"ፋ":{"ha":1023,"x_min":74,"x_max":975,"o":"m 652 429 l 926 429 l 975 163 l 942 163 q 839 193 882 163 q 783 273 797 222 l 652 273 l 652 0 l 446 0 l 446 273 l 376 273 q 154 341 235 273 q 74 532 74 410 q 128 700 74 633 q 289 789 182 766 q 415 842 359 804 q 505 938 471 881 q 545 1057 538 994 l 749 1057 q 719 932 745 985 q 647 838 692 879 q 521 757 602 797 q 618 668 584 730 q 652 517 652 606 l 652 429 m 277 534 q 306 453 277 477 q 395 429 335 429 l 446 429 l 446 519 q 363 639 446 639 q 299 613 322 639 q 277 534 277 587 z "},"ፌ":{"ha":1258,"x_min":74,"x_max":1210,"o":"m 700 207 q 764 351 700 301 q 956 400 829 400 q 1144 350 1079 400 q 1210 207 1210 299 q 1142 55 1210 111 q 956 0 1074 0 q 754 69 822 0 l 572 69 q 366 0 496 0 q 149 66 224 0 q 74 253 74 132 q 98 371 74 319 q 168 468 122 424 q 307 566 213 511 q 451 671 401 618 q 524 794 500 723 q 559 1004 549 866 l 764 1004 q 724 763 758 867 q 628 592 690 659 q 507 496 566 526 q 611 400 574 464 q 648 254 648 336 q 640 186 648 217 l 700 186 l 700 207 m 355 155 q 424 184 401 155 q 446 262 446 214 q 423 350 446 308 q 367 404 400 391 q 277 253 277 364 q 298 182 277 209 q 355 155 319 155 m 956 289 q 898 267 919 289 q 878 207 878 245 q 899 138 878 164 q 956 111 920 111 q 1012 138 991 111 q 1032 207 1032 165 q 1012 267 1032 245 q 956 289 992 289 z "},"ፍ":{"ha":1000,"x_min":87,"x_max":951,"o":"m 476 224 l 441 224 q 172 308 256 224 q 87 575 87 391 q 140 802 87 709 q 291 944 193 896 q 526 991 390 991 l 854 991 l 903 725 l 869 725 q 766 756 808 725 q 711 838 723 787 l 553 838 q 415 814 469 838 q 332 745 361 791 q 584 645 499 734 q 681 378 669 556 l 903 378 l 951 111 l 918 111 q 817 141 860 111 q 760 224 773 171 l 682 224 l 682 0 l 476 0 l 476 224 m 293 562 q 327 419 293 461 q 446 378 361 378 l 476 378 l 476 397 q 433 539 476 488 q 306 590 389 590 l 293 590 l 293 562 z "},"ፎ":{"ha":1131,"x_min":115,"x_max":1082,"o":"m 1034 155 l 1082 -111 l 1048 -111 q 946 -81 987 -111 q 890 0 904 -51 l 115 0 l 115 449 q 275 859 115 726 q 783 991 435 991 l 827 991 q 1013 936 945 991 q 1080 785 1080 880 q 1015 641 1080 691 q 827 591 949 591 q 636 640 702 591 q 571 785 571 688 q 579 844 571 816 q 382 729 444 825 q 321 441 321 633 l 321 436 l 410 436 q 611 382 542 436 q 681 228 681 328 q 668 155 681 191 l 1034 155 m 827 703 q 883 725 863 703 q 903 790 903 747 q 827 880 903 880 q 768 857 788 880 q 749 790 749 833 q 769 726 749 749 q 827 703 789 703 m 321 298 l 321 138 l 335 138 q 443 158 407 138 q 478 227 478 179 q 449 283 478 267 q 367 298 420 298 l 321 298 z "},"ፏ":{"ha":1055,"x_min":60,"x_max":1007,"o":"m 463 155 l 463 323 l 390 323 q 138 370 217 323 q 60 521 60 416 q 110 666 60 610 q 278 771 161 723 q 404 859 361 806 q 446 991 446 913 l 653 991 q 558 739 653 832 q 643 656 618 713 q 668 505 668 600 l 668 479 l 958 479 l 1007 212 l 974 212 q 871 242 913 212 q 815 323 829 273 l 668 323 l 668 155 l 958 155 l 1007 -111 l 974 -111 q 871 -81 913 -111 q 815 0 829 -51 l 267 0 q 211 -81 253 -51 q 109 -111 170 -111 l 75 -111 l 123 155 l 463 155 m 463 526 q 445 609 463 583 q 396 643 428 635 q 316 606 345 623 q 276 573 288 589 q 264 533 264 557 q 294 492 264 505 q 390 479 324 479 l 463 479 l 463 526 z "},"ፐ":{"ha":1039,"x_min":62,"x_max":977,"o":"m 928 991 l 977 725 l 943 725 q 841 755 883 725 q 785 836 798 785 l 623 836 l 623 0 l 416 0 l 416 836 l 254 836 q 198 755 241 785 q 96 725 156 725 l 62 725 l 111 991 l 928 991 z "},"ፑ":{"ha":1039,"x_min":62,"x_max":977,"o":"m 623 538 l 848 538 l 897 271 l 864 271 q 761 301 804 271 q 705 382 719 331 l 623 382 l 623 0 l 416 0 l 416 836 l 254 836 q 198 755 241 785 q 96 725 156 725 l 62 725 l 111 991 l 928 991 l 977 725 l 943 725 q 841 755 883 725 q 785 836 798 785 l 623 836 l 623 538 z "},"ፒ":{"ha":1039,"x_min":62,"x_max":977,"o":"m 928 991 l 977 725 l 943 725 q 841 755 883 725 q 785 836 798 785 l 623 836 l 623 155 l 705 155 q 761 218 719 193 q 852 244 803 244 l 886 244 l 848 78 l 886 -89 l 852 -89 q 761 -63 803 -89 q 705 0 719 -37 l 416 0 l 416 836 l 254 836 q 198 755 241 785 q 96 725 156 725 l 62 725 l 111 991 l 928 991 z "},"ፓ":{"ha":1039,"x_min":62,"x_max":977,"o":"m 928 991 l 977 725 l 943 725 q 841 755 883 725 q 785 836 798 785 l 623 836 l 623 346 q 588 142 623 216 q 479 34 554 68 q 269 0 405 0 l 254 0 q 198 -81 241 -51 q 96 -111 156 -111 l 62 -111 l 111 155 l 267 155 q 383 196 350 155 q 416 334 416 237 l 416 836 l 254 836 q 198 755 241 785 q 96 725 156 725 l 62 725 l 111 991 l 928 991 z "},"ፔ":{"ha":1044,"x_min":62,"x_max":982,"o":"m 928 991 l 977 725 l 943 725 q 841 755 883 725 q 785 836 798 785 l 623 836 l 623 436 l 711 436 q 913 382 844 436 q 982 228 982 328 q 899 61 982 122 q 673 0 817 0 l 416 0 l 416 836 l 254 836 q 198 755 241 785 q 96 725 156 725 l 62 725 l 111 991 l 928 991 m 623 298 l 623 138 l 636 138 q 744 158 708 138 q 779 227 779 179 q 750 283 779 267 q 668 298 722 298 l 623 298 z "},"ፕ":{"ha":1039,"x_min":62,"x_max":977,"o":"m 928 991 l 977 725 l 943 725 q 841 755 883 725 q 785 836 798 785 l 615 836 l 615 623 l 737 623 l 737 0 l 532 0 l 532 467 l 410 467 l 410 836 l 254 836 q 198 755 241 785 q 96 725 156 725 l 62 725 l 111 991 l 928 991 z "},"ፖ":{"ha":1054,"x_min":62,"x_max":991,"o":"m 943 991 l 991 725 l 958 725 q 856 755 897 725 q 800 836 814 785 l 650 836 q 596 619 642 714 q 450 431 551 524 q 312 261 357 346 q 267 82 267 176 l 267 0 l 62 0 l 62 82 q 118 323 62 214 q 325 579 174 432 q 410 697 382 635 q 441 836 437 759 l 269 836 q 214 755 256 785 q 111 725 172 725 l 78 725 l 126 991 l 943 991 z "},"ፗ":{"ha":1039,"x_min":62,"x_max":977,"o":"m 928 991 l 977 725 l 943 725 q 841 755 883 725 q 785 836 798 785 l 623 836 l 623 155 l 842 155 l 890 -111 l 857 -111 q 754 -81 797 -111 q 699 0 712 -51 l 340 0 q 284 -81 327 -51 q 182 -111 242 -111 l 149 -111 l 197 155 l 416 155 l 416 836 l 254 836 q 198 755 241 785 q 96 725 156 725 l 62 725 l 111 991 l 928 991 z "},"ፘ":{"ha":977,"x_min":74,"x_max":928,"o":"m 407 -14 q 159 60 244 -14 q 74 272 74 134 q 99 388 74 334 q 175 496 123 442 q 334 631 227 551 q 444 785 418 694 l 220 785 l 171 1051 l 204 1051 q 307 1021 264 1051 q 363 940 349 991 l 736 940 q 792 1021 749 991 q 895 1051 834 1051 l 928 1051 l 879 785 l 654 785 q 460 500 614 608 q 323 383 367 435 q 279 272 279 330 q 314 178 279 214 q 407 142 349 142 q 512 185 476 142 q 547 310 547 228 l 547 372 l 754 372 l 754 321 q 407 -14 754 -14 z "},"ፙ":{"ha":1629,"x_min":74,"x_max":1581,"o":"m 1082 261 l 1039 261 q 808 469 808 261 l 808 494 l 810 517 l 818 623 l 689 623 l 689 279 q 542 191 619 224 q 370 158 464 158 q 150 231 226 158 q 74 441 74 304 q 124 616 74 540 q 269 733 175 692 q 484 775 363 775 l 644 775 l 644 863 l 347 863 l 298 1129 l 332 1129 q 434 1099 392 1129 q 490 1018 477 1069 l 1004 1018 q 1060 1099 1018 1069 q 1162 1129 1101 1129 l 1196 1129 l 1147 863 l 850 863 l 850 775 l 1137 775 q 1336 730 1274 775 q 1397 578 1397 684 q 1390 518 1397 550 q 1369 447 1383 486 q 1246 155 1354 408 l 1400 155 q 1455 218 1413 193 q 1547 244 1497 244 l 1581 244 l 1543 78 l 1581 -89 l 1547 -89 q 1455 -63 1497 -89 q 1400 0 1413 -37 l 1015 0 l 1015 109 l 1082 261 m 374 314 q 484 335 439 314 l 484 623 q 331 575 385 621 q 278 439 278 529 q 305 344 278 374 q 374 314 332 314 m 1023 623 l 1013 529 l 1011 509 l 1011 492 q 1131 415 1011 415 l 1149 415 q 1188 520 1181 493 q 1196 562 1196 547 q 1118 623 1196 623 l 1023 623 z "},"ፚ":{"ha":1059,"x_min":74,"x_max":999,"o":"m 366 0 q 149 66 224 0 q 74 253 74 132 q 93 360 74 314 q 143 443 112 406 q 216 511 175 480 q 302 575 258 543 q 429 683 387 635 q 489 785 471 730 l 231 785 l 182 1051 l 215 1051 q 318 1021 275 1051 q 374 940 360 991 l 786 940 q 842 1021 800 991 q 945 1051 884 1051 l 978 1051 l 929 785 l 697 785 q 496 498 658 612 q 608 405 567 471 q 648 254 648 340 q 632 155 648 199 l 652 155 q 756 198 721 155 q 791 323 791 241 l 791 407 l 999 407 l 999 335 q 652 0 999 0 l 366 0 m 355 155 q 424 184 401 155 q 446 262 446 214 q 423 350 446 308 q 367 404 400 391 q 277 253 277 364 q 298 182 277 209 q 355 155 319 155 z "},"፡":{"ha":367,"x_min":60,"x_max":307,"o":"m 60 306 q 92 396 60 366 q 183 427 123 427 q 276 395 244 427 q 307 306 307 363 q 275 217 307 250 q 183 184 243 184 q 92 217 123 184 q 60 306 60 249 m 60 693 q 183 814 60 814 q 276 783 245 814 q 307 693 307 751 q 275 605 307 637 q 183 572 243 572 q 92 605 123 572 q 60 693 60 637 z "},"።":{"ha":760,"x_min":60,"x_max":700,"o":"m 60 306 q 92 396 60 366 q 183 427 123 427 q 276 395 244 427 q 307 306 307 363 q 275 217 307 250 q 183 184 243 184 q 92 217 123 184 q 60 306 60 249 m 60 693 q 183 814 60 814 q 276 783 245 814 q 307 693 307 751 q 275 605 307 637 q 183 572 243 572 q 92 605 123 572 q 60 693 60 637 m 453 306 q 485 396 453 366 q 576 427 517 427 q 668 395 636 427 q 700 306 700 364 q 668 217 700 250 q 576 184 635 184 q 485 217 517 184 q 453 306 453 249 m 453 693 q 576 814 453 814 q 669 782 638 814 q 700 693 700 751 q 668 605 700 637 q 576 572 636 572 q 485 605 517 572 q 453 693 453 637 z "},"፣":{"ha":542,"x_min":60,"x_max":482,"o":"m 60 765 l 60 939 l 482 939 l 482 765 l 60 765 m 147 236 q 179 326 147 296 q 271 357 211 357 q 363 325 332 357 q 395 236 395 294 q 362 147 395 179 q 271 115 330 115 q 179 146 212 115 q 147 236 147 178 m 147 561 q 271 682 147 682 q 364 651 333 682 q 395 561 395 620 q 363 473 395 505 q 271 440 331 440 q 179 472 211 440 q 147 561 147 505 z "},"፤":{"ha":542,"x_min":60,"x_max":482,"o":"m 482 174 l 482 0 l 60 0 l 60 174 l 482 174 m 395 675 q 362 585 395 615 q 271 554 330 554 q 179 585 211 554 q 147 675 147 616 q 179 764 147 731 q 271 796 212 796 q 362 764 330 796 q 395 675 395 732 m 395 364 q 271 243 395 243 q 178 274 209 243 q 147 364 147 306 q 179 452 147 420 q 271 485 211 485 q 362 453 330 485 q 395 364 395 421 m 60 865 l 60 1039 l 482 1039 l 482 865 l 60 865 z "},"፥":{"ha":542,"x_min":60,"x_max":482,"o":"m 482 586 l 482 412 l 60 412 l 60 586 l 482 586 m 395 208 q 362 118 395 149 q 271 87 330 87 q 179 119 211 87 q 147 208 147 150 q 180 297 147 265 q 271 329 212 329 q 362 298 329 329 q 395 208 395 267 m 395 777 q 271 656 395 656 q 178 687 209 656 q 147 777 147 719 q 179 865 147 832 q 271 897 211 897 q 362 865 330 897 q 395 777 395 833 z "},"፦":{"ha":850,"x_min":60,"x_max":790,"o":"m 790 586 l 790 412 l 368 412 l 368 586 l 790 586 m 60 306 q 92 396 60 366 q 183 427 123 427 q 276 395 244 427 q 307 306 307 363 q 275 217 307 250 q 183 184 243 184 q 92 217 123 184 q 60 306 60 249 m 60 693 q 183 814 60 814 q 276 783 245 814 q 307 693 307 751 q 275 605 307 637 q 183 572 243 572 q 92 605 123 572 q 60 693 60 637 z "},"፧":{"ha":367,"x_min":60,"x_max":307,"o":"m 60 174 q 183 294 60 294 q 276 263 245 294 q 307 174 307 232 q 275 85 307 118 q 183 53 243 53 q 92 85 123 53 q 60 174 60 117 m 60 823 q 91 914 60 883 q 183 945 123 945 q 276 913 244 945 q 307 823 307 882 q 275 734 307 766 q 183 703 242 703 q 92 734 124 703 q 60 823 60 765 m 60 498 q 183 619 60 619 q 276 588 245 619 q 307 498 307 557 q 275 410 307 441 q 183 378 242 378 q 92 409 124 378 q 60 498 60 440 z "},"፨":{"ha":956,"x_min":60,"x_max":896,"o":"m 60 345 q 92 435 60 404 q 183 465 123 465 q 276 434 244 465 q 307 345 307 402 q 275 256 307 288 q 183 224 242 224 q 92 255 124 224 q 60 345 60 286 m 60 669 q 183 790 60 790 q 276 759 245 790 q 307 669 307 728 q 275 581 307 614 q 183 549 243 549 q 92 581 123 549 q 60 669 60 613 m 354 174 q 478 294 354 294 q 571 263 540 294 q 602 174 602 231 q 570 85 602 118 q 478 53 538 53 q 387 85 419 53 q 354 174 354 117 m 354 823 q 386 914 354 884 q 478 945 418 945 q 570 913 538 945 q 602 823 602 882 q 569 734 602 766 q 478 703 536 703 q 387 734 420 703 q 354 823 354 765 m 354 498 q 478 619 354 619 q 571 588 540 619 q 602 498 602 556 q 569 410 602 441 q 478 378 536 378 q 387 409 420 378 q 354 498 354 440 m 648 345 q 681 435 648 404 q 772 465 713 465 q 864 434 832 465 q 896 345 896 403 q 863 256 896 288 q 772 224 831 224 q 681 255 714 224 q 648 345 648 286 m 648 669 q 772 790 648 790 q 865 759 834 790 q 896 669 896 727 q 864 581 896 614 q 772 549 832 549 q 681 581 713 549 q 648 669 648 612 z "},"፩":{"ha":854,"x_min":49,"x_max":806,"o":"m 757 93 l 806 -174 l 772 -174 q 670 -144 712 -174 q 614 -62 627 -114 l 240 -62 q 185 -144 227 -114 q 82 -174 143 -174 l 49 -174 l 97 93 l 757 93 m 757 1118 l 806 851 l 772 851 q 670 881 712 851 q 614 962 627 911 l 240 962 q 185 881 227 911 q 82 851 143 851 l 49 851 l 97 1118 l 757 1118 m 370 867 l 581 867 l 463 708 q 588 652 536 692 q 668 554 640 612 q 696 435 696 497 q 619 232 696 304 q 406 160 543 160 q 197 228 272 160 q 122 415 122 296 q 154 554 122 480 q 238 696 185 628 l 370 867 m 404 311 q 480 342 448 311 q 511 422 511 374 q 472 518 511 479 q 367 566 433 557 q 327 490 343 534 q 310 418 310 446 q 336 340 310 370 q 404 311 362 311 z "},"፪":{"ha":854,"x_min":49,"x_max":806,"o":"m 757 93 l 806 -174 l 772 -174 q 670 -144 712 -174 q 614 -62 627 -114 l 240 -62 q 185 -144 227 -114 q 82 -174 143 -174 l 49 -174 l 97 93 l 757 93 m 757 1118 l 806 851 l 772 851 q 670 881 712 851 q 614 962 627 911 l 240 962 q 185 881 227 911 q 82 851 143 851 l 49 851 l 97 1118 l 757 1118 m 441 758 q 386 735 413 758 q 343 665 358 711 q 388 637 362 648 q 435 627 413 627 q 494 642 471 627 q 518 689 518 657 q 495 739 518 720 q 441 758 473 758 m 441 281 q 484 326 484 281 q 472 355 484 344 q 436 367 460 367 q 397 360 416 367 q 367 340 378 353 q 441 281 397 281 m 134 526 q 215 781 134 688 q 439 875 296 875 q 570 850 514 875 q 656 783 625 826 q 686 689 686 741 q 634 556 686 604 q 490 509 581 509 q 326 542 399 509 q 323 494 323 525 q 335 436 323 467 q 452 468 374 468 q 589 430 541 468 q 637 319 637 393 q 584 204 637 245 q 435 163 530 163 q 216 263 299 163 q 134 526 134 364 z "},"፫":{"ha":854,"x_min":49,"x_max":806,"o":"m 354 160 l 149 160 l 149 386 q 188 632 149 538 q 307 768 227 725 q 532 811 387 811 l 665 811 l 713 545 l 679 545 q 521 656 557 545 q 421 629 457 656 q 370 543 385 602 q 354 351 354 484 l 354 160 m 757 93 l 806 -174 l 772 -174 q 670 -144 712 -174 q 614 -62 627 -114 l 240 -62 q 185 -144 227 -114 q 82 -174 143 -174 l 49 -174 l 97 93 l 757 93 m 757 1118 l 806 851 l 772 851 q 670 881 712 851 q 614 962 627 911 l 240 962 q 185 881 227 911 q 82 851 143 851 l 49 851 l 97 1118 l 757 1118 z "},"፬":{"ha":854,"x_min":49,"x_max":806,"o":"m 700 488 q 629 243 700 325 q 422 161 559 161 q 223 248 294 161 q 153 490 153 334 l 153 541 q 223 784 153 696 q 422 871 293 871 q 629 789 559 871 q 700 543 700 707 l 700 488 m 494 546 q 476 696 492 657 q 425 734 460 734 q 358 554 358 734 l 358 494 q 425 297 358 297 q 478 341 461 297 q 494 492 494 386 l 494 546 m 757 93 l 806 -174 l 772 -174 q 670 -144 712 -174 q 614 -62 627 -114 l 240 -62 q 185 -144 227 -114 q 82 -174 143 -174 l 49 -174 l 97 93 l 757 93 m 757 1118 l 806 851 l 772 851 q 670 881 712 851 q 614 962 627 911 l 240 962 q 185 881 227 911 q 82 851 143 851 l 49 851 l 97 1118 l 757 1118 z "},"፭":{"ha":854,"x_min":49,"x_max":806,"o":"m 407 235 q 157 279 237 235 q 77 422 77 323 q 95 510 77 472 q 155 583 114 548 q 289 671 196 618 q 344 715 325 690 q 371 771 363 740 q 379 889 379 803 l 586 889 q 574 766 586 829 l 757 766 l 806 514 l 772 514 q 614 611 640 514 l 500 611 q 424 553 468 574 q 301 487 322 505 q 281 441 281 469 q 312 397 281 410 q 407 383 342 383 l 625 383 q 677 437 635 416 q 772 458 719 458 l 806 458 l 768 310 l 806 160 l 772 160 q 677 181 720 160 q 625 235 635 202 l 407 235 m 757 93 l 806 -174 l 772 -174 q 670 -144 712 -174 q 614 -62 627 -114 l 240 -62 q 185 -144 227 -114 q 82 -174 143 -174 l 49 -174 l 97 93 l 757 93 m 757 1118 l 806 851 l 772 851 q 670 881 712 851 q 614 962 627 911 l 240 962 q 185 881 227 911 q 82 851 143 851 l 49 851 l 97 1118 l 757 1118 z "},"፮":{"ha":854,"x_min":49,"x_max":806,"o":"m 642 721 l 576 554 q 726 504 671 553 q 781 374 781 456 q 713 224 781 277 q 521 172 646 172 l 269 172 l 269 262 l 441 692 l 419 692 q 363 628 406 654 q 272 603 321 603 l 239 603 l 277 751 l 239 900 l 272 900 q 363 874 321 900 q 419 811 406 849 l 642 811 l 642 721 m 757 1118 l 806 851 l 772 851 q 670 881 712 851 q 614 962 627 911 l 240 962 q 185 881 227 911 q 82 851 143 851 l 49 851 l 97 1118 l 757 1118 m 757 93 l 806 -174 l 772 -174 q 670 -144 712 -174 q 614 -62 627 -114 l 240 -62 q 185 -144 227 -114 q 82 -174 143 -174 l 49 -174 l 97 93 l 757 93 m 528 433 l 469 290 l 498 290 q 611 370 611 290 q 534 433 611 433 l 528 433 z "},"፯":{"ha":854,"x_min":49,"x_max":806,"o":"m 397 689 q 387 722 397 710 q 345 734 376 734 l 336 734 q 281 657 321 686 q 179 628 241 628 l 146 628 l 195 852 l 382 852 q 549 820 496 852 q 602 705 602 787 q 551 514 602 631 l 482 354 l 558 354 q 614 417 572 391 q 705 443 656 443 l 739 443 l 701 294 l 739 146 l 705 146 q 614 172 656 146 q 558 235 572 197 l 250 235 l 250 326 l 353 550 q 397 689 397 649 m 757 1118 l 806 851 l 772 851 q 670 881 712 851 q 614 962 627 911 l 240 962 q 185 881 227 911 q 82 851 143 851 l 49 851 l 97 1118 l 757 1118 m 757 93 l 806 -174 l 772 -174 q 670 -144 712 -174 q 614 -62 627 -114 l 240 -62 q 185 -144 227 -114 q 82 -174 143 -174 l 49 -174 l 97 93 l 757 93 z "},"፰":{"ha":965,"x_min":49,"x_max":917,"o":"m 380 425 l 380 644 l 240 644 q 185 563 227 593 q 82 533 143 533 l 49 533 l 97 800 l 868 800 l 917 533 l 884 533 q 781 563 823 533 q 725 644 739 593 l 586 644 l 586 425 l 771 425 l 819 158 l 786 158 q 683 188 725 158 q 628 269 642 218 l 338 269 q 282 188 324 218 q 179 158 239 158 l 146 158 l 195 425 l 380 425 m 812 1118 l 861 851 l 828 851 q 725 881 768 851 q 669 962 683 911 l 296 962 q 240 881 282 911 q 138 851 199 851 l 104 851 l 153 1118 l 812 1118 m 812 93 l 861 -174 l 828 -174 q 725 -144 768 -174 q 669 -62 683 -114 l 296 -62 q 240 -144 282 -114 q 138 -174 199 -174 l 104 -174 l 153 93 l 812 93 z "},"፱":{"ha":854,"x_min":49,"x_max":806,"o":"m 686 819 l 686 404 q 427 154 686 154 q 235 217 300 154 q 170 407 170 281 l 170 819 l 370 819 l 370 693 l 486 693 l 486 819 l 686 819 m 429 318 q 472 344 458 318 q 486 431 486 370 l 486 589 l 370 589 l 370 425 q 386 346 370 373 q 429 318 401 318 m 757 93 l 806 -174 l 772 -174 q 670 -144 712 -174 q 614 -62 627 -114 l 240 -62 q 185 -144 227 -114 q 82 -174 143 -174 l 49 -174 l 97 93 l 757 93 m 757 1118 l 806 851 l 772 851 q 670 881 712 851 q 614 962 627 911 l 240 962 q 185 881 227 911 q 82 851 143 851 l 49 851 l 97 1118 l 757 1118 z "},"፲":{"ha":770,"x_min":49,"x_max":721,"o":"m 672 93 l 721 -174 l 688 -174 q 585 -144 627 -174 q 529 -62 543 -114 l 240 -62 q 185 -144 227 -114 q 82 -174 143 -174 l 49 -174 l 97 93 l 672 93 m 672 1118 l 721 851 l 688 851 q 585 881 627 851 q 529 962 543 911 l 240 962 q 185 881 227 911 q 82 851 143 851 l 49 851 l 97 1118 l 672 1118 m 298 852 l 471 852 l 471 176 l 298 176 l 298 852 z "},"፳":{"ha":965,"x_min":49,"x_max":917,"o":"m 204 176 l 204 241 q 232 381 204 315 q 334 542 260 448 q 382 644 371 593 l 240 644 q 185 563 227 593 q 82 533 143 533 l 49 533 l 97 800 l 868 800 l 917 533 l 884 533 q 781 563 823 533 q 725 644 739 593 l 590 644 q 542 507 580 570 q 657 444 614 484 q 727 338 700 404 q 765 176 754 272 l 558 176 q 538 273 551 234 q 505 335 524 312 q 449 372 485 357 q 410 241 410 295 l 410 176 l 204 176 m 812 1118 l 861 851 l 828 851 q 725 881 768 851 q 669 962 683 911 l 296 962 q 240 881 282 911 q 138 851 199 851 l 104 851 l 153 1118 l 812 1118 m 812 93 l 861 -174 l 828 -174 q 725 -144 768 -174 q 669 -62 683 -114 l 296 -62 q 240 -144 282 -114 q 138 -174 199 -174 l 104 -174 l 153 93 l 812 93 z "},"፴":{"ha":982,"x_min":74,"x_max":908,"o":"m 821 93 l 869 -174 l 836 -174 q 733 -144 776 -174 q 677 -62 691 -114 l 304 -62 q 249 -144 291 -114 q 146 -174 206 -174 l 113 -174 l 161 93 l 821 93 m 821 1118 l 869 851 l 836 851 q 733 881 776 851 q 677 962 691 911 l 304 962 q 249 881 291 911 q 146 851 206 851 l 113 851 l 161 1118 l 821 1118 m 273 758 l 273 465 q 286 362 273 397 q 332 326 299 326 q 376 356 363 326 q 390 467 390 386 l 390 570 q 457 752 390 690 q 652 815 525 815 q 843 753 777 815 q 908 567 908 690 l 908 176 l 708 176 l 708 547 q 697 638 708 607 q 653 669 687 669 q 605 638 619 669 q 590 546 590 607 l 590 427 q 523 241 590 307 q 330 176 456 176 q 139 241 205 176 q 74 429 74 307 l 74 758 l 273 758 z "},"፵":{"ha":1039,"x_min":74,"x_max":965,"o":"m 848 93 l 897 -174 l 864 -174 q 761 -144 804 -174 q 705 -62 719 -114 l 332 -62 q 276 -144 318 -114 q 174 -174 235 -174 l 140 -174 l 189 93 l 848 93 m 848 1118 l 897 851 l 864 851 q 761 881 804 851 q 705 962 719 911 l 332 962 q 276 881 318 911 q 174 851 235 851 l 140 851 l 189 1118 l 848 1118 m 554 176 l 679 460 q 597 482 641 461 q 538 528 554 503 q 458 415 514 456 q 323 374 401 374 q 137 439 199 374 q 74 644 74 504 l 74 803 l 273 803 l 273 661 q 290 576 273 603 q 343 550 306 550 q 400 579 382 550 q 418 672 418 608 l 418 803 l 618 803 l 618 741 q 636 652 618 680 q 690 624 654 624 q 746 651 728 624 q 765 741 765 679 l 765 803 l 965 803 l 965 733 q 954 644 965 690 q 925 561 942 597 l 753 176 l 554 176 z "},"፶":{"ha":854,"x_min":49,"x_max":806,"o":"m 318 176 l 404 374 q 209 440 271 375 q 146 644 146 506 l 146 803 l 347 803 l 347 689 q 354 599 347 622 q 377 563 361 576 q 425 550 394 550 q 472 566 455 550 q 495 607 488 581 q 503 685 503 632 l 503 803 l 707 803 l 707 745 q 700 602 707 648 q 673 510 693 555 l 529 176 l 318 176 m 757 93 l 806 -174 l 772 -174 q 670 -144 712 -174 q 614 -62 627 -114 l 240 -62 q 185 -144 227 -114 q 82 -174 143 -174 l 49 -174 l 97 93 l 757 93 m 757 1118 l 806 851 l 772 851 q 670 881 712 851 q 614 962 627 911 l 240 962 q 185 881 227 911 q 82 851 143 851 l 49 851 l 97 1118 l 757 1118 z "},"፷":{"ha":965,"x_min":49,"x_max":917,"o":"m 382 425 l 414 500 l 319 500 l 378 644 l 240 644 q 185 563 227 593 q 82 533 143 533 l 49 533 l 97 800 l 868 800 l 917 533 l 884 533 q 781 563 823 533 q 725 644 739 593 l 579 644 l 553 581 l 648 581 l 585 425 l 771 425 l 819 158 l 786 158 q 683 188 725 158 q 628 269 642 218 l 338 269 q 282 188 324 218 q 179 158 239 158 l 146 158 l 195 425 l 382 425 m 812 1118 l 861 851 l 828 851 q 725 881 768 851 q 669 962 683 911 l 296 962 q 240 881 282 911 q 138 851 199 851 l 104 851 l 153 1118 l 812 1118 m 812 93 l 861 -174 l 828 -174 q 725 -144 768 -174 q 669 -62 683 -114 l 296 -62 q 240 -144 282 -114 q 138 -174 199 -174 l 104 -174 l 153 93 l 812 93 z "},"፸":{"ha":942,"x_min":74,"x_max":882,"o":"m 800 93 l 848 -174 l 815 -174 q 712 -144 754 -174 q 657 -62 671 -114 l 283 -62 q 228 -144 270 -114 q 125 -174 185 -174 l 92 -174 l 140 93 l 800 93 m 800 1118 l 848 851 l 815 851 q 712 881 754 851 q 657 962 671 911 l 283 962 q 228 881 270 911 q 125 851 185 851 l 92 851 l 140 1118 l 800 1118 m 625 505 q 491 528 547 505 q 403 592 435 551 q 371 684 372 633 q 301 625 330 676 q 273 507 273 574 l 273 476 q 296 407 273 430 q 375 383 319 383 l 490 383 q 538 441 504 420 q 623 463 573 463 l 675 463 l 637 310 l 675 155 l 623 155 q 538 177 573 155 q 490 236 504 198 l 332 236 q 140 287 205 236 q 74 432 74 338 l 74 497 q 189 751 74 667 q 526 836 304 836 l 627 836 q 812 792 743 836 q 882 675 882 749 q 815 549 882 593 q 625 505 749 505 m 625 729 q 584 713 599 729 q 568 672 568 697 q 586 626 568 641 q 628 611 603 611 q 671 629 657 611 q 685 673 685 648 q 668 713 685 697 q 625 729 651 729 z "},"፹":{"ha":1157,"x_min":49,"x_max":1108,"o":"m 1060 800 l 1108 533 l 1075 533 q 972 563 1014 533 q 917 644 930 593 l 823 644 l 823 176 l 624 176 l 624 644 l 532 644 l 532 176 l 334 176 l 334 644 l 240 644 q 185 563 227 593 q 82 533 143 533 l 49 533 l 97 800 l 1060 800 m 908 1118 l 957 851 l 924 851 q 821 881 863 851 q 765 962 779 911 l 392 962 q 336 881 378 911 q 233 851 294 851 l 200 851 l 249 1118 l 908 1118 m 908 93 l 957 -174 l 924 -174 q 821 -144 863 -174 q 765 -62 779 -114 l 392 -62 q 336 -144 378 -114 q 233 -174 294 -174 l 200 -174 l 249 93 l 908 93 z "},"፺":{"ha":854,"x_min":49,"x_max":806,"o":"m 397 689 q 387 722 397 710 q 345 734 376 734 l 336 734 q 281 657 321 686 q 179 628 241 628 l 146 628 l 195 852 l 382 852 q 549 820 496 852 q 602 705 602 787 q 585 620 602 668 q 542 511 568 571 l 684 511 l 543 176 l 330 176 l 439 431 l 298 431 l 353 550 q 397 689 397 646 m 757 1118 l 806 851 l 772 851 q 670 881 712 851 q 614 962 627 911 l 240 962 q 185 881 227 911 q 82 851 143 851 l 49 851 l 97 1118 l 757 1118 m 757 93 l 806 -174 l 772 -174 q 670 -144 712 -174 q 614 -62 627 -114 l 240 -62 q 185 -144 227 -114 q 82 -174 143 -174 l 49 -174 l 97 93 l 757 93 z "},"፻":{"ha":854,"x_min":49,"x_max":806,"o":"m 757 93 l 806 -174 l 772 -174 q 670 -144 712 -174 q 614 -62 627 -114 l 240 -62 q 185 -144 227 -114 q 82 -174 143 -174 l 49 -174 l 97 93 l 757 93 m 757 1118 l 806 851 l 772 851 q 670 881 712 851 q 614 962 627 911 l 240 962 q 185 881 227 911 q 82 851 143 851 l 49 851 l 97 1118 l 757 1118 m 292 176 l 292 294 q 279 385 292 340 q 239 479 266 429 q 200 575 212 530 q 187 668 187 621 q 250 820 187 768 q 435 871 313 871 q 612 821 546 871 q 677 686 677 771 q 655 589 677 631 q 590 516 632 547 q 467 457 548 486 q 492 268 492 383 l 492 176 l 292 176 m 435 751 q 393 734 408 751 q 378 688 378 716 q 414 564 378 633 q 469 607 448 574 q 490 684 490 640 q 435 751 490 751 z "},"፼":{"ha":1177,"x_min":74,"x_max":1103,"o":"m 204 176 l 204 212 q 190 302 204 258 q 139 408 175 347 q 89 514 104 468 q 74 610 74 561 q 137 762 74 711 q 321 812 200 812 q 498 763 433 812 q 564 628 564 713 q 542 537 564 574 q 480 473 521 500 q 346 412 440 446 l 368 357 l 656 444 q 612 610 612 534 q 676 762 612 711 q 860 812 739 812 q 1037 763 971 812 q 1103 628 1103 713 q 1080 531 1103 572 q 1015 458 1057 489 q 892 399 973 427 l 907 359 q 943 210 943 270 l 943 176 l 743 176 l 743 200 q 707 342 743 265 l 401 249 l 404 210 l 404 176 l 204 176 m 911 1118 l 960 851 l 926 851 q 824 881 865 851 q 768 962 782 911 l 395 962 q 339 881 381 911 q 236 851 296 851 l 203 851 l 252 1118 l 911 1118 m 911 93 l 960 -174 l 926 -174 q 824 -144 865 -174 q 768 -62 782 -114 l 395 -62 q 339 -144 381 -114 q 236 -174 296 -174 l 203 -174 l 252 93 l 911 93 m 860 693 q 818 675 833 693 q 803 629 803 658 q 839 505 803 575 q 894 548 873 515 q 916 625 916 581 q 860 693 916 693 m 321 693 q 279 675 294 693 q 264 629 264 658 q 272 570 264 595 q 293 519 279 545 q 353 557 330 530 q 376 625 376 585 q 321 693 376 693 z "},"ሇ":{"ha":1379,"x_min":49,"x_max":1320,"o":"m 750 972 q 893 999 834 991 q 1057 1006 952 1006 q 1251 950 1182 1006 q 1320 796 1320 894 q 1246 628 1320 687 q 1031 568 1173 568 l 956 568 l 956 351 q 871 82 956 177 q 631 -14 787 -14 q 394 81 475 -14 q 313 353 313 175 l 313 366 l 229 366 q 174 303 216 330 q 82 277 132 277 l 49 277 l 86 443 l 49 610 l 82 610 q 174 584 132 610 q 229 521 216 558 l 313 521 l 313 991 l 518 991 l 518 347 q 547 202 518 248 q 636 157 576 157 q 722 203 694 157 q 750 349 750 249 l 750 972 m 1117 800 q 1034 867 1117 867 q 956 859 987 867 l 956 705 l 974 705 q 1081 727 1046 705 q 1117 800 1117 749 z "},"ቇ":{"ha":979,"x_min":62,"x_max":905,"o":"m 243 0 q 185 -61 228 -37 q 96 -86 142 -86 l 62 -86 l 100 69 l 62 224 l 96 224 q 185 199 142 224 q 243 138 229 174 l 387 138 l 387 239 q 156 306 239 247 q 74 467 74 364 q 156 612 74 557 q 387 676 239 667 l 387 681 q 400 724 387 702 q 320 754 359 730 q 259 817 282 779 q 236 899 236 854 q 303 1024 236 979 q 492 1069 370 1069 q 679 1027 612 1069 q 746 905 746 984 q 714 806 746 852 q 624 730 683 759 q 599 710 607 723 q 591 685 591 696 l 591 676 q 824 613 742 669 q 905 467 905 558 q 823 306 905 366 q 591 239 741 247 l 591 0 l 243 0 m 492 971 q 435 951 456 971 q 414 899 414 930 q 433 835 414 861 q 496 790 453 809 q 568 899 568 827 q 548 950 568 928 q 492 971 527 971 m 591 357 q 676 390 646 361 q 707 460 707 418 q 675 526 707 498 q 591 558 644 553 l 591 357 m 387 558 q 303 526 334 554 q 272 460 272 498 q 303 390 272 419 q 387 357 334 361 l 387 558 z "},"ኇ":{"ha":1217,"x_min":49,"x_max":1168,"o":"m 659 785 q 664 836 659 816 q 562 722 594 806 q 529 494 529 637 l 529 490 l 777 490 l 777 0 l 488 0 q 432 -63 474 -37 q 340 -89 390 -89 l 307 -89 l 345 66 l 307 224 l 340 224 q 432 198 390 224 q 488 135 474 172 l 571 135 l 571 334 l 323 334 l 323 456 l 325 484 l 240 484 q 185 402 227 432 q 82 372 143 372 l 49 372 l 97 639 l 340 639 q 485 909 375 827 q 819 991 595 991 l 914 991 q 1100 936 1033 991 q 1168 785 1168 880 q 1102 641 1168 691 q 914 591 1037 591 q 724 640 789 591 q 659 785 659 688 m 914 703 q 970 725 950 703 q 990 790 990 747 q 914 880 990 880 q 856 857 876 880 q 836 790 836 834 q 857 726 836 749 q 914 703 877 703 z "},"ኯ":{"ha":1069,"x_min":49,"x_max":968,"o":"m 325 351 l 240 351 q 185 270 227 300 q 82 240 143 240 l 49 240 l 97 507 l 325 507 q 353 647 329 584 q 215 943 215 727 l 215 1055 l 419 1055 l 419 917 q 454 782 422 816 q 650 836 532 836 q 887 741 806 836 q 968 468 968 646 l 968 329 l 762 329 l 762 475 q 733 620 762 574 q 644 665 705 665 q 558 619 587 665 q 530 473 530 573 l 530 0 l 325 0 l 325 351 z "},"ዏ":{"ha":1695,"x_min":49,"x_max":1621,"o":"m 623 530 q 729 555 682 530 l 729 839 l 711 839 q 609 814 651 839 q 546 748 568 789 q 524 656 524 707 q 551 564 524 598 q 623 530 578 530 m 1260 839 l 1260 633 l 1310 633 q 1390 660 1362 633 q 1418 741 1418 687 q 1389 814 1418 790 q 1310 839 1360 839 l 1260 839 m 334 749 q 464 927 366 863 q 705 991 563 991 l 1321 991 q 1542 927 1463 991 q 1621 747 1621 863 q 1551 551 1621 623 q 1356 479 1480 479 l 1054 479 l 1054 839 l 935 839 l 935 479 l 730 0 l 519 0 l 684 380 q 612 375 655 375 q 414 431 488 375 q 325 593 340 486 l 240 593 q 185 512 227 542 q 82 482 143 482 l 49 482 l 97 749 l 334 749 z "},"ዯ":{"ha":1204,"x_min":49,"x_max":1156,"o":"m 339 542 q 302 631 317 584 q 288 742 288 679 q 371 934 288 863 q 591 1006 454 1006 q 785 955 708 1006 q 888 807 862 903 l 1107 807 l 1156 541 l 1122 541 q 1020 570 1062 541 q 964 652 977 600 l 892 652 q 809 507 875 568 q 635 412 744 446 q 669 183 669 304 l 669 0 l 464 0 l 464 207 q 425 386 464 297 l 240 386 q 185 305 227 335 q 82 275 143 275 l 49 275 l 97 542 l 339 542 m 590 850 q 518 818 546 850 q 490 736 490 785 q 571 549 490 661 q 664 616 631 566 q 696 733 696 665 q 667 818 696 785 q 590 850 639 850 z "},"ጏ":{"ha":871,"x_min":49,"x_max":755,"o":"m 550 298 q 525 554 550 471 q 439 671 499 637 q 256 705 378 705 l 240 705 q 173 625 216 655 q 82 595 130 595 l 49 595 l 97 861 l 271 861 l 271 1055 l 476 1055 l 476 840 q 691 701 627 805 q 755 390 755 596 l 755 0 l 229 0 q 174 -63 216 -37 q 82 -89 132 -89 l 49 -89 l 86 78 l 49 244 l 82 244 q 174 218 132 244 q 229 155 216 193 l 550 155 l 550 298 z "},"ጟ":{"ha":1063,"x_min":49,"x_max":1014,"o":"m 390 0 q 335 -81 376 -51 q 232 -111 293 -111 l 199 -111 l 248 155 l 586 155 l 586 183 q 567 449 586 376 q 503 556 547 522 q 375 590 458 590 l 359 590 q 294 510 338 541 q 201 479 251 479 l 168 479 l 216 746 l 349 746 l 349 851 l 229 851 q 172 781 214 811 q 82 750 129 750 l 49 750 l 86 921 l 49 1092 l 82 1092 q 171 1062 129 1092 q 229 990 214 1032 l 675 990 q 732 1062 690 1031 q 822 1092 775 1092 l 856 1092 l 818 921 l 856 750 l 822 750 q 732 781 775 750 q 675 851 689 811 l 554 851 l 554 725 q 734 586 677 689 q 791 275 791 484 l 791 155 l 965 155 l 1014 -111 l 981 -111 q 878 -81 920 -111 q 822 0 836 -51 l 390 0 z "},"ፇ":{"ha":1040,"x_min":49,"x_max":966,"o":"m 268 0 q 317 216 290 138 q 388 348 345 293 q 510 457 431 403 q 416 531 452 486 q 364 646 380 576 l 229 646 q 170 565 213 600 q 82 529 127 529 l 49 529 l 86 710 l 49 890 l 82 890 q 170 855 127 890 q 229 774 212 819 l 357 774 q 453 943 373 882 q 659 1004 533 1004 q 885 930 803 1004 q 966 732 966 857 q 945 596 966 652 q 879 495 924 541 q 722 386 833 450 q 593 292 641 340 q 520 181 546 245 q 481 0 495 117 l 268 0 m 654 547 q 757 668 735 574 l 564 668 q 598 591 574 624 q 654 547 623 559 m 668 848 q 561 760 579 848 l 761 760 q 731 823 755 798 q 668 848 708 848 z "},"ᎀ":{"ha":2007,"x_min":74,"x_max":1959,"o":"m 807 839 l 688 839 l 688 102 q 556 16 624 46 q 407 -14 488 -14 q 157 103 241 -14 q 74 463 74 220 q 176 850 74 709 q 458 991 278 991 l 1074 991 q 1261 919 1187 991 q 1361 711 1335 847 l 1531 711 q 1704 749 1595 749 q 1893 698 1828 749 q 1959 555 1959 648 q 1890 404 1959 459 q 1704 349 1822 349 q 1517 405 1586 349 q 1449 555 1449 461 l 1449 567 l 1373 567 q 1303 226 1373 350 q 1108 102 1233 102 l 807 102 l 807 839 m 397 142 q 445 151 427 142 q 482 182 463 161 l 482 839 l 464 839 q 366 796 408 839 q 300 666 323 753 q 277 469 277 580 q 307 225 277 308 q 397 142 338 142 m 1013 839 l 1013 256 l 1063 256 q 1171 557 1171 256 q 1143 769 1171 699 q 1063 839 1115 839 l 1013 839 m 1704 637 q 1647 616 1668 637 q 1626 555 1626 594 q 1647 486 1626 513 q 1704 460 1668 460 q 1761 487 1740 460 q 1781 555 1781 513 q 1761 615 1781 593 q 1704 637 1741 637 z "},"ᎁ":{"ha":1922,"x_min":74,"x_max":1874,"o":"m 1485 476 l 1291 476 l 1086 0 l 875 0 l 1082 478 l 1039 478 q 808 686 808 478 l 808 711 l 810 733 l 818 839 l 689 839 l 689 496 q 370 375 539 375 q 150 448 226 375 q 74 659 74 521 q 123 831 74 755 q 267 949 173 907 q 484 991 361 991 l 1137 991 q 1335 946 1273 991 q 1397 794 1397 901 q 1356 632 1397 732 l 1485 632 l 1485 741 l 1682 741 l 1682 522 l 1825 522 l 1874 256 l 1841 256 q 1738 286 1780 256 q 1682 367 1695 315 l 1485 367 l 1485 476 m 382 530 q 484 551 440 530 l 484 839 q 331 791 383 838 q 278 656 278 745 q 306 565 278 600 q 382 530 334 530 m 1023 839 q 1011 725 1011 734 l 1011 708 q 1131 632 1011 632 l 1149 632 l 1161 661 q 1196 779 1196 742 q 1118 839 1196 839 l 1023 839 z "},"ᎂ":{"ha":1610,"x_min":74,"x_max":1550,"o":"m 1039 478 q 808 686 808 478 l 808 711 l 810 733 l 818 839 l 689 839 l 689 496 q 370 375 539 375 q 150 448 226 375 q 74 659 74 521 q 123 831 74 755 q 267 949 173 907 q 484 991 361 991 l 1137 991 q 1335 946 1273 991 q 1397 794 1397 901 q 1390 735 1397 767 q 1369 665 1383 704 q 1274 436 1355 627 l 1314 436 q 1486 380 1422 436 q 1550 228 1550 324 q 1476 59 1550 119 q 1261 0 1401 0 l 832 0 q 776 -81 819 -51 q 673 -111 734 -111 l 640 -111 l 689 155 l 942 155 l 1082 478 l 1039 478 m 382 530 q 484 551 440 530 l 484 839 q 331 791 383 838 q 278 656 278 745 q 306 565 278 600 q 382 530 334 530 m 1023 839 q 1011 725 1011 734 l 1011 708 q 1131 632 1011 632 l 1149 632 l 1161 661 q 1196 779 1196 742 q 1118 839 1196 839 l 1023 839 m 1214 298 l 1145 138 l 1204 138 q 1313 159 1278 138 q 1348 231 1348 181 q 1326 282 1348 267 q 1261 298 1305 298 l 1214 298 z "},"ᎃ":{"ha":2007,"x_min":74,"x_max":1959,"o":"m 436 380 q 366 375 408 375 q 148 448 222 375 q 74 657 74 521 q 121 829 74 753 q 256 949 168 906 q 458 991 343 991 l 1074 991 q 1253 954 1179 991 q 1356 843 1326 916 l 1531 843 q 1704 880 1595 880 q 1893 830 1828 880 q 1959 688 1959 779 q 1890 536 1959 591 q 1704 481 1822 481 q 1517 537 1586 481 q 1449 688 1449 593 l 1449 699 l 1369 699 q 1288 537 1356 595 q 1108 479 1220 479 l 807 479 l 807 839 l 688 839 l 688 479 l 484 0 l 272 0 l 436 380 m 375 530 q 482 555 435 530 l 482 839 l 464 839 q 362 814 404 839 q 299 748 321 789 q 277 656 277 706 q 303 564 277 597 q 375 530 330 530 m 1013 839 l 1013 633 l 1063 633 q 1171 741 1171 633 q 1142 814 1171 790 q 1063 839 1114 839 l 1013 839 m 1704 770 q 1647 747 1667 770 q 1626 688 1626 725 q 1647 618 1626 644 q 1704 591 1668 591 q 1761 618 1740 591 q 1781 688 1781 645 q 1761 747 1781 725 q 1704 770 1741 770 z "},"ᎄ":{"ha":1389,"x_min":115,"x_max":1340,"o":"m 115 0 l 115 640 q 199 912 115 818 q 440 1006 283 1006 q 677 911 596 1006 q 758 637 758 816 l 758 583 l 903 583 q 1086 627 968 627 q 1275 577 1209 627 q 1340 433 1340 527 q 1273 282 1340 338 q 1086 227 1205 227 q 899 283 968 227 q 831 433 831 339 l 831 439 l 758 439 l 758 0 l 553 0 l 553 644 q 524 789 553 743 q 435 835 495 835 q 349 789 377 835 q 321 643 321 743 l 321 0 l 115 0 m 1086 515 q 1029 493 1049 515 q 1008 433 1008 471 q 1030 363 1008 389 q 1086 338 1051 338 q 1142 363 1121 338 q 1162 433 1162 389 q 1142 494 1162 472 q 1086 515 1122 515 z "},"ᎅ":{"ha":1286,"x_min":115,"x_max":1238,"o":"m 115 0 l 115 640 q 199 912 115 818 q 440 1006 283 1006 q 677 911 596 1006 q 758 637 758 816 l 758 570 l 848 570 l 848 677 l 1046 677 l 1046 460 l 1189 460 l 1238 193 l 1204 193 q 1102 223 1144 193 q 1046 304 1059 253 l 848 304 l 848 414 l 758 414 l 758 0 l 553 0 l 553 644 q 524 789 553 743 q 435 835 495 835 q 349 789 377 835 q 321 643 321 743 l 321 0 l 115 0 z "},"ᎆ":{"ha":1164,"x_min":102,"x_max":1104,"o":"m 539 155 l 539 644 q 510 789 539 743 q 421 835 481 835 q 336 790 364 835 q 307 643 307 745 l 307 330 l 102 330 l 102 640 q 186 912 102 818 q 427 1006 270 1006 q 664 911 583 1006 q 745 637 745 816 l 745 436 l 833 436 q 1035 382 966 436 q 1104 228 1104 328 q 1022 61 1104 122 q 796 0 940 0 l 450 0 q 394 -81 437 -51 q 292 -111 352 -111 l 258 -111 l 307 155 l 539 155 m 745 298 l 745 138 l 758 138 q 866 158 830 138 q 901 227 901 179 q 873 283 901 267 q 790 298 846 298 l 745 298 z "},"ᎇ":{"ha":1597,"x_min":49,"x_max":1549,"o":"m 323 0 l 323 428 l 240 428 q 185 347 227 376 q 82 317 143 317 l 49 317 l 97 583 l 323 583 l 323 640 q 408 912 323 818 q 648 1006 492 1006 q 885 911 804 1006 q 966 637 966 816 l 966 583 l 1111 583 q 1295 627 1177 627 q 1483 576 1418 627 q 1549 433 1549 526 q 1481 282 1549 337 q 1295 227 1413 227 q 1107 283 1176 227 q 1039 433 1039 339 l 1039 439 l 966 439 l 966 0 l 761 0 l 761 644 q 732 789 761 743 q 643 835 703 835 q 557 789 585 835 q 529 643 529 743 l 529 0 l 323 0 m 1295 515 q 1237 493 1257 515 q 1217 433 1217 471 q 1238 363 1217 389 q 1295 338 1259 338 q 1350 364 1330 338 q 1371 433 1371 390 q 1350 494 1371 472 q 1295 515 1330 515 z "}}}
